G04 #@! TF.GenerationSoftware,KiCad,Pcbnew,5.1.5+dfsg1-2build2*
G04 #@! TF.CreationDate,2022-11-24T13:25:21+00:00*
G04 #@! TF.ProjectId,6502_SBC,36353032-5f53-4424-932e-6b696361645f,rev?*
G04 #@! TF.SameCoordinates,Original*
G04 #@! TF.FileFunction,Copper,L1,Top*
G04 #@! TF.FilePolarity,Positive*
%FSLAX46Y46*%
G04 Gerber Fmt 4.6, Leading zero omitted, Abs format (unit mm)*
G04 Created by KiCad (PCBNEW 5.1.5+dfsg1-2build2) date 2022-11-24 13:25:21*
%MOMM*%
%LPD*%
G04 APERTURE LIST*
%ADD10O,2.400000X1.600000*%
%ADD11R,2.400000X1.600000*%
%ADD12O,1.600000X1.600000*%
%ADD13C,1.600000*%
%ADD14C,1.800000*%
%ADD15R,1.800000X1.800000*%
%ADD16O,1.727200X1.727200*%
%ADD17R,1.727200X1.727200*%
%ADD18C,2.000000*%
%ADD19O,1.700000X1.700000*%
%ADD20R,1.700000X1.700000*%
%ADD21O,1.600000X2.400000*%
%ADD22R,1.600000X2.400000*%
%ADD23C,0.800000*%
%ADD24C,0.500000*%
%ADD25C,0.250000*%
%ADD26C,0.254000*%
G04 APERTURE END LIST*
D10*
X147396200Y-92075000D03*
X139776200Y-114935000D03*
X147396200Y-94615000D03*
X139776200Y-112395000D03*
X147396200Y-97155000D03*
X139776200Y-109855000D03*
X147396200Y-99695000D03*
X139776200Y-107315000D03*
X147396200Y-102235000D03*
X139776200Y-104775000D03*
X147396200Y-104775000D03*
X139776200Y-102235000D03*
X147396200Y-107315000D03*
X139776200Y-99695000D03*
X147396200Y-109855000D03*
X139776200Y-97155000D03*
X147396200Y-112395000D03*
X139776200Y-94615000D03*
X147396200Y-114935000D03*
D11*
X139776200Y-92075000D03*
D10*
X167716200Y-81915000D03*
X152476200Y-114935000D03*
X167716200Y-84455000D03*
X152476200Y-112395000D03*
X167716200Y-86995000D03*
X152476200Y-109855000D03*
X167716200Y-89535000D03*
X152476200Y-107315000D03*
X167716200Y-92075000D03*
X152476200Y-104775000D03*
X167716200Y-94615000D03*
X152476200Y-102235000D03*
X167716200Y-97155000D03*
X152476200Y-99695000D03*
X167716200Y-99695000D03*
X152476200Y-97155000D03*
X167716200Y-102235000D03*
X152476200Y-94615000D03*
X167716200Y-104775000D03*
X152476200Y-92075000D03*
X167716200Y-107315000D03*
X152476200Y-89535000D03*
X167716200Y-109855000D03*
X152476200Y-86995000D03*
X167716200Y-112395000D03*
X152476200Y-84455000D03*
X167716200Y-114935000D03*
D11*
X152476200Y-81915000D03*
D10*
X134696200Y-99695000D03*
X127076200Y-114935000D03*
X134696200Y-102235000D03*
X127076200Y-112395000D03*
X134696200Y-104775000D03*
X127076200Y-109855000D03*
X134696200Y-107315000D03*
X127076200Y-107315000D03*
X134696200Y-109855000D03*
X127076200Y-104775000D03*
X134696200Y-112395000D03*
X127076200Y-102235000D03*
X134696200Y-114935000D03*
D11*
X127076200Y-99695000D03*
D12*
X135966200Y-120650000D03*
D13*
X135966200Y-130810000D03*
D14*
X146126200Y-85090000D03*
D15*
X146126200Y-87630000D03*
D16*
X135966200Y-145415000D03*
X135966200Y-142875000D03*
X138506200Y-145415000D03*
X138506200Y-142875000D03*
X141046200Y-145415000D03*
X141046200Y-142875000D03*
X143586200Y-145415000D03*
X143586200Y-142875000D03*
X146126200Y-145415000D03*
X146126200Y-142875000D03*
X148666200Y-145415000D03*
X148666200Y-142875000D03*
X151206200Y-145415000D03*
X151206200Y-142875000D03*
X153746200Y-145415000D03*
X153746200Y-142875000D03*
X156286200Y-145415000D03*
X156286200Y-142875000D03*
X158826200Y-145415000D03*
X158826200Y-142875000D03*
X161366200Y-145415000D03*
X161366200Y-142875000D03*
X163906200Y-145415000D03*
X163906200Y-142875000D03*
X166446200Y-145415000D03*
X166446200Y-142875000D03*
X168986200Y-145415000D03*
X168986200Y-142875000D03*
X171526200Y-145415000D03*
X171526200Y-142875000D03*
X174066200Y-145415000D03*
X174066200Y-142875000D03*
X176606200Y-145415000D03*
X176606200Y-142875000D03*
X179146200Y-145415000D03*
X179146200Y-142875000D03*
X181686200Y-145415000D03*
X181686200Y-142875000D03*
X184226200Y-145415000D03*
D17*
X184226200Y-142875000D03*
D18*
X138656200Y-83765000D03*
X138656200Y-88265000D03*
X132156200Y-83765000D03*
X132156200Y-88265000D03*
D12*
X131521200Y-120650000D03*
D13*
X131521200Y-130810000D03*
D12*
X127076200Y-120650000D03*
D13*
X127076200Y-130810000D03*
D12*
X149936200Y-78105000D03*
D13*
X139776200Y-78105000D03*
D19*
X127076200Y-83185000D03*
X127076200Y-85725000D03*
X127076200Y-88265000D03*
X127076200Y-90805000D03*
X127076200Y-93345000D03*
D20*
X127076200Y-95885000D03*
D13*
X165216200Y-78105000D03*
X167716200Y-78105000D03*
X185536200Y-78105000D03*
X188036200Y-78105000D03*
X135926200Y-135890000D03*
X133426200Y-135890000D03*
X132196200Y-95885000D03*
X134696200Y-95885000D03*
D21*
X139776200Y-120650000D03*
X188036200Y-135890000D03*
X142316200Y-120650000D03*
X185496200Y-135890000D03*
X144856200Y-120650000D03*
X182956200Y-135890000D03*
X147396200Y-120650000D03*
X180416200Y-135890000D03*
X149936200Y-120650000D03*
X177876200Y-135890000D03*
X152476200Y-120650000D03*
X175336200Y-135890000D03*
X155016200Y-120650000D03*
X172796200Y-135890000D03*
X157556200Y-120650000D03*
X170256200Y-135890000D03*
X160096200Y-120650000D03*
X167716200Y-135890000D03*
X162636200Y-120650000D03*
X165176200Y-135890000D03*
X165176200Y-120650000D03*
X162636200Y-135890000D03*
X167716200Y-120650000D03*
X160096200Y-135890000D03*
X170256200Y-120650000D03*
X157556200Y-135890000D03*
X172796200Y-120650000D03*
X155016200Y-135890000D03*
X175336200Y-120650000D03*
X152476200Y-135890000D03*
X177876200Y-120650000D03*
X149936200Y-135890000D03*
X180416200Y-120650000D03*
X147396200Y-135890000D03*
X182956200Y-120650000D03*
X144856200Y-135890000D03*
X185496200Y-120650000D03*
X142316200Y-135890000D03*
X188036200Y-120650000D03*
D22*
X139776200Y-135890000D03*
D10*
X188036200Y-81915000D03*
X172796200Y-114935000D03*
X188036200Y-84455000D03*
X172796200Y-112395000D03*
X188036200Y-86995000D03*
X172796200Y-109855000D03*
X188036200Y-89535000D03*
X172796200Y-107315000D03*
X188036200Y-92075000D03*
X172796200Y-104775000D03*
X188036200Y-94615000D03*
X172796200Y-102235000D03*
X188036200Y-97155000D03*
X172796200Y-99695000D03*
X188036200Y-99695000D03*
X172796200Y-97155000D03*
X188036200Y-102235000D03*
X172796200Y-94615000D03*
X188036200Y-104775000D03*
X172796200Y-92075000D03*
X188036200Y-107315000D03*
X172796200Y-89535000D03*
X188036200Y-109855000D03*
X172796200Y-86995000D03*
X188036200Y-112395000D03*
X172796200Y-84455000D03*
X188036200Y-114935000D03*
D11*
X172796200Y-81915000D03*
D13*
X132196200Y-92075000D03*
X134696200Y-92075000D03*
D12*
X127076200Y-146050000D03*
D13*
X127076200Y-135890000D03*
D23*
X148666200Y-118745000D03*
X147396200Y-133985000D03*
X125806200Y-133985000D03*
X136601200Y-94615000D03*
X142316200Y-128270000D03*
X131521200Y-128270000D03*
X182321200Y-86995000D03*
X144221200Y-100965000D03*
X149936200Y-85725000D03*
X144221200Y-90805000D03*
X149936200Y-90805000D03*
X141046200Y-132715000D03*
X128981200Y-132715000D03*
X159461200Y-93345000D03*
X159461200Y-100965000D03*
X132156200Y-97790000D03*
X132156200Y-102235000D03*
X179781200Y-83185000D03*
X142951200Y-103505000D03*
X148666200Y-81915000D03*
X142951200Y-89535000D03*
X148666200Y-89535000D03*
X134061200Y-125730000D03*
X177876200Y-128270000D03*
X189941200Y-95885000D03*
X132791200Y-127000000D03*
X189306200Y-129540000D03*
X130251200Y-118745000D03*
X183591200Y-97155000D03*
X183591200Y-83185000D03*
X130251200Y-80645000D03*
X130886200Y-104775000D03*
X153746200Y-131445000D03*
X137871200Y-129540000D03*
X183591200Y-99695000D03*
X181051200Y-92075000D03*
X178511200Y-89535000D03*
X177241200Y-88265000D03*
X175971200Y-90805000D03*
X155016200Y-83185000D03*
X154381200Y-98425000D03*
X171526200Y-124460000D03*
X156921200Y-107315000D03*
X156921200Y-100965000D03*
X155651200Y-94615000D03*
X155651200Y-113665000D03*
X156286200Y-123190000D03*
X168986200Y-123190000D03*
X159461200Y-109855000D03*
X159461200Y-103505000D03*
X165811200Y-98425000D03*
X162001200Y-112395000D03*
X163271200Y-99695000D03*
X164541200Y-114935000D03*
X141681200Y-113665000D03*
X160731200Y-102235000D03*
X160731200Y-114935000D03*
X144221200Y-111125000D03*
X144221200Y-104775000D03*
X158191200Y-104775000D03*
X158826200Y-118745000D03*
X170891200Y-108585000D03*
X164541200Y-108585000D03*
X164541200Y-95885000D03*
X145491200Y-102235000D03*
X145491200Y-98425000D03*
X137871200Y-106045000D03*
X172796200Y-123190000D03*
X175971200Y-104775000D03*
X162001200Y-103505000D03*
X162001200Y-108585000D03*
X145491200Y-108585000D03*
X144856200Y-112395000D03*
X184861200Y-85725000D03*
X129616200Y-99060000D03*
X137871200Y-98425000D03*
D24*
X132156200Y-88265000D02*
X138656200Y-88265000D01*
X134696200Y-92075000D02*
X139776200Y-92075000D01*
X138506200Y-142875000D02*
X135966200Y-142875000D01*
X132791200Y-135890000D02*
X127076200Y-135890000D01*
X128981200Y-88265000D02*
X127076200Y-88265000D01*
X130886200Y-90170000D02*
X128981200Y-88265000D01*
X132156200Y-130810000D02*
X127076200Y-130810000D01*
X141046200Y-130810000D02*
X132156200Y-130810000D01*
X142951200Y-132715000D02*
X141046200Y-130810000D01*
X156286200Y-132715000D02*
X142951200Y-132715000D01*
X157556200Y-133985000D02*
X156286200Y-132715000D01*
X157556200Y-135890000D02*
X157556200Y-133985000D01*
D25*
X127076200Y-130810000D02*
X127076200Y-130175000D01*
D24*
X124536200Y-90805000D02*
X127076200Y-88265000D01*
X124536200Y-128270000D02*
X124536200Y-90805000D01*
X127076200Y-130810000D02*
X124536200Y-128270000D01*
X134696200Y-92075000D02*
X133426200Y-90805000D01*
X133426200Y-90805000D02*
X132791200Y-90170000D01*
X132791200Y-90170000D02*
X130886200Y-90170000D01*
X141681200Y-80010000D02*
X139776200Y-78105000D01*
X165811200Y-80010000D02*
X141681200Y-80010000D01*
X167716200Y-78105000D02*
X165811200Y-80010000D01*
D25*
X130251200Y-133985000D02*
X130251200Y-133985000D01*
X147396200Y-133985000D02*
X125806200Y-133985000D01*
X128346200Y-147320000D02*
X127076200Y-146050000D01*
X147396200Y-147320000D02*
X128346200Y-147320000D01*
X148666200Y-146050000D02*
X147396200Y-147320000D01*
X148666200Y-145415000D02*
X148666200Y-146050000D01*
X136601200Y-94615000D02*
X139776200Y-94615000D01*
X131521200Y-128270000D02*
X142316200Y-128270000D01*
X167716200Y-86995000D02*
X169621200Y-86995000D01*
X175971200Y-86995000D02*
X188036200Y-86995000D01*
X174701200Y-85725000D02*
X175971200Y-86995000D01*
X170891200Y-85725000D02*
X174701200Y-85725000D01*
X169621200Y-86995000D02*
X170891200Y-85725000D01*
X168986200Y-86995000D02*
X169621200Y-86995000D01*
X167716200Y-86995000D02*
X165811200Y-86995000D01*
X165811200Y-86995000D02*
X164541200Y-85725000D01*
X164541200Y-85725000D02*
X151206200Y-85725000D01*
X136601200Y-102235000D02*
X134696200Y-102235000D01*
X137871200Y-100965000D02*
X136601200Y-102235000D01*
X144221200Y-100965000D02*
X137871200Y-100965000D01*
X151206200Y-85725000D02*
X149936200Y-85725000D01*
X149936200Y-85725000D02*
X149936200Y-85725000D01*
X149936200Y-90805000D02*
X144221200Y-90805000D01*
X141046200Y-132715000D02*
X128981200Y-132715000D01*
X128981200Y-132715000D02*
X128981200Y-132715000D01*
X148666200Y-95885000D02*
X138506200Y-95885000D01*
X151206200Y-93345000D02*
X148666200Y-95885000D01*
X136601200Y-97790000D02*
X132156200Y-97790000D01*
X159461200Y-93345000D02*
X151206200Y-93345000D01*
X138506200Y-95885000D02*
X136601200Y-97790000D01*
X165811200Y-102235000D02*
X167716200Y-102235000D01*
X164541200Y-100965000D02*
X165811200Y-102235000D01*
X159461200Y-100965000D02*
X164541200Y-100965000D01*
X132156200Y-102235000D02*
X127076200Y-102235000D01*
X172796200Y-81915000D02*
X174701200Y-81915000D01*
X174701200Y-81915000D02*
X175971200Y-83185000D01*
X175971200Y-83185000D02*
X179781200Y-83185000D01*
X179781200Y-83185000D02*
X179781200Y-83185000D01*
X136601200Y-104775000D02*
X134696200Y-104775000D01*
X137871200Y-103505000D02*
X136601200Y-104775000D01*
X142951200Y-103505000D02*
X137871200Y-103505000D01*
X152476200Y-81915000D02*
X148666200Y-81915000D01*
X142951200Y-89535000D02*
X148666200Y-89535000D01*
X148666200Y-89535000D02*
X148666200Y-89535000D01*
X165176200Y-81915000D02*
X152476200Y-81915000D01*
X166446200Y-80645000D02*
X165176200Y-81915000D01*
X169621200Y-80645000D02*
X166446200Y-80645000D01*
X170891200Y-81915000D02*
X169621200Y-80645000D01*
X172796200Y-81915000D02*
X170891200Y-81915000D01*
X134696200Y-112395000D02*
X132156200Y-112395000D01*
X132156200Y-112395000D02*
X129616200Y-109855000D01*
X129616200Y-109855000D02*
X127076200Y-109855000D01*
X134061200Y-125730000D02*
X134061200Y-125730000D01*
X177876200Y-128270000D02*
X177876200Y-128270000D01*
X147396200Y-128270000D02*
X177876200Y-128270000D01*
X144856200Y-125730000D02*
X147396200Y-128270000D01*
X134061200Y-125730000D02*
X144856200Y-125730000D01*
X167716200Y-97155000D02*
X169621200Y-97155000D01*
X169621200Y-97155000D02*
X170891200Y-95885000D01*
X170891200Y-95885000D02*
X174701200Y-95885000D01*
X174701200Y-95885000D02*
X189941200Y-95885000D01*
X189941200Y-95885000D02*
X189941200Y-95885000D01*
X144221200Y-127000000D02*
X146761200Y-129540000D01*
X144221200Y-127000000D02*
X132791200Y-127000000D01*
X146761200Y-129540000D02*
X189306200Y-129540000D01*
X189306200Y-129540000D02*
X189306200Y-129540000D01*
X142316200Y-120650000D02*
X142316200Y-119380000D01*
X142316200Y-119380000D02*
X141681200Y-118745000D01*
X141681200Y-118745000D02*
X130251200Y-118745000D01*
X130251200Y-118745000D02*
X130251200Y-118745000D01*
X188036200Y-97155000D02*
X183591200Y-97155000D01*
X183591200Y-97155000D02*
X183591200Y-97155000D01*
X130251200Y-80645000D02*
X130251200Y-80645000D01*
X130886200Y-104775000D02*
X127076200Y-104775000D01*
X134061200Y-76835000D02*
X130251200Y-80645000D01*
X171526200Y-76835000D02*
X134061200Y-76835000D01*
X176606200Y-81915000D02*
X171526200Y-76835000D01*
X182321200Y-81915000D02*
X176606200Y-81915000D01*
X183591200Y-83185000D02*
X182321200Y-81915000D01*
X137871200Y-129540000D02*
X137871200Y-129540000D01*
X142316200Y-111125000D02*
X138506200Y-111125000D01*
X143586200Y-109855000D02*
X142316200Y-111125000D01*
X147396200Y-109855000D02*
X143586200Y-109855000D01*
X138506200Y-111125000D02*
X137236200Y-112395000D01*
X137236200Y-112395000D02*
X137236200Y-114300000D01*
X137236200Y-114300000D02*
X136601200Y-114935000D01*
X136601200Y-114935000D02*
X134696200Y-114935000D01*
X141681200Y-129540000D02*
X137871200Y-129540000D01*
X143586200Y-131445000D02*
X141681200Y-129540000D01*
X153746200Y-131445000D02*
X143586200Y-131445000D01*
X167716200Y-94615000D02*
X169621200Y-94615000D01*
X175971200Y-94615000D02*
X188036200Y-94615000D01*
X170891200Y-93345000D02*
X174701200Y-93345000D01*
X169621200Y-94615000D02*
X170891200Y-93345000D01*
X174701200Y-93345000D02*
X175971200Y-94615000D01*
X168986200Y-94615000D02*
X169621200Y-94615000D01*
X169621200Y-99695000D02*
X167716200Y-99695000D01*
X169621200Y-99695000D02*
X168986200Y-99695000D01*
X170891200Y-98425000D02*
X169621200Y-99695000D01*
X174701200Y-98425000D02*
X170891200Y-98425000D01*
X175971200Y-99695000D02*
X174701200Y-98425000D01*
X188036200Y-99695000D02*
X175971200Y-99695000D01*
X167716200Y-92075000D02*
X169621200Y-92075000D01*
X175971200Y-92075000D02*
X188036200Y-92075000D01*
X174701200Y-90805000D02*
X175971200Y-92075000D01*
X170891200Y-90805000D02*
X174701200Y-90805000D01*
X169621200Y-92075000D02*
X170891200Y-90805000D01*
X168986200Y-92075000D02*
X169621200Y-92075000D01*
X167716200Y-89535000D02*
X169621200Y-89535000D01*
X175971200Y-89535000D02*
X188036200Y-89535000D01*
X174701200Y-88265000D02*
X175971200Y-89535000D01*
X170891200Y-88265000D02*
X174701200Y-88265000D01*
X169621200Y-89535000D02*
X170891200Y-88265000D01*
X168986200Y-89535000D02*
X169621200Y-89535000D01*
X169621200Y-88265000D02*
X165811200Y-88265000D01*
X165811200Y-88265000D02*
X164541200Y-86995000D01*
X164541200Y-86995000D02*
X152476200Y-86995000D01*
X172796200Y-86995000D02*
X174701200Y-86995000D01*
X174701200Y-86995000D02*
X175971200Y-88265000D01*
X175971200Y-88265000D02*
X177241200Y-88265000D01*
X177241200Y-88265000D02*
X177241200Y-88265000D01*
X169621200Y-88265000D02*
X168986200Y-88265000D01*
X170891200Y-86995000D02*
X169621200Y-88265000D01*
X172796200Y-86995000D02*
X170891200Y-86995000D01*
X169621200Y-90805000D02*
X165811200Y-90805000D01*
X165811200Y-90805000D02*
X164541200Y-89535000D01*
X164541200Y-89535000D02*
X152476200Y-89535000D01*
X172796200Y-89535000D02*
X174701200Y-89535000D01*
X174701200Y-89535000D02*
X175971200Y-90805000D01*
X169621200Y-90805000D02*
X168986200Y-90805000D01*
X170891200Y-89535000D02*
X169621200Y-90805000D01*
X172796200Y-89535000D02*
X170891200Y-89535000D01*
X175971200Y-84455000D02*
X188036200Y-84455000D01*
X174701200Y-83185000D02*
X175971200Y-84455000D01*
X170891200Y-83185000D02*
X174701200Y-83185000D01*
X155016200Y-83185000D02*
X155016200Y-83185000D01*
X170891200Y-83185000D02*
X155016200Y-83185000D01*
X150571200Y-98425000D02*
X154381200Y-98425000D01*
X149301200Y-99695000D02*
X150571200Y-98425000D01*
X147396200Y-99695000D02*
X149301200Y-99695000D01*
X154381200Y-98425000D02*
X154381200Y-98425000D01*
X169621200Y-93345000D02*
X165811200Y-93345000D01*
X165811200Y-93345000D02*
X164541200Y-92075000D01*
X164541200Y-92075000D02*
X152476200Y-92075000D01*
X169621200Y-93345000D02*
X168986200Y-93345000D01*
X170891200Y-92075000D02*
X169621200Y-93345000D01*
X172796200Y-92075000D02*
X170891200Y-92075000D01*
X189941200Y-93345000D02*
X189941200Y-93345000D01*
X189941200Y-93345000D02*
X175971200Y-93345000D01*
X191211200Y-94615000D02*
X189941200Y-93345000D01*
X174701200Y-92075000D02*
X172796200Y-92075000D01*
X191211200Y-122555000D02*
X191211200Y-94615000D01*
X189306200Y-124460000D02*
X191211200Y-122555000D01*
X175971200Y-93345000D02*
X174701200Y-92075000D01*
X171526200Y-124460000D02*
X189306200Y-124460000D01*
X170891200Y-107315000D02*
X169621200Y-108585000D01*
X169621200Y-108585000D02*
X168986200Y-108585000D01*
X172796200Y-107315000D02*
X170891200Y-107315000D01*
X164541200Y-107315000D02*
X152476200Y-107315000D01*
X165811200Y-108585000D02*
X164541200Y-107315000D01*
X169621200Y-108585000D02*
X165811200Y-108585000D01*
X147396200Y-102235000D02*
X149301200Y-102235000D01*
X149301200Y-102235000D02*
X150571200Y-100965000D01*
X150571200Y-100965000D02*
X156921200Y-100965000D01*
X156921200Y-100965000D02*
X156921200Y-100965000D01*
X169621200Y-95885000D02*
X165811200Y-95885000D01*
X165811200Y-95885000D02*
X164541200Y-94615000D01*
X164541200Y-94615000D02*
X152476200Y-94615000D01*
X169621200Y-95885000D02*
X168986200Y-95885000D01*
X170891200Y-94615000D02*
X169621200Y-95885000D01*
X172796200Y-94615000D02*
X170891200Y-94615000D01*
X147396200Y-112395000D02*
X149301200Y-112395000D01*
X155651200Y-113665000D02*
X150571200Y-113665000D01*
X150571200Y-113665000D02*
X149301200Y-112395000D01*
X168986200Y-123190000D02*
X156286200Y-123190000D01*
X169621200Y-111125000D02*
X165811200Y-111125000D01*
X165811200Y-111125000D02*
X164541200Y-109855000D01*
X164541200Y-109855000D02*
X152476200Y-109855000D01*
X169621200Y-111125000D02*
X168986200Y-111125000D01*
X170891200Y-109855000D02*
X169621200Y-111125000D01*
X172796200Y-109855000D02*
X170891200Y-109855000D01*
X159461200Y-103505000D02*
X150571200Y-103505000D01*
X150571200Y-103505000D02*
X149301200Y-104775000D01*
X149301200Y-104775000D02*
X147396200Y-104775000D01*
X169621200Y-98425000D02*
X165811200Y-98425000D01*
X165811200Y-98425000D02*
X164541200Y-97155000D01*
X164541200Y-97155000D02*
X152476200Y-97155000D01*
X169621200Y-98425000D02*
X168986200Y-98425000D01*
X170891200Y-97155000D02*
X169621200Y-98425000D01*
X172796200Y-97155000D02*
X170891200Y-97155000D01*
X169621200Y-113665000D02*
X165811200Y-113665000D01*
X165811200Y-113665000D02*
X164541200Y-112395000D01*
X164541200Y-112395000D02*
X152476200Y-112395000D01*
X169621200Y-113665000D02*
X168986200Y-113665000D01*
X170891200Y-112395000D02*
X169621200Y-113665000D01*
X172796200Y-112395000D02*
X170891200Y-112395000D01*
X169621200Y-100965000D02*
X165811200Y-100965000D01*
X165811200Y-100965000D02*
X164541200Y-99695000D01*
X164541200Y-99695000D02*
X152476200Y-99695000D01*
X169621200Y-100965000D02*
X168986200Y-100965000D01*
X170891200Y-99695000D02*
X169621200Y-100965000D01*
X172796200Y-99695000D02*
X170891200Y-99695000D01*
X169621200Y-114935000D02*
X167716200Y-114935000D01*
X169621200Y-114935000D02*
X168986200Y-114935000D01*
X170891200Y-113665000D02*
X169621200Y-114935000D01*
X174701200Y-113665000D02*
X170891200Y-113665000D01*
X175971200Y-114935000D02*
X174701200Y-113665000D01*
X188036200Y-114935000D02*
X175971200Y-114935000D01*
X167716200Y-114935000D02*
X164541200Y-114935000D01*
X163271200Y-114935000D02*
X164541200Y-114935000D01*
X155651200Y-116205000D02*
X162001200Y-116205000D01*
X162001200Y-116205000D02*
X163271200Y-114935000D01*
X154381200Y-117475000D02*
X155651200Y-116205000D01*
X150571200Y-117475000D02*
X154381200Y-117475000D01*
X149301200Y-116205000D02*
X150571200Y-117475000D01*
X144221200Y-116205000D02*
X149301200Y-116205000D01*
X141681200Y-113665000D02*
X144221200Y-116205000D01*
X169621200Y-103505000D02*
X165811200Y-103505000D01*
X165811200Y-103505000D02*
X164541200Y-102235000D01*
X164541200Y-102235000D02*
X152476200Y-102235000D01*
X170891200Y-102235000D02*
X169621200Y-103505000D01*
X169621200Y-103505000D02*
X168986200Y-103505000D01*
X172796200Y-102235000D02*
X170891200Y-102235000D01*
X149301200Y-114935000D02*
X147396200Y-114935000D01*
X150571200Y-116205000D02*
X149301200Y-114935000D01*
X154381200Y-116205000D02*
X150571200Y-116205000D01*
X155651200Y-114935000D02*
X154381200Y-116205000D01*
X160731200Y-114935000D02*
X155651200Y-114935000D01*
X170891200Y-111125000D02*
X169621200Y-112395000D01*
X174701200Y-111125000D02*
X170891200Y-111125000D01*
X175971200Y-112395000D02*
X174701200Y-111125000D01*
X188036200Y-112395000D02*
X175971200Y-112395000D01*
X169621200Y-112395000D02*
X167716200Y-112395000D01*
X167716200Y-112395000D02*
X165811200Y-112395000D01*
X165811200Y-112395000D02*
X164541200Y-111125000D01*
X164541200Y-111125000D02*
X144221200Y-111125000D01*
X144221200Y-111125000D02*
X144221200Y-111125000D01*
X144221200Y-104775000D02*
X139776200Y-104775000D01*
X169621200Y-106045000D02*
X165811200Y-106045000D01*
X165811200Y-106045000D02*
X164541200Y-104775000D01*
X164541200Y-104775000D02*
X152476200Y-104775000D01*
X169621200Y-106045000D02*
X168986200Y-106045000D01*
X170891200Y-104775000D02*
X169621200Y-106045000D01*
X172796200Y-104775000D02*
X170891200Y-104775000D01*
X139776200Y-114935000D02*
X141046200Y-114935000D01*
X141046200Y-114935000D02*
X143586200Y-117475000D01*
X143586200Y-117475000D02*
X149301200Y-117475000D01*
X149301200Y-117475000D02*
X150571200Y-118745000D01*
X150571200Y-118745000D02*
X158826200Y-118745000D01*
X158826200Y-118745000D02*
X158826200Y-118745000D01*
X169621200Y-109855000D02*
X167716200Y-109855000D01*
X169621200Y-109855000D02*
X168986200Y-109855000D01*
X170891200Y-108585000D02*
X169621200Y-109855000D01*
X174701200Y-108585000D02*
X170891200Y-108585000D01*
X175971200Y-109855000D02*
X174701200Y-108585000D01*
X188036200Y-109855000D02*
X175971200Y-109855000D01*
X167716200Y-109855000D02*
X165811200Y-109855000D01*
X165811200Y-109855000D02*
X164541200Y-108585000D01*
X164541200Y-108585000D02*
X164541200Y-108585000D01*
X142951200Y-102235000D02*
X139776200Y-102235000D01*
X148666200Y-98425000D02*
X145491200Y-98425000D01*
X151206200Y-95885000D02*
X148666200Y-98425000D01*
X164541200Y-95885000D02*
X151206200Y-95885000D01*
X142951200Y-102235000D02*
X142951200Y-102235000D01*
X142951200Y-102235000D02*
X145491200Y-102235000D01*
X145491200Y-102235000D02*
X145491200Y-102235000D01*
X169621200Y-107315000D02*
X167716200Y-107315000D01*
X169621200Y-107315000D02*
X168986200Y-107315000D01*
X170891200Y-106045000D02*
X169621200Y-107315000D01*
X174701200Y-106045000D02*
X170891200Y-106045000D01*
X175971200Y-107315000D02*
X174701200Y-106045000D01*
X188036200Y-107315000D02*
X175971200Y-107315000D01*
X164541200Y-106045000D02*
X164541200Y-106045000D01*
X189306200Y-107315000D02*
X188036200Y-107315000D01*
X189941200Y-116205000D02*
X189941200Y-107950000D01*
X189941200Y-107950000D02*
X189306200Y-107315000D01*
X142316200Y-106045000D02*
X142316200Y-106045000D01*
X165811200Y-107315000D02*
X167716200Y-107315000D01*
X164541200Y-106045000D02*
X165811200Y-107315000D01*
X141681200Y-106045000D02*
X164541200Y-106045000D01*
X141681200Y-106045000D02*
X137871200Y-106045000D01*
X137871200Y-106045000D02*
X137871200Y-106045000D01*
X189941200Y-116205000D02*
X189941200Y-121920000D01*
X189941200Y-121920000D02*
X189941200Y-122555000D01*
X189941200Y-122555000D02*
X189306200Y-123190000D01*
X189306200Y-123190000D02*
X172796200Y-123190000D01*
X172796200Y-123190000D02*
X172796200Y-123190000D01*
X188036200Y-104775000D02*
X175971200Y-104775000D01*
X169621200Y-104775000D02*
X167716200Y-104775000D01*
X169621200Y-104775000D02*
X168986200Y-104775000D01*
X174701200Y-103505000D02*
X170891200Y-103505000D01*
X170891200Y-103505000D02*
X169621200Y-104775000D01*
X175971200Y-104775000D02*
X174701200Y-103505000D01*
X167716200Y-104775000D02*
X165811200Y-104775000D01*
X165811200Y-104775000D02*
X164541200Y-103505000D01*
X164541200Y-103505000D02*
X162001200Y-103505000D01*
X162001200Y-103505000D02*
X162001200Y-103505000D01*
X162001200Y-108585000D02*
X145491200Y-108585000D01*
X145491200Y-108585000D02*
X145491200Y-108585000D01*
X144856200Y-112395000D02*
X139776200Y-112395000D01*
X169621200Y-85725000D02*
X165811200Y-85725000D01*
X165811200Y-85725000D02*
X164541200Y-84455000D01*
X164541200Y-84455000D02*
X152476200Y-84455000D01*
X172796200Y-84455000D02*
X174701200Y-84455000D01*
X174701200Y-84455000D02*
X175971200Y-85725000D01*
X175971200Y-85725000D02*
X184861200Y-85725000D01*
X169621200Y-85725000D02*
X168986200Y-85725000D01*
X170891200Y-84455000D02*
X169621200Y-85725000D01*
X172796200Y-84455000D02*
X170891200Y-84455000D01*
X130886200Y-93345000D02*
X127076200Y-93345000D01*
X131521200Y-93980000D02*
X130886200Y-93345000D01*
X135331200Y-93980000D02*
X131521200Y-93980000D01*
X135966200Y-93345000D02*
X135331200Y-93980000D01*
X142951200Y-93345000D02*
X135966200Y-93345000D01*
X144221200Y-94615000D02*
X142951200Y-93345000D01*
X147396200Y-94615000D02*
X144221200Y-94615000D01*
X139776200Y-99695000D02*
X137871200Y-99695000D01*
X136601200Y-100965000D02*
X131521200Y-100965000D01*
X137871200Y-99695000D02*
X136601200Y-100965000D01*
X131521200Y-100965000D02*
X129616200Y-99060000D01*
X135966200Y-121285000D02*
X135331200Y-120650000D01*
X149301200Y-123190000D02*
X149936200Y-122555000D01*
X149936200Y-120650000D02*
X149936200Y-122555000D01*
X136601200Y-123190000D02*
X135966200Y-122555000D01*
X135966200Y-122555000D02*
X135966200Y-121285000D01*
X149301200Y-123190000D02*
X136601200Y-123190000D01*
X132156200Y-83765000D02*
X138656200Y-83765000D01*
X130306200Y-83765000D02*
X132156200Y-83765000D01*
X128346200Y-85725000D02*
X130306200Y-83765000D01*
X127076200Y-85725000D02*
X128346200Y-85725000D01*
X147396200Y-97155000D02*
X144221200Y-97155000D01*
X144221200Y-97155000D02*
X142951200Y-98425000D01*
X142951200Y-98425000D02*
X137871200Y-98425000D01*
X137871200Y-98425000D02*
X137871200Y-98425000D01*
D26*
G36*
X130211399Y-79610000D02*
G01*
X130149261Y-79610000D01*
X129949302Y-79649774D01*
X129760944Y-79727795D01*
X129591426Y-79841063D01*
X129447263Y-79985226D01*
X129333995Y-80154744D01*
X129255974Y-80343102D01*
X129216200Y-80543061D01*
X129216200Y-80746939D01*
X129255974Y-80946898D01*
X129333995Y-81135256D01*
X129447263Y-81304774D01*
X129591426Y-81448937D01*
X129760944Y-81562205D01*
X129949302Y-81640226D01*
X130149261Y-81680000D01*
X130353139Y-81680000D01*
X130553098Y-81640226D01*
X130741456Y-81562205D01*
X130910974Y-81448937D01*
X131055137Y-81304774D01*
X131168405Y-81135256D01*
X131246426Y-80946898D01*
X131286200Y-80746939D01*
X131286200Y-80684801D01*
X134376002Y-77595000D01*
X138434217Y-77595000D01*
X138396347Y-77686426D01*
X138341200Y-77963665D01*
X138341200Y-78246335D01*
X138396347Y-78523574D01*
X138504520Y-78784727D01*
X138661563Y-79019759D01*
X138861441Y-79219637D01*
X139096473Y-79376680D01*
X139357626Y-79484853D01*
X139634865Y-79540000D01*
X139917535Y-79540000D01*
X139952639Y-79533017D01*
X141024670Y-80605049D01*
X141052383Y-80638817D01*
X141086151Y-80666530D01*
X141086153Y-80666532D01*
X141146513Y-80716068D01*
X141187141Y-80749411D01*
X141340887Y-80831589D01*
X141507710Y-80882195D01*
X141637723Y-80895000D01*
X141637731Y-80895000D01*
X141681200Y-80899281D01*
X141724669Y-80895000D01*
X148488850Y-80895000D01*
X148364302Y-80919774D01*
X148175944Y-80997795D01*
X148006426Y-81111063D01*
X147862263Y-81255226D01*
X147748995Y-81424744D01*
X147670974Y-81613102D01*
X147631200Y-81813061D01*
X147631200Y-82016939D01*
X147670974Y-82216898D01*
X147748995Y-82405256D01*
X147862263Y-82574774D01*
X148006426Y-82718937D01*
X148175944Y-82832205D01*
X148364302Y-82910226D01*
X148564261Y-82950000D01*
X148768139Y-82950000D01*
X148968098Y-82910226D01*
X149156456Y-82832205D01*
X149325974Y-82718937D01*
X149369911Y-82675000D01*
X150638128Y-82675000D01*
X150638128Y-82715000D01*
X150650388Y-82839482D01*
X150686698Y-82959180D01*
X150745663Y-83069494D01*
X150825015Y-83166185D01*
X150921706Y-83245537D01*
X151032020Y-83304502D01*
X151151718Y-83340812D01*
X151169682Y-83342581D01*
X151056592Y-83435392D01*
X150877268Y-83653899D01*
X150744018Y-83903192D01*
X150661964Y-84173691D01*
X150634257Y-84455000D01*
X150661964Y-84736309D01*
X150731336Y-84965000D01*
X150639911Y-84965000D01*
X150595974Y-84921063D01*
X150426456Y-84807795D01*
X150238098Y-84729774D01*
X150038139Y-84690000D01*
X149834261Y-84690000D01*
X149634302Y-84729774D01*
X149445944Y-84807795D01*
X149276426Y-84921063D01*
X149132263Y-85065226D01*
X149018995Y-85234744D01*
X148940974Y-85423102D01*
X148901200Y-85623061D01*
X148901200Y-85826939D01*
X148940974Y-86026898D01*
X149018995Y-86215256D01*
X149132263Y-86384774D01*
X149276426Y-86528937D01*
X149445944Y-86642205D01*
X149634302Y-86720226D01*
X149834261Y-86760000D01*
X150038139Y-86760000D01*
X150238098Y-86720226D01*
X150426456Y-86642205D01*
X150595974Y-86528937D01*
X150639911Y-86485000D01*
X150731336Y-86485000D01*
X150661964Y-86713691D01*
X150634257Y-86995000D01*
X150661964Y-87276309D01*
X150744018Y-87546808D01*
X150877268Y-87796101D01*
X151056592Y-88014608D01*
X151275099Y-88193932D01*
X151408058Y-88265000D01*
X151275099Y-88336068D01*
X151056592Y-88515392D01*
X150877268Y-88733899D01*
X150744018Y-88983192D01*
X150661964Y-89253691D01*
X150634257Y-89535000D01*
X150661964Y-89816309D01*
X150744018Y-90086808D01*
X150877268Y-90336101D01*
X151056592Y-90554608D01*
X151275099Y-90733932D01*
X151408058Y-90805000D01*
X151275099Y-90876068D01*
X151056592Y-91055392D01*
X150877268Y-91273899D01*
X150744018Y-91523192D01*
X150661964Y-91793691D01*
X150634257Y-92075000D01*
X150661964Y-92356309D01*
X150744018Y-92626808D01*
X150787038Y-92707293D01*
X150781924Y-92710026D01*
X150781922Y-92710027D01*
X150781923Y-92710027D01*
X150695196Y-92781201D01*
X150695192Y-92781205D01*
X150666199Y-92804999D01*
X150642405Y-92833992D01*
X149194673Y-94281726D01*
X149128382Y-94063192D01*
X148995132Y-93813899D01*
X148815808Y-93595392D01*
X148597301Y-93416068D01*
X148469459Y-93347735D01*
X148699039Y-93197601D01*
X148900700Y-92999895D01*
X149059915Y-92766646D01*
X149170567Y-92506818D01*
X149188104Y-92424039D01*
X149066115Y-92202000D01*
X147523200Y-92202000D01*
X147523200Y-92222000D01*
X147269200Y-92222000D01*
X147269200Y-92202000D01*
X145726285Y-92202000D01*
X145604296Y-92424039D01*
X145621833Y-92506818D01*
X145732485Y-92766646D01*
X145891700Y-92999895D01*
X146093361Y-93197601D01*
X146322941Y-93347735D01*
X146195099Y-93416068D01*
X145976592Y-93595392D01*
X145797268Y-93813899D01*
X145775299Y-93855000D01*
X144536002Y-93855000D01*
X143515004Y-92834003D01*
X143491201Y-92804999D01*
X143375476Y-92710026D01*
X143243447Y-92639454D01*
X143100186Y-92595997D01*
X142988533Y-92585000D01*
X142988522Y-92585000D01*
X142951200Y-92581324D01*
X142913878Y-92585000D01*
X141614272Y-92585000D01*
X141614272Y-91275000D01*
X141602012Y-91150518D01*
X141565702Y-91030820D01*
X141506737Y-90920506D01*
X141427385Y-90823815D01*
X141330694Y-90744463D01*
X141220380Y-90685498D01*
X141100682Y-90649188D01*
X140976200Y-90636928D01*
X138576200Y-90636928D01*
X138451718Y-90649188D01*
X138332020Y-90685498D01*
X138221706Y-90744463D01*
X138125015Y-90823815D01*
X138045663Y-90920506D01*
X137986698Y-91030820D01*
X137950388Y-91150518D01*
X137946499Y-91190000D01*
X135830721Y-91190000D01*
X135810837Y-91160241D01*
X135610959Y-90960363D01*
X135375927Y-90803320D01*
X135114774Y-90695147D01*
X134837535Y-90640000D01*
X134554865Y-90640000D01*
X134519761Y-90646983D01*
X134082736Y-90209958D01*
X134082732Y-90209953D01*
X133447734Y-89574956D01*
X133420017Y-89541183D01*
X133285259Y-89430589D01*
X133228804Y-89400413D01*
X137700392Y-89400413D01*
X137796156Y-89664814D01*
X138085771Y-89805704D01*
X138397308Y-89887384D01*
X138718795Y-89906718D01*
X139037875Y-89862961D01*
X139342288Y-89757795D01*
X139516244Y-89664814D01*
X139600183Y-89433061D01*
X141916200Y-89433061D01*
X141916200Y-89636939D01*
X141955974Y-89836898D01*
X142033995Y-90025256D01*
X142147263Y-90194774D01*
X142291426Y-90338937D01*
X142460944Y-90452205D01*
X142649302Y-90530226D01*
X142849261Y-90570000D01*
X143053139Y-90570000D01*
X143219239Y-90536961D01*
X143186200Y-90703061D01*
X143186200Y-90906939D01*
X143225974Y-91106898D01*
X143303995Y-91295256D01*
X143417263Y-91464774D01*
X143561426Y-91608937D01*
X143730944Y-91722205D01*
X143919302Y-91800226D01*
X144119261Y-91840000D01*
X144323139Y-91840000D01*
X144523098Y-91800226D01*
X144711456Y-91722205D01*
X144880974Y-91608937D01*
X144924911Y-91565000D01*
X145655128Y-91565000D01*
X145621833Y-91643182D01*
X145604296Y-91725961D01*
X145726285Y-91948000D01*
X147269200Y-91948000D01*
X147269200Y-91928000D01*
X147523200Y-91928000D01*
X147523200Y-91948000D01*
X149066115Y-91948000D01*
X149188104Y-91725961D01*
X149170567Y-91643182D01*
X149137272Y-91565000D01*
X149232489Y-91565000D01*
X149276426Y-91608937D01*
X149445944Y-91722205D01*
X149634302Y-91800226D01*
X149834261Y-91840000D01*
X150038139Y-91840000D01*
X150238098Y-91800226D01*
X150426456Y-91722205D01*
X150595974Y-91608937D01*
X150740137Y-91464774D01*
X150853405Y-91295256D01*
X150931426Y-91106898D01*
X150971200Y-90906939D01*
X150971200Y-90703061D01*
X150931426Y-90503102D01*
X150853405Y-90314744D01*
X150740137Y-90145226D01*
X150595974Y-90001063D01*
X150426456Y-89887795D01*
X150238098Y-89809774D01*
X150038139Y-89770000D01*
X149834261Y-89770000D01*
X149668161Y-89803039D01*
X149701200Y-89636939D01*
X149701200Y-89433061D01*
X149661426Y-89233102D01*
X149583405Y-89044744D01*
X149470137Y-88875226D01*
X149325974Y-88731063D01*
X149156456Y-88617795D01*
X148968098Y-88539774D01*
X148768139Y-88500000D01*
X148564261Y-88500000D01*
X148364302Y-88539774D01*
X148175944Y-88617795D01*
X148006426Y-88731063D01*
X147962489Y-88775000D01*
X147615264Y-88775000D01*
X147615702Y-88774180D01*
X147652012Y-88654482D01*
X147664272Y-88530000D01*
X147661200Y-87915750D01*
X147502450Y-87757000D01*
X146253200Y-87757000D01*
X146253200Y-87777000D01*
X145999200Y-87777000D01*
X145999200Y-87757000D01*
X144749950Y-87757000D01*
X144591200Y-87915750D01*
X144588128Y-88530000D01*
X144600388Y-88654482D01*
X144636698Y-88774180D01*
X144637136Y-88775000D01*
X143654911Y-88775000D01*
X143610974Y-88731063D01*
X143441456Y-88617795D01*
X143253098Y-88539774D01*
X143053139Y-88500000D01*
X142849261Y-88500000D01*
X142649302Y-88539774D01*
X142460944Y-88617795D01*
X142291426Y-88731063D01*
X142147263Y-88875226D01*
X142033995Y-89044744D01*
X141955974Y-89233102D01*
X141916200Y-89433061D01*
X139600183Y-89433061D01*
X139612008Y-89400413D01*
X138656200Y-88444605D01*
X137700392Y-89400413D01*
X133228804Y-89400413D01*
X133131513Y-89348411D01*
X133028869Y-89317274D01*
X132156200Y-88444605D01*
X132142058Y-88458748D01*
X131962453Y-88279143D01*
X131976595Y-88265000D01*
X132335805Y-88265000D01*
X133291613Y-89220808D01*
X133556014Y-89125044D01*
X133696904Y-88835429D01*
X133778584Y-88523892D01*
X133790389Y-88327595D01*
X137014482Y-88327595D01*
X137058239Y-88646675D01*
X137163405Y-88951088D01*
X137256386Y-89125044D01*
X137520787Y-89220808D01*
X138476595Y-88265000D01*
X138835805Y-88265000D01*
X139791613Y-89220808D01*
X140056014Y-89125044D01*
X140196904Y-88835429D01*
X140278584Y-88523892D01*
X140297918Y-88202405D01*
X140254161Y-87883325D01*
X140148995Y-87578912D01*
X140056014Y-87404956D01*
X139791613Y-87309192D01*
X138835805Y-88265000D01*
X138476595Y-88265000D01*
X137520787Y-87309192D01*
X137256386Y-87404956D01*
X137115496Y-87694571D01*
X137033816Y-88006108D01*
X137014482Y-88327595D01*
X133790389Y-88327595D01*
X133797918Y-88202405D01*
X133754161Y-87883325D01*
X133648995Y-87578912D01*
X133556014Y-87404956D01*
X133291613Y-87309192D01*
X132335805Y-88265000D01*
X131976595Y-88265000D01*
X131020787Y-87309192D01*
X130756386Y-87404956D01*
X130615496Y-87694571D01*
X130533816Y-88006108D01*
X130514482Y-88327595D01*
X130549305Y-88581526D01*
X129637734Y-87669956D01*
X129610017Y-87636183D01*
X129475259Y-87525589D01*
X129321513Y-87443411D01*
X129154690Y-87392805D01*
X129024677Y-87380000D01*
X129024669Y-87380000D01*
X128981200Y-87375719D01*
X128937731Y-87380000D01*
X128270856Y-87380000D01*
X128229675Y-87318368D01*
X128040894Y-87129587D01*
X131200392Y-87129587D01*
X132156200Y-88085395D01*
X133112008Y-87129587D01*
X137700392Y-87129587D01*
X138656200Y-88085395D01*
X139612008Y-87129587D01*
X139516244Y-86865186D01*
X139238355Y-86730000D01*
X144588128Y-86730000D01*
X144591200Y-87344250D01*
X144749950Y-87503000D01*
X145999200Y-87503000D01*
X145999200Y-87483000D01*
X146253200Y-87483000D01*
X146253200Y-87503000D01*
X147502450Y-87503000D01*
X147661200Y-87344250D01*
X147664272Y-86730000D01*
X147652012Y-86605518D01*
X147615702Y-86485820D01*
X147556737Y-86375506D01*
X147477385Y-86278815D01*
X147380694Y-86199463D01*
X147270380Y-86140498D01*
X147252073Y-86134944D01*
X147318512Y-86068505D01*
X147486499Y-85817095D01*
X147602211Y-85537743D01*
X147661200Y-85241184D01*
X147661200Y-84938816D01*
X147602211Y-84642257D01*
X147486499Y-84362905D01*
X147318512Y-84111495D01*
X147104705Y-83897688D01*
X146853295Y-83729701D01*
X146573943Y-83613989D01*
X146277384Y-83555000D01*
X145975016Y-83555000D01*
X145678457Y-83613989D01*
X145399105Y-83729701D01*
X145147695Y-83897688D01*
X144933888Y-84111495D01*
X144765901Y-84362905D01*
X144650189Y-84642257D01*
X144591200Y-84938816D01*
X144591200Y-85241184D01*
X144650189Y-85537743D01*
X144765901Y-85817095D01*
X144933888Y-86068505D01*
X145000327Y-86134944D01*
X144982020Y-86140498D01*
X144871706Y-86199463D01*
X144775015Y-86278815D01*
X144695663Y-86375506D01*
X144636698Y-86485820D01*
X144600388Y-86605518D01*
X144588128Y-86730000D01*
X139238355Y-86730000D01*
X139226629Y-86724296D01*
X138915092Y-86642616D01*
X138593605Y-86623282D01*
X138274525Y-86667039D01*
X137970112Y-86772205D01*
X137796156Y-86865186D01*
X137700392Y-87129587D01*
X133112008Y-87129587D01*
X133016244Y-86865186D01*
X132726629Y-86724296D01*
X132415092Y-86642616D01*
X132093605Y-86623282D01*
X131774525Y-86667039D01*
X131470112Y-86772205D01*
X131296156Y-86865186D01*
X131200392Y-87129587D01*
X128040894Y-87129587D01*
X128022832Y-87111525D01*
X127848440Y-86995000D01*
X128022832Y-86878475D01*
X128229675Y-86671632D01*
X128352325Y-86488073D01*
X128383522Y-86485000D01*
X128383533Y-86485000D01*
X128495186Y-86474003D01*
X128638447Y-86430546D01*
X128770476Y-86359974D01*
X128886201Y-86265001D01*
X128910004Y-86235997D01*
X130621002Y-84525000D01*
X130701291Y-84525000D01*
X130707282Y-84539463D01*
X130886213Y-84807252D01*
X131113948Y-85034987D01*
X131381737Y-85213918D01*
X131679288Y-85337168D01*
X131995167Y-85400000D01*
X132317233Y-85400000D01*
X132633112Y-85337168D01*
X132930663Y-85213918D01*
X133198452Y-85034987D01*
X133426187Y-84807252D01*
X133605118Y-84539463D01*
X133611109Y-84525000D01*
X137201291Y-84525000D01*
X137207282Y-84539463D01*
X137386213Y-84807252D01*
X137613948Y-85034987D01*
X137881737Y-85213918D01*
X138179288Y-85337168D01*
X138495167Y-85400000D01*
X138817233Y-85400000D01*
X139133112Y-85337168D01*
X139430663Y-85213918D01*
X139698452Y-85034987D01*
X139926187Y-84807252D01*
X140105118Y-84539463D01*
X140228368Y-84241912D01*
X140291200Y-83926033D01*
X140291200Y-83603967D01*
X140228368Y-83288088D01*
X140105118Y-82990537D01*
X139926187Y-82722748D01*
X139698452Y-82495013D01*
X139430663Y-82316082D01*
X139133112Y-82192832D01*
X138817233Y-82130000D01*
X138495167Y-82130000D01*
X138179288Y-82192832D01*
X137881737Y-82316082D01*
X137613948Y-82495013D01*
X137386213Y-82722748D01*
X137207282Y-82990537D01*
X137201291Y-83005000D01*
X133611109Y-83005000D01*
X133605118Y-82990537D01*
X133426187Y-82722748D01*
X133198452Y-82495013D01*
X132930663Y-82316082D01*
X132633112Y-82192832D01*
X132317233Y-82130000D01*
X131995167Y-82130000D01*
X131679288Y-82192832D01*
X131381737Y-82316082D01*
X131113948Y-82495013D01*
X130886213Y-82722748D01*
X130707282Y-82990537D01*
X130701291Y-83005000D01*
X130343533Y-83005000D01*
X130306200Y-83001323D01*
X130268867Y-83005000D01*
X130157214Y-83015997D01*
X130013953Y-83059454D01*
X129881924Y-83130026D01*
X129766199Y-83224999D01*
X129742401Y-83253997D01*
X128223853Y-84772546D01*
X128022832Y-84571525D01*
X127840666Y-84449805D01*
X127957555Y-84380178D01*
X128173788Y-84185269D01*
X128347841Y-83951920D01*
X128473025Y-83689099D01*
X128517676Y-83541890D01*
X128396355Y-83312000D01*
X127203200Y-83312000D01*
X127203200Y-83332000D01*
X126949200Y-83332000D01*
X126949200Y-83312000D01*
X125756045Y-83312000D01*
X125634724Y-83541890D01*
X125679375Y-83689099D01*
X125804559Y-83951920D01*
X125978612Y-84185269D01*
X126194845Y-84380178D01*
X126311734Y-84449805D01*
X126129568Y-84571525D01*
X125922725Y-84778368D01*
X125760210Y-85021589D01*
X125648268Y-85291842D01*
X125591200Y-85578740D01*
X125591200Y-85871260D01*
X125648268Y-86158158D01*
X125760210Y-86428411D01*
X125922725Y-86671632D01*
X126129568Y-86878475D01*
X126303960Y-86995000D01*
X126129568Y-87111525D01*
X125922725Y-87318368D01*
X125760210Y-87561589D01*
X125648268Y-87831842D01*
X125591200Y-88118740D01*
X125591200Y-88411260D01*
X125605661Y-88483960D01*
X123941151Y-90148471D01*
X123907384Y-90176183D01*
X123879671Y-90209951D01*
X123879668Y-90209954D01*
X123796790Y-90310941D01*
X123714612Y-90464687D01*
X123664005Y-90631510D01*
X123646919Y-90805000D01*
X123651201Y-90848479D01*
X123651200Y-128226531D01*
X123646919Y-128270000D01*
X123651200Y-128313469D01*
X123651200Y-128313476D01*
X123664005Y-128443489D01*
X123714611Y-128610312D01*
X123796789Y-128764058D01*
X123907383Y-128898817D01*
X123941156Y-128926534D01*
X125648183Y-130633561D01*
X125641200Y-130668665D01*
X125641200Y-130951335D01*
X125696347Y-131228574D01*
X125804520Y-131489727D01*
X125961563Y-131724759D01*
X126161441Y-131924637D01*
X126396473Y-132081680D01*
X126657626Y-132189853D01*
X126934865Y-132245000D01*
X127217535Y-132245000D01*
X127494774Y-132189853D01*
X127755927Y-132081680D01*
X127990959Y-131924637D01*
X128190837Y-131724759D01*
X128210721Y-131695000D01*
X128803850Y-131695000D01*
X128679302Y-131719774D01*
X128490944Y-131797795D01*
X128321426Y-131911063D01*
X128177263Y-132055226D01*
X128063995Y-132224744D01*
X127985974Y-132413102D01*
X127946200Y-132613061D01*
X127946200Y-132816939D01*
X127985974Y-133016898D01*
X128063995Y-133205256D01*
X128077187Y-133225000D01*
X126509911Y-133225000D01*
X126465974Y-133181063D01*
X126296456Y-133067795D01*
X126108098Y-132989774D01*
X125908139Y-132950000D01*
X125704261Y-132950000D01*
X125504302Y-132989774D01*
X125315944Y-133067795D01*
X125146426Y-133181063D01*
X125002263Y-133325226D01*
X124888995Y-133494744D01*
X124810974Y-133683102D01*
X124771200Y-133883061D01*
X124771200Y-134086939D01*
X124810974Y-134286898D01*
X124888995Y-134475256D01*
X125002263Y-134644774D01*
X125146426Y-134788937D01*
X125315944Y-134902205D01*
X125504302Y-134980226D01*
X125704261Y-135020000D01*
X125908139Y-135020000D01*
X125935261Y-135014605D01*
X125804520Y-135210273D01*
X125696347Y-135471426D01*
X125641200Y-135748665D01*
X125641200Y-136031335D01*
X125696347Y-136308574D01*
X125804520Y-136569727D01*
X125961563Y-136804759D01*
X126161441Y-137004637D01*
X126396473Y-137161680D01*
X126657626Y-137269853D01*
X126934865Y-137325000D01*
X127217535Y-137325000D01*
X127494774Y-137269853D01*
X127755927Y-137161680D01*
X127990959Y-137004637D01*
X128190837Y-136804759D01*
X128210721Y-136775000D01*
X132291679Y-136775000D01*
X132311563Y-136804759D01*
X132511441Y-137004637D01*
X132746473Y-137161680D01*
X133007626Y-137269853D01*
X133284865Y-137325000D01*
X133567535Y-137325000D01*
X133844774Y-137269853D01*
X134105927Y-137161680D01*
X134340959Y-137004637D01*
X134462894Y-136882702D01*
X135113103Y-136882702D01*
X135184686Y-137126671D01*
X135440196Y-137247571D01*
X135714384Y-137316300D01*
X135996712Y-137330217D01*
X136276330Y-137288787D01*
X136542492Y-137193603D01*
X136667714Y-137126671D01*
X136678473Y-137090000D01*
X138338128Y-137090000D01*
X138350388Y-137214482D01*
X138386698Y-137334180D01*
X138445663Y-137444494D01*
X138525015Y-137541185D01*
X138621706Y-137620537D01*
X138732020Y-137679502D01*
X138851718Y-137715812D01*
X138976200Y-137728072D01*
X139490450Y-137725000D01*
X139649200Y-137566250D01*
X139649200Y-136017000D01*
X138499950Y-136017000D01*
X138341200Y-136175750D01*
X138338128Y-137090000D01*
X136678473Y-137090000D01*
X136739297Y-136882702D01*
X135926200Y-136069605D01*
X135113103Y-136882702D01*
X134462894Y-136882702D01*
X134540837Y-136804759D01*
X134674892Y-136604131D01*
X134689529Y-136631514D01*
X134933498Y-136703097D01*
X135746595Y-135890000D01*
X136105805Y-135890000D01*
X136918902Y-136703097D01*
X137162871Y-136631514D01*
X137283771Y-136376004D01*
X137352500Y-136101816D01*
X137366417Y-135819488D01*
X137324987Y-135539870D01*
X137229803Y-135273708D01*
X137162871Y-135148486D01*
X136918902Y-135076903D01*
X136105805Y-135890000D01*
X135746595Y-135890000D01*
X134933498Y-135076903D01*
X134689529Y-135148486D01*
X134675876Y-135177341D01*
X134540837Y-134975241D01*
X134340959Y-134775363D01*
X134295517Y-134745000D01*
X135157789Y-134745000D01*
X135113103Y-134897298D01*
X135926200Y-135710395D01*
X136739297Y-134897298D01*
X136694611Y-134745000D01*
X138338313Y-134745000D01*
X138341200Y-135604250D01*
X138499950Y-135763000D01*
X139649200Y-135763000D01*
X139649200Y-135743000D01*
X139903200Y-135743000D01*
X139903200Y-135763000D01*
X139923200Y-135763000D01*
X139923200Y-136017000D01*
X139903200Y-136017000D01*
X139903200Y-137566250D01*
X140061950Y-137725000D01*
X140576200Y-137728072D01*
X140700682Y-137715812D01*
X140820380Y-137679502D01*
X140930694Y-137620537D01*
X141027385Y-137541185D01*
X141106737Y-137444494D01*
X141165702Y-137334180D01*
X141202012Y-137214482D01*
X141203781Y-137196517D01*
X141296593Y-137309608D01*
X141515100Y-137488932D01*
X141764393Y-137622182D01*
X142034892Y-137704236D01*
X142316200Y-137731943D01*
X142597509Y-137704236D01*
X142868008Y-137622182D01*
X143117301Y-137488932D01*
X143335808Y-137309608D01*
X143515132Y-137091101D01*
X143586200Y-136958142D01*
X143657268Y-137091101D01*
X143836593Y-137309608D01*
X144055100Y-137488932D01*
X144304393Y-137622182D01*
X144574892Y-137704236D01*
X144856200Y-137731943D01*
X145137509Y-137704236D01*
X145408008Y-137622182D01*
X145657301Y-137488932D01*
X145875808Y-137309608D01*
X146055132Y-137091101D01*
X146126200Y-136958142D01*
X146197268Y-137091101D01*
X146376593Y-137309608D01*
X146595100Y-137488932D01*
X146844393Y-137622182D01*
X147114892Y-137704236D01*
X147396200Y-137731943D01*
X147677509Y-137704236D01*
X147948008Y-137622182D01*
X148197301Y-137488932D01*
X148415808Y-137309608D01*
X148595132Y-137091101D01*
X148666200Y-136958142D01*
X148737268Y-137091101D01*
X148916593Y-137309608D01*
X149135100Y-137488932D01*
X149384393Y-137622182D01*
X149654892Y-137704236D01*
X149936200Y-137731943D01*
X150217509Y-137704236D01*
X150488008Y-137622182D01*
X150737301Y-137488932D01*
X150955808Y-137309608D01*
X151135132Y-137091101D01*
X151206200Y-136958142D01*
X151277268Y-137091101D01*
X151456593Y-137309608D01*
X151675100Y-137488932D01*
X151924393Y-137622182D01*
X152194892Y-137704236D01*
X152476200Y-137731943D01*
X152757509Y-137704236D01*
X153028008Y-137622182D01*
X153277301Y-137488932D01*
X153495808Y-137309608D01*
X153675132Y-137091101D01*
X153746200Y-136958142D01*
X153817268Y-137091101D01*
X153996593Y-137309608D01*
X154215100Y-137488932D01*
X154464393Y-137622182D01*
X154734892Y-137704236D01*
X155016200Y-137731943D01*
X155297509Y-137704236D01*
X155568008Y-137622182D01*
X155817301Y-137488932D01*
X156035808Y-137309608D01*
X156215132Y-137091101D01*
X156286200Y-136958142D01*
X156357268Y-137091101D01*
X156536593Y-137309608D01*
X156755100Y-137488932D01*
X157004393Y-137622182D01*
X157274892Y-137704236D01*
X157556200Y-137731943D01*
X157837509Y-137704236D01*
X158108008Y-137622182D01*
X158357301Y-137488932D01*
X158575808Y-137309608D01*
X158755132Y-137091101D01*
X158826200Y-136958142D01*
X158897268Y-137091101D01*
X159076593Y-137309608D01*
X159295100Y-137488932D01*
X159544393Y-137622182D01*
X159814892Y-137704236D01*
X160096200Y-137731943D01*
X160377509Y-137704236D01*
X160648008Y-137622182D01*
X160897301Y-137488932D01*
X161115808Y-137309608D01*
X161295132Y-137091101D01*
X161366200Y-136958142D01*
X161437268Y-137091101D01*
X161616593Y-137309608D01*
X161835100Y-137488932D01*
X162084393Y-137622182D01*
X162354892Y-137704236D01*
X162636200Y-137731943D01*
X162917509Y-137704236D01*
X163188008Y-137622182D01*
X163437301Y-137488932D01*
X163655808Y-137309608D01*
X163835132Y-137091101D01*
X163906200Y-136958142D01*
X163977268Y-137091101D01*
X164156593Y-137309608D01*
X164375100Y-137488932D01*
X164624393Y-137622182D01*
X164894892Y-137704236D01*
X165176200Y-137731943D01*
X165457509Y-137704236D01*
X165728008Y-137622182D01*
X165977301Y-137488932D01*
X166195808Y-137309608D01*
X166375132Y-137091101D01*
X166446200Y-136958142D01*
X166517268Y-137091101D01*
X166696593Y-137309608D01*
X166915100Y-137488932D01*
X167164393Y-137622182D01*
X167434892Y-137704236D01*
X167716200Y-137731943D01*
X167997509Y-137704236D01*
X168268008Y-137622182D01*
X168517301Y-137488932D01*
X168735808Y-137309608D01*
X168915132Y-137091101D01*
X168986200Y-136958142D01*
X169057268Y-137091101D01*
X169236593Y-137309608D01*
X169455100Y-137488932D01*
X169704393Y-137622182D01*
X169974892Y-137704236D01*
X170256200Y-137731943D01*
X170537509Y-137704236D01*
X170808008Y-137622182D01*
X171057301Y-137488932D01*
X171275808Y-137309608D01*
X171455132Y-137091101D01*
X171526200Y-136958142D01*
X171597268Y-137091101D01*
X171776593Y-137309608D01*
X171995100Y-137488932D01*
X172244393Y-137622182D01*
X172514892Y-137704236D01*
X172796200Y-137731943D01*
X173077509Y-137704236D01*
X173348008Y-137622182D01*
X173597301Y-137488932D01*
X173815808Y-137309608D01*
X173995132Y-137091101D01*
X174066200Y-136958142D01*
X174137268Y-137091101D01*
X174316593Y-137309608D01*
X174535100Y-137488932D01*
X174784393Y-137622182D01*
X175054892Y-137704236D01*
X175336200Y-137731943D01*
X175617509Y-137704236D01*
X175888008Y-137622182D01*
X176137301Y-137488932D01*
X176355808Y-137309608D01*
X176535132Y-137091101D01*
X176606200Y-136958142D01*
X176677268Y-137091101D01*
X176856593Y-137309608D01*
X177075100Y-137488932D01*
X177324393Y-137622182D01*
X177594892Y-137704236D01*
X177876200Y-137731943D01*
X178157509Y-137704236D01*
X178428008Y-137622182D01*
X178677301Y-137488932D01*
X178895808Y-137309608D01*
X179075132Y-137091101D01*
X179146200Y-136958142D01*
X179217268Y-137091101D01*
X179396593Y-137309608D01*
X179615100Y-137488932D01*
X179864393Y-137622182D01*
X180134892Y-137704236D01*
X180416200Y-137731943D01*
X180697509Y-137704236D01*
X180968008Y-137622182D01*
X181217301Y-137488932D01*
X181435808Y-137309608D01*
X181615132Y-137091101D01*
X181686200Y-136958142D01*
X181757268Y-137091101D01*
X181936593Y-137309608D01*
X182155100Y-137488932D01*
X182404393Y-137622182D01*
X182674892Y-137704236D01*
X182956200Y-137731943D01*
X183237509Y-137704236D01*
X183508008Y-137622182D01*
X183757301Y-137488932D01*
X183975808Y-137309608D01*
X184155132Y-137091101D01*
X184226200Y-136958142D01*
X184297268Y-137091101D01*
X184476593Y-137309608D01*
X184695100Y-137488932D01*
X184944393Y-137622182D01*
X185214892Y-137704236D01*
X185496200Y-137731943D01*
X185777509Y-137704236D01*
X186048008Y-137622182D01*
X186297301Y-137488932D01*
X186515808Y-137309608D01*
X186695132Y-137091101D01*
X186766200Y-136958142D01*
X186837268Y-137091101D01*
X187016593Y-137309608D01*
X187235100Y-137488932D01*
X187484393Y-137622182D01*
X187754892Y-137704236D01*
X188036200Y-137731943D01*
X188317509Y-137704236D01*
X188588008Y-137622182D01*
X188837301Y-137488932D01*
X189055808Y-137309608D01*
X189235132Y-137091101D01*
X189368382Y-136841808D01*
X189450436Y-136571309D01*
X189471200Y-136360491D01*
X189471200Y-135419508D01*
X189450436Y-135208691D01*
X189368382Y-134938192D01*
X189235132Y-134688899D01*
X189055807Y-134470392D01*
X188837300Y-134291068D01*
X188588007Y-134157818D01*
X188317508Y-134075764D01*
X188036200Y-134048057D01*
X187754891Y-134075764D01*
X187484392Y-134157818D01*
X187235099Y-134291068D01*
X187016592Y-134470393D01*
X186837268Y-134688900D01*
X186766200Y-134821858D01*
X186695132Y-134688899D01*
X186515807Y-134470392D01*
X186297300Y-134291068D01*
X186048007Y-134157818D01*
X185777508Y-134075764D01*
X185496200Y-134048057D01*
X185214891Y-134075764D01*
X184944392Y-134157818D01*
X184695099Y-134291068D01*
X184476592Y-134470393D01*
X184297268Y-134688900D01*
X184226200Y-134821858D01*
X184155132Y-134688899D01*
X183975807Y-134470392D01*
X183757300Y-134291068D01*
X183508007Y-134157818D01*
X183237508Y-134075764D01*
X182956200Y-134048057D01*
X182674891Y-134075764D01*
X182404392Y-134157818D01*
X182155099Y-134291068D01*
X181936592Y-134470393D01*
X181757268Y-134688900D01*
X181686200Y-134821858D01*
X181615132Y-134688899D01*
X181435807Y-134470392D01*
X181217300Y-134291068D01*
X180968007Y-134157818D01*
X180697508Y-134075764D01*
X180416200Y-134048057D01*
X180134891Y-134075764D01*
X179864392Y-134157818D01*
X179615099Y-134291068D01*
X179396592Y-134470393D01*
X179217268Y-134688900D01*
X179146200Y-134821858D01*
X179075132Y-134688899D01*
X178895807Y-134470392D01*
X178677300Y-134291068D01*
X178428007Y-134157818D01*
X178157508Y-134075764D01*
X177876200Y-134048057D01*
X177594891Y-134075764D01*
X177324392Y-134157818D01*
X177075099Y-134291068D01*
X176856592Y-134470393D01*
X176677268Y-134688900D01*
X176606200Y-134821858D01*
X176535132Y-134688899D01*
X176355807Y-134470392D01*
X176137300Y-134291068D01*
X175888007Y-134157818D01*
X175617508Y-134075764D01*
X175336200Y-134048057D01*
X175054891Y-134075764D01*
X174784392Y-134157818D01*
X174535099Y-134291068D01*
X174316592Y-134470393D01*
X174137268Y-134688900D01*
X174066200Y-134821858D01*
X173995132Y-134688899D01*
X173815807Y-134470392D01*
X173597300Y-134291068D01*
X173348007Y-134157818D01*
X173077508Y-134075764D01*
X172796200Y-134048057D01*
X172514891Y-134075764D01*
X172244392Y-134157818D01*
X171995099Y-134291068D01*
X171776592Y-134470393D01*
X171597268Y-134688900D01*
X171526200Y-134821858D01*
X171455132Y-134688899D01*
X171275807Y-134470392D01*
X171057300Y-134291068D01*
X170808007Y-134157818D01*
X170537508Y-134075764D01*
X170256200Y-134048057D01*
X169974891Y-134075764D01*
X169704392Y-134157818D01*
X169455099Y-134291068D01*
X169236592Y-134470393D01*
X169057268Y-134688900D01*
X168986200Y-134821858D01*
X168915132Y-134688899D01*
X168735807Y-134470392D01*
X168517300Y-134291068D01*
X168268007Y-134157818D01*
X167997508Y-134075764D01*
X167716200Y-134048057D01*
X167434891Y-134075764D01*
X167164392Y-134157818D01*
X166915099Y-134291068D01*
X166696592Y-134470393D01*
X166517268Y-134688900D01*
X166446200Y-134821858D01*
X166375132Y-134688899D01*
X166195807Y-134470392D01*
X165977300Y-134291068D01*
X165728007Y-134157818D01*
X165457508Y-134075764D01*
X165176200Y-134048057D01*
X164894891Y-134075764D01*
X164624392Y-134157818D01*
X164375099Y-134291068D01*
X164156592Y-134470393D01*
X163977268Y-134688900D01*
X163906200Y-134821858D01*
X163835132Y-134688899D01*
X163655807Y-134470392D01*
X163437300Y-134291068D01*
X163188007Y-134157818D01*
X162917508Y-134075764D01*
X162636200Y-134048057D01*
X162354891Y-134075764D01*
X162084392Y-134157818D01*
X161835099Y-134291068D01*
X161616592Y-134470393D01*
X161437268Y-134688900D01*
X161366200Y-134821858D01*
X161295132Y-134688899D01*
X161115807Y-134470392D01*
X160897300Y-134291068D01*
X160648007Y-134157818D01*
X160377508Y-134075764D01*
X160096200Y-134048057D01*
X159814891Y-134075764D01*
X159544392Y-134157818D01*
X159295099Y-134291068D01*
X159076592Y-134470393D01*
X158897268Y-134688900D01*
X158826200Y-134821858D01*
X158755132Y-134688899D01*
X158575807Y-134470392D01*
X158441200Y-134359923D01*
X158441200Y-134028465D01*
X158445481Y-133984999D01*
X158441200Y-133941533D01*
X158441200Y-133941523D01*
X158428395Y-133811510D01*
X158377789Y-133644687D01*
X158295611Y-133490941D01*
X158185017Y-133356183D01*
X158151249Y-133328470D01*
X156942734Y-132119956D01*
X156915017Y-132086183D01*
X156780259Y-131975589D01*
X156626513Y-131893411D01*
X156459690Y-131842805D01*
X156329677Y-131830000D01*
X156329669Y-131830000D01*
X156286200Y-131825719D01*
X156242731Y-131830000D01*
X154707004Y-131830000D01*
X154741426Y-131746898D01*
X154781200Y-131546939D01*
X154781200Y-131343061D01*
X154741426Y-131143102D01*
X154663405Y-130954744D01*
X154550137Y-130785226D01*
X154405974Y-130641063D01*
X154236456Y-130527795D01*
X154048098Y-130449774D01*
X153848139Y-130410000D01*
X153644261Y-130410000D01*
X153444302Y-130449774D01*
X153255944Y-130527795D01*
X153086426Y-130641063D01*
X153042489Y-130685000D01*
X143901002Y-130685000D01*
X142503935Y-129287934D01*
X142618098Y-129265226D01*
X142806456Y-129187205D01*
X142975974Y-129073937D01*
X143120137Y-128929774D01*
X143233405Y-128760256D01*
X143311426Y-128571898D01*
X143351200Y-128371939D01*
X143351200Y-128168061D01*
X143311426Y-127968102D01*
X143233405Y-127779744D01*
X143220213Y-127760000D01*
X143906399Y-127760000D01*
X146197405Y-130051008D01*
X146221199Y-130080001D01*
X146250192Y-130103795D01*
X146250196Y-130103799D01*
X146291465Y-130137667D01*
X146336924Y-130174974D01*
X146468953Y-130245546D01*
X146612214Y-130289003D01*
X146723867Y-130300000D01*
X146723876Y-130300000D01*
X146761199Y-130303676D01*
X146798522Y-130300000D01*
X188602489Y-130300000D01*
X188646426Y-130343937D01*
X188815944Y-130457205D01*
X189004302Y-130535226D01*
X189204261Y-130575000D01*
X189408139Y-130575000D01*
X189608098Y-130535226D01*
X189796456Y-130457205D01*
X189965974Y-130343937D01*
X190110137Y-130199774D01*
X190223405Y-130030256D01*
X190301426Y-129841898D01*
X190341200Y-129641939D01*
X190341200Y-129438061D01*
X190301426Y-129238102D01*
X190223405Y-129049744D01*
X190110137Y-128880226D01*
X189965974Y-128736063D01*
X189796456Y-128622795D01*
X189608098Y-128544774D01*
X189408139Y-128505000D01*
X189204261Y-128505000D01*
X189004302Y-128544774D01*
X188815944Y-128622795D01*
X188646426Y-128736063D01*
X188602489Y-128780000D01*
X178780213Y-128780000D01*
X178793405Y-128760256D01*
X178871426Y-128571898D01*
X178911200Y-128371939D01*
X178911200Y-128168061D01*
X178871426Y-127968102D01*
X178793405Y-127779744D01*
X178680137Y-127610226D01*
X178535974Y-127466063D01*
X178366456Y-127352795D01*
X178178098Y-127274774D01*
X177978139Y-127235000D01*
X177774261Y-127235000D01*
X177574302Y-127274774D01*
X177385944Y-127352795D01*
X177216426Y-127466063D01*
X177172489Y-127510000D01*
X147711003Y-127510000D01*
X145420004Y-125219003D01*
X145396201Y-125189999D01*
X145280476Y-125095026D01*
X145148447Y-125024454D01*
X145005186Y-124980997D01*
X144893533Y-124970000D01*
X144893522Y-124970000D01*
X144856200Y-124966324D01*
X144818878Y-124970000D01*
X134764911Y-124970000D01*
X134720974Y-124926063D01*
X134551456Y-124812795D01*
X134363098Y-124734774D01*
X134163139Y-124695000D01*
X133959261Y-124695000D01*
X133759302Y-124734774D01*
X133570944Y-124812795D01*
X133401426Y-124926063D01*
X133257263Y-125070226D01*
X133143995Y-125239744D01*
X133065974Y-125428102D01*
X133026200Y-125628061D01*
X133026200Y-125831939D01*
X133059239Y-125998039D01*
X132893139Y-125965000D01*
X132689261Y-125965000D01*
X132489302Y-126004774D01*
X132300944Y-126082795D01*
X132131426Y-126196063D01*
X131987263Y-126340226D01*
X131873995Y-126509744D01*
X131795974Y-126698102D01*
X131756200Y-126898061D01*
X131756200Y-127101939D01*
X131789239Y-127268039D01*
X131623139Y-127235000D01*
X131419261Y-127235000D01*
X131219302Y-127274774D01*
X131030944Y-127352795D01*
X130861426Y-127466063D01*
X130717263Y-127610226D01*
X130603995Y-127779744D01*
X130525974Y-127968102D01*
X130486200Y-128168061D01*
X130486200Y-128371939D01*
X130525974Y-128571898D01*
X130603995Y-128760256D01*
X130717263Y-128929774D01*
X130861426Y-129073937D01*
X131030944Y-129187205D01*
X131219302Y-129265226D01*
X131419261Y-129305000D01*
X131623139Y-129305000D01*
X131823098Y-129265226D01*
X132011456Y-129187205D01*
X132180974Y-129073937D01*
X132224911Y-129030000D01*
X136967187Y-129030000D01*
X136953995Y-129049744D01*
X136875974Y-129238102D01*
X136836200Y-129438061D01*
X136836200Y-129641939D01*
X136841595Y-129669061D01*
X136645927Y-129538320D01*
X136384774Y-129430147D01*
X136107535Y-129375000D01*
X135824865Y-129375000D01*
X135547626Y-129430147D01*
X135286473Y-129538320D01*
X135051441Y-129695363D01*
X134851563Y-129895241D01*
X134831679Y-129925000D01*
X132655721Y-129925000D01*
X132635837Y-129895241D01*
X132435959Y-129695363D01*
X132200927Y-129538320D01*
X131939774Y-129430147D01*
X131662535Y-129375000D01*
X131379865Y-129375000D01*
X131102626Y-129430147D01*
X130841473Y-129538320D01*
X130606441Y-129695363D01*
X130406563Y-129895241D01*
X130386679Y-129925000D01*
X128210721Y-129925000D01*
X128190837Y-129895241D01*
X127990959Y-129695363D01*
X127755927Y-129538320D01*
X127494774Y-129430147D01*
X127217535Y-129375000D01*
X126934865Y-129375000D01*
X126899761Y-129381983D01*
X125421200Y-127903422D01*
X125421200Y-120508665D01*
X125641200Y-120508665D01*
X125641200Y-120791335D01*
X125696347Y-121068574D01*
X125804520Y-121329727D01*
X125961563Y-121564759D01*
X126161441Y-121764637D01*
X126396473Y-121921680D01*
X126657626Y-122029853D01*
X126934865Y-122085000D01*
X127217535Y-122085000D01*
X127494774Y-122029853D01*
X127755927Y-121921680D01*
X127990959Y-121764637D01*
X128190837Y-121564759D01*
X128347880Y-121329727D01*
X128456053Y-121068574D01*
X128511200Y-120791335D01*
X128511200Y-120508665D01*
X128456053Y-120231426D01*
X128347880Y-119970273D01*
X128190837Y-119735241D01*
X127990959Y-119535363D01*
X127755927Y-119378320D01*
X127494774Y-119270147D01*
X127217535Y-119215000D01*
X126934865Y-119215000D01*
X126657626Y-119270147D01*
X126396473Y-119378320D01*
X126161441Y-119535363D01*
X125961563Y-119735241D01*
X125804520Y-119970273D01*
X125696347Y-120231426D01*
X125641200Y-120508665D01*
X125421200Y-120508665D01*
X125421200Y-115639413D01*
X125571700Y-115859895D01*
X125773361Y-116057601D01*
X126009717Y-116212166D01*
X126271686Y-116317650D01*
X126549200Y-116370000D01*
X126949200Y-116370000D01*
X126949200Y-115062000D01*
X127203200Y-115062000D01*
X127203200Y-116370000D01*
X127603200Y-116370000D01*
X127880714Y-116317650D01*
X128142683Y-116212166D01*
X128379039Y-116057601D01*
X128580700Y-115859895D01*
X128739915Y-115626646D01*
X128850567Y-115366818D01*
X128868104Y-115284039D01*
X128746115Y-115062000D01*
X127203200Y-115062000D01*
X126949200Y-115062000D01*
X126929200Y-115062000D01*
X126929200Y-114808000D01*
X126949200Y-114808000D01*
X126949200Y-114788000D01*
X127203200Y-114788000D01*
X127203200Y-114808000D01*
X128746115Y-114808000D01*
X128868104Y-114585961D01*
X128850567Y-114503182D01*
X128739915Y-114243354D01*
X128580700Y-114010105D01*
X128379039Y-113812399D01*
X128149459Y-113662265D01*
X128277301Y-113593932D01*
X128495808Y-113414608D01*
X128675132Y-113196101D01*
X128808382Y-112946808D01*
X128890436Y-112676309D01*
X128918143Y-112395000D01*
X128890436Y-112113691D01*
X128808382Y-111843192D01*
X128675132Y-111593899D01*
X128495808Y-111375392D01*
X128277301Y-111196068D01*
X128144342Y-111125000D01*
X128277301Y-111053932D01*
X128495808Y-110874608D01*
X128675132Y-110656101D01*
X128697101Y-110615000D01*
X129301399Y-110615000D01*
X131592405Y-112906008D01*
X131616199Y-112935001D01*
X131645192Y-112958795D01*
X131645196Y-112958799D01*
X131701768Y-113005226D01*
X131731924Y-113029974D01*
X131863953Y-113100546D01*
X132007214Y-113144003D01*
X132118867Y-113155000D01*
X132118876Y-113155000D01*
X132156199Y-113158676D01*
X132193522Y-113155000D01*
X133075299Y-113155000D01*
X133097268Y-113196101D01*
X133276592Y-113414608D01*
X133495099Y-113593932D01*
X133628058Y-113665000D01*
X133495099Y-113736068D01*
X133276592Y-113915392D01*
X133097268Y-114133899D01*
X132964018Y-114383192D01*
X132881964Y-114653691D01*
X132854257Y-114935000D01*
X132881964Y-115216309D01*
X132964018Y-115486808D01*
X133097268Y-115736101D01*
X133276592Y-115954608D01*
X133495099Y-116133932D01*
X133744392Y-116267182D01*
X134014891Y-116349236D01*
X134225708Y-116370000D01*
X135166692Y-116370000D01*
X135377509Y-116349236D01*
X135648008Y-116267182D01*
X135897301Y-116133932D01*
X136115808Y-115954608D01*
X136295132Y-115736101D01*
X136317101Y-115695000D01*
X136563878Y-115695000D01*
X136601200Y-115698676D01*
X136638522Y-115695000D01*
X136638533Y-115695000D01*
X136750186Y-115684003D01*
X136893447Y-115640546D01*
X137025476Y-115569974D01*
X137141201Y-115475001D01*
X137165003Y-115445998D01*
X137747202Y-114863800D01*
X137776201Y-114840001D01*
X137871174Y-114724276D01*
X137941746Y-114592247D01*
X137985203Y-114448986D01*
X137996200Y-114337333D01*
X137999877Y-114300000D01*
X137996200Y-114262667D01*
X137996200Y-112789171D01*
X138044018Y-112946808D01*
X138177268Y-113196101D01*
X138356592Y-113414608D01*
X138575099Y-113593932D01*
X138708058Y-113665000D01*
X138575099Y-113736068D01*
X138356592Y-113915392D01*
X138177268Y-114133899D01*
X138044018Y-114383192D01*
X137961964Y-114653691D01*
X137934257Y-114935000D01*
X137961964Y-115216309D01*
X138044018Y-115486808D01*
X138177268Y-115736101D01*
X138356592Y-115954608D01*
X138575099Y-116133932D01*
X138824392Y-116267182D01*
X139094891Y-116349236D01*
X139305708Y-116370000D01*
X140246692Y-116370000D01*
X140457509Y-116349236D01*
X140728008Y-116267182D01*
X140977301Y-116133932D01*
X141083322Y-116046923D01*
X143022405Y-117986008D01*
X143046199Y-118015001D01*
X143075192Y-118038795D01*
X143075196Y-118038799D01*
X143131768Y-118085226D01*
X143161924Y-118109974D01*
X143293953Y-118180546D01*
X143437214Y-118224003D01*
X143548867Y-118235000D01*
X143548876Y-118235000D01*
X143586199Y-118238676D01*
X143623522Y-118235000D01*
X148986399Y-118235000D01*
X149602926Y-118851527D01*
X149384392Y-118917818D01*
X149135099Y-119051068D01*
X148916592Y-119230393D01*
X148737268Y-119448900D01*
X148666200Y-119581858D01*
X148595132Y-119448899D01*
X148415807Y-119230392D01*
X148197300Y-119051068D01*
X147948007Y-118917818D01*
X147677508Y-118835764D01*
X147396200Y-118808057D01*
X147114891Y-118835764D01*
X146844392Y-118917818D01*
X146595099Y-119051068D01*
X146376592Y-119230393D01*
X146197268Y-119448900D01*
X146126200Y-119581858D01*
X146055132Y-119448899D01*
X145875807Y-119230392D01*
X145657300Y-119051068D01*
X145408007Y-118917818D01*
X145137508Y-118835764D01*
X144856200Y-118808057D01*
X144574891Y-118835764D01*
X144304392Y-118917818D01*
X144055099Y-119051068D01*
X143836592Y-119230393D01*
X143657268Y-119448900D01*
X143586200Y-119581858D01*
X143515132Y-119448899D01*
X143335807Y-119230392D01*
X143117300Y-119051068D01*
X142956074Y-118964891D01*
X142951174Y-118955724D01*
X142879999Y-118868997D01*
X142856201Y-118839999D01*
X142827202Y-118816200D01*
X142245003Y-118234002D01*
X142221201Y-118204999D01*
X142105476Y-118110026D01*
X141973447Y-118039454D01*
X141830186Y-117995997D01*
X141718533Y-117985000D01*
X141718522Y-117985000D01*
X141681200Y-117981324D01*
X141643878Y-117985000D01*
X130954911Y-117985000D01*
X130910974Y-117941063D01*
X130741456Y-117827795D01*
X130553098Y-117749774D01*
X130353139Y-117710000D01*
X130149261Y-117710000D01*
X129949302Y-117749774D01*
X129760944Y-117827795D01*
X129591426Y-117941063D01*
X129447263Y-118085226D01*
X129333995Y-118254744D01*
X129255974Y-118443102D01*
X129216200Y-118643061D01*
X129216200Y-118846939D01*
X129255974Y-119046898D01*
X129333995Y-119235256D01*
X129447263Y-119404774D01*
X129591426Y-119548937D01*
X129760944Y-119662205D01*
X129949302Y-119740226D01*
X130149261Y-119780000D01*
X130353139Y-119780000D01*
X130380261Y-119774605D01*
X130249520Y-119970273D01*
X130141347Y-120231426D01*
X130086200Y-120508665D01*
X130086200Y-120791335D01*
X130141347Y-121068574D01*
X130249520Y-121329727D01*
X130406563Y-121564759D01*
X130606441Y-121764637D01*
X130841473Y-121921680D01*
X131102626Y-122029853D01*
X131379865Y-122085000D01*
X131662535Y-122085000D01*
X131939774Y-122029853D01*
X132200927Y-121921680D01*
X132435959Y-121764637D01*
X132635837Y-121564759D01*
X132792880Y-121329727D01*
X132901053Y-121068574D01*
X132956200Y-120791335D01*
X132956200Y-120508665D01*
X132901053Y-120231426D01*
X132792880Y-119970273D01*
X132635837Y-119735241D01*
X132435959Y-119535363D01*
X132390517Y-119505000D01*
X135096883Y-119505000D01*
X135051441Y-119535363D01*
X134851563Y-119735241D01*
X134694520Y-119970273D01*
X134586347Y-120231426D01*
X134531200Y-120508665D01*
X134531200Y-120791335D01*
X134586347Y-121068574D01*
X134694520Y-121329727D01*
X134851563Y-121564759D01*
X135051441Y-121764637D01*
X135206201Y-121868044D01*
X135206200Y-122517677D01*
X135202524Y-122555000D01*
X135206200Y-122592322D01*
X135206200Y-122592332D01*
X135217197Y-122703985D01*
X135260654Y-122847246D01*
X135331226Y-122979276D01*
X135371071Y-123027826D01*
X135426199Y-123095001D01*
X135455202Y-123118803D01*
X136037400Y-123701002D01*
X136061199Y-123730001D01*
X136090197Y-123753799D01*
X136176924Y-123824974D01*
X136308953Y-123895546D01*
X136452214Y-123939003D01*
X136601200Y-123953677D01*
X136638533Y-123950000D01*
X149263878Y-123950000D01*
X149301200Y-123953676D01*
X149338522Y-123950000D01*
X149338533Y-123950000D01*
X149450186Y-123939003D01*
X149593447Y-123895546D01*
X149725476Y-123824974D01*
X149841201Y-123730001D01*
X149865003Y-123700998D01*
X150447202Y-123118800D01*
X150476201Y-123095001D01*
X150571174Y-122979276D01*
X150641746Y-122847247D01*
X150685203Y-122703986D01*
X150696200Y-122592333D01*
X150696200Y-122592332D01*
X150699877Y-122555000D01*
X150696200Y-122517667D01*
X150696200Y-122270901D01*
X150737301Y-122248932D01*
X150955808Y-122069608D01*
X151135132Y-121851101D01*
X151206200Y-121718142D01*
X151277268Y-121851101D01*
X151456593Y-122069608D01*
X151675100Y-122248932D01*
X151924393Y-122382182D01*
X152194892Y-122464236D01*
X152476200Y-122491943D01*
X152757509Y-122464236D01*
X153028008Y-122382182D01*
X153277301Y-122248932D01*
X153495808Y-122069608D01*
X153675132Y-121851101D01*
X153746200Y-121718142D01*
X153817268Y-121851101D01*
X153996593Y-122069608D01*
X154215100Y-122248932D01*
X154464393Y-122382182D01*
X154734892Y-122464236D01*
X155016200Y-122491943D01*
X155297509Y-122464236D01*
X155568008Y-122382182D01*
X155817301Y-122248932D01*
X156035808Y-122069608D01*
X156215132Y-121851101D01*
X156286200Y-121718142D01*
X156357268Y-121851101D01*
X156536593Y-122069608D01*
X156755100Y-122248932D01*
X157004393Y-122382182D01*
X157162030Y-122430000D01*
X156989911Y-122430000D01*
X156945974Y-122386063D01*
X156776456Y-122272795D01*
X156588098Y-122194774D01*
X156388139Y-122155000D01*
X156184261Y-122155000D01*
X155984302Y-122194774D01*
X155795944Y-122272795D01*
X155626426Y-122386063D01*
X155482263Y-122530226D01*
X155368995Y-122699744D01*
X155290974Y-122888102D01*
X155251200Y-123088061D01*
X155251200Y-123291939D01*
X155290974Y-123491898D01*
X155368995Y-123680256D01*
X155482263Y-123849774D01*
X155626426Y-123993937D01*
X155795944Y-124107205D01*
X155984302Y-124185226D01*
X156184261Y-124225000D01*
X156388139Y-124225000D01*
X156588098Y-124185226D01*
X156776456Y-124107205D01*
X156945974Y-123993937D01*
X156989911Y-123950000D01*
X168282489Y-123950000D01*
X168326426Y-123993937D01*
X168495944Y-124107205D01*
X168684302Y-124185226D01*
X168884261Y-124225000D01*
X169088139Y-124225000D01*
X169288098Y-124185226D01*
X169476456Y-124107205D01*
X169645974Y-123993937D01*
X169790137Y-123849774D01*
X169903405Y-123680256D01*
X169981426Y-123491898D01*
X170021200Y-123291939D01*
X170021200Y-123088061D01*
X169981426Y-122888102D01*
X169903405Y-122699744D01*
X169790137Y-122530226D01*
X169645974Y-122386063D01*
X169476456Y-122272795D01*
X169288098Y-122194774D01*
X169088139Y-122155000D01*
X168884261Y-122155000D01*
X168684302Y-122194774D01*
X168495944Y-122272795D01*
X168326426Y-122386063D01*
X168282489Y-122430000D01*
X168110371Y-122430000D01*
X168268008Y-122382182D01*
X168517301Y-122248932D01*
X168735808Y-122069608D01*
X168915132Y-121851101D01*
X168986200Y-121718142D01*
X169057268Y-121851101D01*
X169236593Y-122069608D01*
X169455100Y-122248932D01*
X169704393Y-122382182D01*
X169974892Y-122464236D01*
X170256200Y-122491943D01*
X170537509Y-122464236D01*
X170808008Y-122382182D01*
X171057301Y-122248932D01*
X171275808Y-122069608D01*
X171455132Y-121851101D01*
X171526200Y-121718142D01*
X171597268Y-121851101D01*
X171776593Y-122069608D01*
X171995100Y-122248932D01*
X172187637Y-122351845D01*
X172136426Y-122386063D01*
X171992263Y-122530226D01*
X171878995Y-122699744D01*
X171800974Y-122888102D01*
X171761200Y-123088061D01*
X171761200Y-123291939D01*
X171794239Y-123458039D01*
X171628139Y-123425000D01*
X171424261Y-123425000D01*
X171224302Y-123464774D01*
X171035944Y-123542795D01*
X170866426Y-123656063D01*
X170722263Y-123800226D01*
X170608995Y-123969744D01*
X170530974Y-124158102D01*
X170491200Y-124358061D01*
X170491200Y-124561939D01*
X170530974Y-124761898D01*
X170608995Y-124950256D01*
X170722263Y-125119774D01*
X170866426Y-125263937D01*
X171035944Y-125377205D01*
X171224302Y-125455226D01*
X171424261Y-125495000D01*
X171628139Y-125495000D01*
X171828098Y-125455226D01*
X172016456Y-125377205D01*
X172185974Y-125263937D01*
X172229911Y-125220000D01*
X189268878Y-125220000D01*
X189306200Y-125223676D01*
X189343522Y-125220000D01*
X189343533Y-125220000D01*
X189455186Y-125209003D01*
X189598447Y-125165546D01*
X189730476Y-125094974D01*
X189846201Y-125000001D01*
X189870004Y-124970997D01*
X191719200Y-123121802D01*
X191719200Y-147267394D01*
X189888594Y-149098000D01*
X125223806Y-149098000D01*
X123393200Y-147267394D01*
X123393200Y-145908665D01*
X125641200Y-145908665D01*
X125641200Y-146191335D01*
X125696347Y-146468574D01*
X125804520Y-146729727D01*
X125961563Y-146964759D01*
X126161441Y-147164637D01*
X126396473Y-147321680D01*
X126657626Y-147429853D01*
X126934865Y-147485000D01*
X127217535Y-147485000D01*
X127400086Y-147448688D01*
X127782401Y-147831003D01*
X127806199Y-147860001D01*
X127921924Y-147954974D01*
X128053953Y-148025546D01*
X128197214Y-148069003D01*
X128308867Y-148080000D01*
X128308876Y-148080000D01*
X128346199Y-148083676D01*
X128383522Y-148080000D01*
X147358878Y-148080000D01*
X147396200Y-148083676D01*
X147433522Y-148080000D01*
X147433533Y-148080000D01*
X147545186Y-148069003D01*
X147688447Y-148025546D01*
X147820476Y-147954974D01*
X147936201Y-147860001D01*
X147960004Y-147830997D01*
X148893194Y-146897807D01*
X149103325Y-146856010D01*
X149376053Y-146743042D01*
X149621502Y-146579039D01*
X149830239Y-146370302D01*
X149940759Y-146204897D01*
X149999383Y-146303488D01*
X150195907Y-146521854D01*
X150431256Y-146697684D01*
X150696386Y-146824222D01*
X150847174Y-146869958D01*
X151079200Y-146748817D01*
X151079200Y-145542000D01*
X151059200Y-145542000D01*
X151059200Y-145288000D01*
X151079200Y-145288000D01*
X151079200Y-145268000D01*
X151333200Y-145268000D01*
X151333200Y-145288000D01*
X151353200Y-145288000D01*
X151353200Y-145542000D01*
X151333200Y-145542000D01*
X151333200Y-146748817D01*
X151565226Y-146869958D01*
X151716014Y-146824222D01*
X151981144Y-146697684D01*
X152216493Y-146521854D01*
X152413017Y-146303488D01*
X152471641Y-146204897D01*
X152582161Y-146370302D01*
X152790898Y-146579039D01*
X153036347Y-146743042D01*
X153309075Y-146856010D01*
X153598601Y-146913600D01*
X153893799Y-146913600D01*
X154183325Y-146856010D01*
X154456053Y-146743042D01*
X154701502Y-146579039D01*
X154910239Y-146370302D01*
X155016200Y-146211719D01*
X155122161Y-146370302D01*
X155330898Y-146579039D01*
X155576347Y-146743042D01*
X155849075Y-146856010D01*
X156138601Y-146913600D01*
X156433799Y-146913600D01*
X156723325Y-146856010D01*
X156996053Y-146743042D01*
X157241502Y-146579039D01*
X157450239Y-146370302D01*
X157556200Y-146211719D01*
X157662161Y-146370302D01*
X157870898Y-146579039D01*
X158116347Y-146743042D01*
X158389075Y-146856010D01*
X158678601Y-146913600D01*
X158973799Y-146913600D01*
X159263325Y-146856010D01*
X159536053Y-146743042D01*
X159781502Y-146579039D01*
X159990239Y-146370302D01*
X160096200Y-146211719D01*
X160202161Y-146370302D01*
X160410898Y-146579039D01*
X160656347Y-146743042D01*
X160929075Y-146856010D01*
X161218601Y-146913600D01*
X161513799Y-146913600D01*
X161803325Y-146856010D01*
X162076053Y-146743042D01*
X162321502Y-146579039D01*
X162530239Y-146370302D01*
X162636200Y-146211719D01*
X162742161Y-146370302D01*
X162950898Y-146579039D01*
X163196347Y-146743042D01*
X163469075Y-146856010D01*
X163758601Y-146913600D01*
X164053799Y-146913600D01*
X164343325Y-146856010D01*
X164616053Y-146743042D01*
X164861502Y-146579039D01*
X165070239Y-146370302D01*
X165176200Y-146211719D01*
X165282161Y-146370302D01*
X165490898Y-146579039D01*
X165736347Y-146743042D01*
X166009075Y-146856010D01*
X166298601Y-146913600D01*
X166593799Y-146913600D01*
X166883325Y-146856010D01*
X167156053Y-146743042D01*
X167401502Y-146579039D01*
X167610239Y-146370302D01*
X167716200Y-146211719D01*
X167822161Y-146370302D01*
X168030898Y-146579039D01*
X168276347Y-146743042D01*
X168549075Y-146856010D01*
X168838601Y-146913600D01*
X169133799Y-146913600D01*
X169423325Y-146856010D01*
X169696053Y-146743042D01*
X169941502Y-146579039D01*
X170150239Y-146370302D01*
X170256200Y-146211719D01*
X170362161Y-146370302D01*
X170570898Y-146579039D01*
X170816347Y-146743042D01*
X171089075Y-146856010D01*
X171378601Y-146913600D01*
X171673799Y-146913600D01*
X171963325Y-146856010D01*
X172236053Y-146743042D01*
X172481502Y-146579039D01*
X172690239Y-146370302D01*
X172796200Y-146211719D01*
X172902161Y-146370302D01*
X173110898Y-146579039D01*
X173356347Y-146743042D01*
X173629075Y-146856010D01*
X173918601Y-146913600D01*
X174213799Y-146913600D01*
X174503325Y-146856010D01*
X174776053Y-146743042D01*
X175021502Y-146579039D01*
X175230239Y-146370302D01*
X175336200Y-146211719D01*
X175442161Y-146370302D01*
X175650898Y-146579039D01*
X175896347Y-146743042D01*
X176169075Y-146856010D01*
X176458601Y-146913600D01*
X176753799Y-146913600D01*
X177043325Y-146856010D01*
X177316053Y-146743042D01*
X177561502Y-146579039D01*
X177770239Y-146370302D01*
X177876200Y-146211719D01*
X177982161Y-146370302D01*
X178190898Y-146579039D01*
X178436347Y-146743042D01*
X178709075Y-146856010D01*
X178998601Y-146913600D01*
X179293799Y-146913600D01*
X179583325Y-146856010D01*
X179856053Y-146743042D01*
X180101502Y-146579039D01*
X180310239Y-146370302D01*
X180416200Y-146211719D01*
X180522161Y-146370302D01*
X180730898Y-146579039D01*
X180976347Y-146743042D01*
X181249075Y-146856010D01*
X181538601Y-146913600D01*
X181833799Y-146913600D01*
X182123325Y-146856010D01*
X182396053Y-146743042D01*
X182641502Y-146579039D01*
X182850239Y-146370302D01*
X182956200Y-146211719D01*
X183062161Y-146370302D01*
X183270898Y-146579039D01*
X183516347Y-146743042D01*
X183789075Y-146856010D01*
X184078601Y-146913600D01*
X184373799Y-146913600D01*
X184663325Y-146856010D01*
X184936053Y-146743042D01*
X185181502Y-146579039D01*
X185390239Y-146370302D01*
X185554242Y-146124853D01*
X185667210Y-145852125D01*
X185724800Y-145562599D01*
X185724800Y-145267401D01*
X185667210Y-144977875D01*
X185554242Y-144705147D01*
X185390239Y-144459698D01*
X185276177Y-144345636D01*
X185333980Y-144328102D01*
X185444294Y-144269137D01*
X185540985Y-144189785D01*
X185620337Y-144093094D01*
X185679302Y-143982780D01*
X185715612Y-143863082D01*
X185727872Y-143738600D01*
X185727872Y-142011400D01*
X185715612Y-141886918D01*
X185679302Y-141767220D01*
X185620337Y-141656906D01*
X185540985Y-141560215D01*
X185444294Y-141480863D01*
X185333980Y-141421898D01*
X185214282Y-141385588D01*
X185089800Y-141373328D01*
X183362600Y-141373328D01*
X183238118Y-141385588D01*
X183118420Y-141421898D01*
X183008106Y-141480863D01*
X182911415Y-141560215D01*
X182832063Y-141656906D01*
X182773098Y-141767220D01*
X182755564Y-141825023D01*
X182641502Y-141710961D01*
X182396053Y-141546958D01*
X182123325Y-141433990D01*
X181833799Y-141376400D01*
X181538601Y-141376400D01*
X181249075Y-141433990D01*
X180976347Y-141546958D01*
X180730898Y-141710961D01*
X180522161Y-141919698D01*
X180416200Y-142078281D01*
X180310239Y-141919698D01*
X180101502Y-141710961D01*
X179856053Y-141546958D01*
X179583325Y-141433990D01*
X179293799Y-141376400D01*
X178998601Y-141376400D01*
X178709075Y-141433990D01*
X178436347Y-141546958D01*
X178190898Y-141710961D01*
X177982161Y-141919698D01*
X177876200Y-142078281D01*
X177770239Y-141919698D01*
X177561502Y-141710961D01*
X177316053Y-141546958D01*
X177043325Y-141433990D01*
X176753799Y-141376400D01*
X176458601Y-141376400D01*
X176169075Y-141433990D01*
X175896347Y-141546958D01*
X175650898Y-141710961D01*
X175442161Y-141919698D01*
X175336200Y-142078281D01*
X175230239Y-141919698D01*
X175021502Y-141710961D01*
X174776053Y-141546958D01*
X174503325Y-141433990D01*
X174213799Y-141376400D01*
X173918601Y-141376400D01*
X173629075Y-141433990D01*
X173356347Y-141546958D01*
X173110898Y-141710961D01*
X172902161Y-141919698D01*
X172796200Y-142078281D01*
X172690239Y-141919698D01*
X172481502Y-141710961D01*
X172236053Y-141546958D01*
X171963325Y-141433990D01*
X171673799Y-141376400D01*
X171378601Y-141376400D01*
X171089075Y-141433990D01*
X170816347Y-141546958D01*
X170570898Y-141710961D01*
X170362161Y-141919698D01*
X170256200Y-142078281D01*
X170150239Y-141919698D01*
X169941502Y-141710961D01*
X169696053Y-141546958D01*
X169423325Y-141433990D01*
X169133799Y-141376400D01*
X168838601Y-141376400D01*
X168549075Y-141433990D01*
X168276347Y-141546958D01*
X168030898Y-141710961D01*
X167822161Y-141919698D01*
X167716200Y-142078281D01*
X167610239Y-141919698D01*
X167401502Y-141710961D01*
X167156053Y-141546958D01*
X166883325Y-141433990D01*
X166593799Y-141376400D01*
X166298601Y-141376400D01*
X166009075Y-141433990D01*
X165736347Y-141546958D01*
X165490898Y-141710961D01*
X165282161Y-141919698D01*
X165176200Y-142078281D01*
X165070239Y-141919698D01*
X164861502Y-141710961D01*
X164616053Y-141546958D01*
X164343325Y-141433990D01*
X164053799Y-141376400D01*
X163758601Y-141376400D01*
X163469075Y-141433990D01*
X163196347Y-141546958D01*
X162950898Y-141710961D01*
X162742161Y-141919698D01*
X162636200Y-142078281D01*
X162530239Y-141919698D01*
X162321502Y-141710961D01*
X162076053Y-141546958D01*
X161803325Y-141433990D01*
X161513799Y-141376400D01*
X161218601Y-141376400D01*
X160929075Y-141433990D01*
X160656347Y-141546958D01*
X160410898Y-141710961D01*
X160202161Y-141919698D01*
X160096200Y-142078281D01*
X159990239Y-141919698D01*
X159781502Y-141710961D01*
X159536053Y-141546958D01*
X159263325Y-141433990D01*
X158973799Y-141376400D01*
X158678601Y-141376400D01*
X158389075Y-141433990D01*
X158116347Y-141546958D01*
X157870898Y-141710961D01*
X157662161Y-141919698D01*
X157556200Y-142078281D01*
X157450239Y-141919698D01*
X157241502Y-141710961D01*
X156996053Y-141546958D01*
X156723325Y-141433990D01*
X156433799Y-141376400D01*
X156138601Y-141376400D01*
X155849075Y-141433990D01*
X155576347Y-141546958D01*
X155330898Y-141710961D01*
X155122161Y-141919698D01*
X155016200Y-142078281D01*
X154910239Y-141919698D01*
X154701502Y-141710961D01*
X154456053Y-141546958D01*
X154183325Y-141433990D01*
X153893799Y-141376400D01*
X153598601Y-141376400D01*
X153309075Y-141433990D01*
X153036347Y-141546958D01*
X152790898Y-141710961D01*
X152582161Y-141919698D01*
X152476200Y-142078281D01*
X152370239Y-141919698D01*
X152161502Y-141710961D01*
X151916053Y-141546958D01*
X151643325Y-141433990D01*
X151353799Y-141376400D01*
X151058601Y-141376400D01*
X150769075Y-141433990D01*
X150496347Y-141546958D01*
X150250898Y-141710961D01*
X150042161Y-141919698D01*
X149936200Y-142078281D01*
X149830239Y-141919698D01*
X149621502Y-141710961D01*
X149376053Y-141546958D01*
X149103325Y-141433990D01*
X148813799Y-141376400D01*
X148518601Y-141376400D01*
X148229075Y-141433990D01*
X147956347Y-141546958D01*
X147710898Y-141710961D01*
X147502161Y-141919698D01*
X147396200Y-142078281D01*
X147290239Y-141919698D01*
X147081502Y-141710961D01*
X146836053Y-141546958D01*
X146563325Y-141433990D01*
X146273799Y-141376400D01*
X145978601Y-141376400D01*
X145689075Y-141433990D01*
X145416347Y-141546958D01*
X145170898Y-141710961D01*
X144962161Y-141919698D01*
X144856200Y-142078281D01*
X144750239Y-141919698D01*
X144541502Y-141710961D01*
X144296053Y-141546958D01*
X144023325Y-141433990D01*
X143733799Y-141376400D01*
X143438601Y-141376400D01*
X143149075Y-141433990D01*
X142876347Y-141546958D01*
X142630898Y-141710961D01*
X142422161Y-141919698D01*
X142316200Y-142078281D01*
X142210239Y-141919698D01*
X142001502Y-141710961D01*
X141756053Y-141546958D01*
X141483325Y-141433990D01*
X141193799Y-141376400D01*
X140898601Y-141376400D01*
X140609075Y-141433990D01*
X140336347Y-141546958D01*
X140090898Y-141710961D01*
X139882161Y-141919698D01*
X139776200Y-142078281D01*
X139670239Y-141919698D01*
X139461502Y-141710961D01*
X139216053Y-141546958D01*
X138943325Y-141433990D01*
X138653799Y-141376400D01*
X138358601Y-141376400D01*
X138069075Y-141433990D01*
X137796347Y-141546958D01*
X137550898Y-141710961D01*
X137342161Y-141919698D01*
X137295187Y-141990000D01*
X137177213Y-141990000D01*
X137130239Y-141919698D01*
X136921502Y-141710961D01*
X136676053Y-141546958D01*
X136403325Y-141433990D01*
X136113799Y-141376400D01*
X135818601Y-141376400D01*
X135529075Y-141433990D01*
X135256347Y-141546958D01*
X135010898Y-141710961D01*
X134802161Y-141919698D01*
X134638158Y-142165147D01*
X134525190Y-142437875D01*
X134467600Y-142727401D01*
X134467600Y-143022599D01*
X134525190Y-143312125D01*
X134638158Y-143584853D01*
X134802161Y-143830302D01*
X135010898Y-144039039D01*
X135172013Y-144146692D01*
X134955907Y-144308146D01*
X134759383Y-144526512D01*
X134609236Y-144779022D01*
X134511237Y-145055973D01*
X134631736Y-145288000D01*
X135839200Y-145288000D01*
X135839200Y-145268000D01*
X136093200Y-145268000D01*
X136093200Y-145288000D01*
X138379200Y-145288000D01*
X138379200Y-145268000D01*
X138633200Y-145268000D01*
X138633200Y-145288000D01*
X138653200Y-145288000D01*
X138653200Y-145542000D01*
X138633200Y-145542000D01*
X138633200Y-145562000D01*
X138379200Y-145562000D01*
X138379200Y-145542000D01*
X136093200Y-145542000D01*
X136093200Y-145562000D01*
X135839200Y-145562000D01*
X135839200Y-145542000D01*
X134631736Y-145542000D01*
X134511237Y-145774027D01*
X134609236Y-146050978D01*
X134759383Y-146303488D01*
X134955907Y-146521854D01*
X135006966Y-146560000D01*
X128661002Y-146560000D01*
X128474888Y-146373886D01*
X128511200Y-146191335D01*
X128511200Y-145908665D01*
X128456053Y-145631426D01*
X128347880Y-145370273D01*
X128190837Y-145135241D01*
X127990959Y-144935363D01*
X127755927Y-144778320D01*
X127494774Y-144670147D01*
X127217535Y-144615000D01*
X126934865Y-144615000D01*
X126657626Y-144670147D01*
X126396473Y-144778320D01*
X126161441Y-144935363D01*
X125961563Y-145135241D01*
X125804520Y-145370273D01*
X125696347Y-145631426D01*
X125641200Y-145908665D01*
X123393200Y-145908665D01*
X123393200Y-82828110D01*
X125634724Y-82828110D01*
X125756045Y-83058000D01*
X126949200Y-83058000D01*
X126949200Y-81864186D01*
X127203200Y-81864186D01*
X127203200Y-83058000D01*
X128396355Y-83058000D01*
X128517676Y-82828110D01*
X128473025Y-82680901D01*
X128347841Y-82418080D01*
X128173788Y-82184731D01*
X127957555Y-81989822D01*
X127707452Y-81840843D01*
X127433091Y-81743519D01*
X127203200Y-81864186D01*
X126949200Y-81864186D01*
X126719309Y-81743519D01*
X126444948Y-81840843D01*
X126194845Y-81989822D01*
X125978612Y-82184731D01*
X125804559Y-82418080D01*
X125679375Y-82680901D01*
X125634724Y-82828110D01*
X123393200Y-82828110D01*
X123393200Y-78157606D01*
X125223806Y-76327000D01*
X133494398Y-76327000D01*
X130211399Y-79610000D01*
G37*
X130211399Y-79610000D02*
X130149261Y-79610000D01*
X129949302Y-79649774D01*
X129760944Y-79727795D01*
X129591426Y-79841063D01*
X129447263Y-79985226D01*
X129333995Y-80154744D01*
X129255974Y-80343102D01*
X129216200Y-80543061D01*
X129216200Y-80746939D01*
X129255974Y-80946898D01*
X129333995Y-81135256D01*
X129447263Y-81304774D01*
X129591426Y-81448937D01*
X129760944Y-81562205D01*
X129949302Y-81640226D01*
X130149261Y-81680000D01*
X130353139Y-81680000D01*
X130553098Y-81640226D01*
X130741456Y-81562205D01*
X130910974Y-81448937D01*
X131055137Y-81304774D01*
X131168405Y-81135256D01*
X131246426Y-80946898D01*
X131286200Y-80746939D01*
X131286200Y-80684801D01*
X134376002Y-77595000D01*
X138434217Y-77595000D01*
X138396347Y-77686426D01*
X138341200Y-77963665D01*
X138341200Y-78246335D01*
X138396347Y-78523574D01*
X138504520Y-78784727D01*
X138661563Y-79019759D01*
X138861441Y-79219637D01*
X139096473Y-79376680D01*
X139357626Y-79484853D01*
X139634865Y-79540000D01*
X139917535Y-79540000D01*
X139952639Y-79533017D01*
X141024670Y-80605049D01*
X141052383Y-80638817D01*
X141086151Y-80666530D01*
X141086153Y-80666532D01*
X141146513Y-80716068D01*
X141187141Y-80749411D01*
X141340887Y-80831589D01*
X141507710Y-80882195D01*
X141637723Y-80895000D01*
X141637731Y-80895000D01*
X141681200Y-80899281D01*
X141724669Y-80895000D01*
X148488850Y-80895000D01*
X148364302Y-80919774D01*
X148175944Y-80997795D01*
X148006426Y-81111063D01*
X147862263Y-81255226D01*
X147748995Y-81424744D01*
X147670974Y-81613102D01*
X147631200Y-81813061D01*
X147631200Y-82016939D01*
X147670974Y-82216898D01*
X147748995Y-82405256D01*
X147862263Y-82574774D01*
X148006426Y-82718937D01*
X148175944Y-82832205D01*
X148364302Y-82910226D01*
X148564261Y-82950000D01*
X148768139Y-82950000D01*
X148968098Y-82910226D01*
X149156456Y-82832205D01*
X149325974Y-82718937D01*
X149369911Y-82675000D01*
X150638128Y-82675000D01*
X150638128Y-82715000D01*
X150650388Y-82839482D01*
X150686698Y-82959180D01*
X150745663Y-83069494D01*
X150825015Y-83166185D01*
X150921706Y-83245537D01*
X151032020Y-83304502D01*
X151151718Y-83340812D01*
X151169682Y-83342581D01*
X151056592Y-83435392D01*
X150877268Y-83653899D01*
X150744018Y-83903192D01*
X150661964Y-84173691D01*
X150634257Y-84455000D01*
X150661964Y-84736309D01*
X150731336Y-84965000D01*
X150639911Y-84965000D01*
X150595974Y-84921063D01*
X150426456Y-84807795D01*
X150238098Y-84729774D01*
X150038139Y-84690000D01*
X149834261Y-84690000D01*
X149634302Y-84729774D01*
X149445944Y-84807795D01*
X149276426Y-84921063D01*
X149132263Y-85065226D01*
X149018995Y-85234744D01*
X148940974Y-85423102D01*
X148901200Y-85623061D01*
X148901200Y-85826939D01*
X148940974Y-86026898D01*
X149018995Y-86215256D01*
X149132263Y-86384774D01*
X149276426Y-86528937D01*
X149445944Y-86642205D01*
X149634302Y-86720226D01*
X149834261Y-86760000D01*
X150038139Y-86760000D01*
X150238098Y-86720226D01*
X150426456Y-86642205D01*
X150595974Y-86528937D01*
X150639911Y-86485000D01*
X150731336Y-86485000D01*
X150661964Y-86713691D01*
X150634257Y-86995000D01*
X150661964Y-87276309D01*
X150744018Y-87546808D01*
X150877268Y-87796101D01*
X151056592Y-88014608D01*
X151275099Y-88193932D01*
X151408058Y-88265000D01*
X151275099Y-88336068D01*
X151056592Y-88515392D01*
X150877268Y-88733899D01*
X150744018Y-88983192D01*
X150661964Y-89253691D01*
X150634257Y-89535000D01*
X150661964Y-89816309D01*
X150744018Y-90086808D01*
X150877268Y-90336101D01*
X151056592Y-90554608D01*
X151275099Y-90733932D01*
X151408058Y-90805000D01*
X151275099Y-90876068D01*
X151056592Y-91055392D01*
X150877268Y-91273899D01*
X150744018Y-91523192D01*
X150661964Y-91793691D01*
X150634257Y-92075000D01*
X150661964Y-92356309D01*
X150744018Y-92626808D01*
X150787038Y-92707293D01*
X150781924Y-92710026D01*
X150781922Y-92710027D01*
X150781923Y-92710027D01*
X150695196Y-92781201D01*
X150695192Y-92781205D01*
X150666199Y-92804999D01*
X150642405Y-92833992D01*
X149194673Y-94281726D01*
X149128382Y-94063192D01*
X148995132Y-93813899D01*
X148815808Y-93595392D01*
X148597301Y-93416068D01*
X148469459Y-93347735D01*
X148699039Y-93197601D01*
X148900700Y-92999895D01*
X149059915Y-92766646D01*
X149170567Y-92506818D01*
X149188104Y-92424039D01*
X149066115Y-92202000D01*
X147523200Y-92202000D01*
X147523200Y-92222000D01*
X147269200Y-92222000D01*
X147269200Y-92202000D01*
X145726285Y-92202000D01*
X145604296Y-92424039D01*
X145621833Y-92506818D01*
X145732485Y-92766646D01*
X145891700Y-92999895D01*
X146093361Y-93197601D01*
X146322941Y-93347735D01*
X146195099Y-93416068D01*
X145976592Y-93595392D01*
X145797268Y-93813899D01*
X145775299Y-93855000D01*
X144536002Y-93855000D01*
X143515004Y-92834003D01*
X143491201Y-92804999D01*
X143375476Y-92710026D01*
X143243447Y-92639454D01*
X143100186Y-92595997D01*
X142988533Y-92585000D01*
X142988522Y-92585000D01*
X142951200Y-92581324D01*
X142913878Y-92585000D01*
X141614272Y-92585000D01*
X141614272Y-91275000D01*
X141602012Y-91150518D01*
X141565702Y-91030820D01*
X141506737Y-90920506D01*
X141427385Y-90823815D01*
X141330694Y-90744463D01*
X141220380Y-90685498D01*
X141100682Y-90649188D01*
X140976200Y-90636928D01*
X138576200Y-90636928D01*
X138451718Y-90649188D01*
X138332020Y-90685498D01*
X138221706Y-90744463D01*
X138125015Y-90823815D01*
X138045663Y-90920506D01*
X137986698Y-91030820D01*
X137950388Y-91150518D01*
X137946499Y-91190000D01*
X135830721Y-91190000D01*
X135810837Y-91160241D01*
X135610959Y-90960363D01*
X135375927Y-90803320D01*
X135114774Y-90695147D01*
X134837535Y-90640000D01*
X134554865Y-90640000D01*
X134519761Y-90646983D01*
X134082736Y-90209958D01*
X134082732Y-90209953D01*
X133447734Y-89574956D01*
X133420017Y-89541183D01*
X133285259Y-89430589D01*
X133228804Y-89400413D01*
X137700392Y-89400413D01*
X137796156Y-89664814D01*
X138085771Y-89805704D01*
X138397308Y-89887384D01*
X138718795Y-89906718D01*
X139037875Y-89862961D01*
X139342288Y-89757795D01*
X139516244Y-89664814D01*
X139600183Y-89433061D01*
X141916200Y-89433061D01*
X141916200Y-89636939D01*
X141955974Y-89836898D01*
X142033995Y-90025256D01*
X142147263Y-90194774D01*
X142291426Y-90338937D01*
X142460944Y-90452205D01*
X142649302Y-90530226D01*
X142849261Y-90570000D01*
X143053139Y-90570000D01*
X143219239Y-90536961D01*
X143186200Y-90703061D01*
X143186200Y-90906939D01*
X143225974Y-91106898D01*
X143303995Y-91295256D01*
X143417263Y-91464774D01*
X143561426Y-91608937D01*
X143730944Y-91722205D01*
X143919302Y-91800226D01*
X144119261Y-91840000D01*
X144323139Y-91840000D01*
X144523098Y-91800226D01*
X144711456Y-91722205D01*
X144880974Y-91608937D01*
X144924911Y-91565000D01*
X145655128Y-91565000D01*
X145621833Y-91643182D01*
X145604296Y-91725961D01*
X145726285Y-91948000D01*
X147269200Y-91948000D01*
X147269200Y-91928000D01*
X147523200Y-91928000D01*
X147523200Y-91948000D01*
X149066115Y-91948000D01*
X149188104Y-91725961D01*
X149170567Y-91643182D01*
X149137272Y-91565000D01*
X149232489Y-91565000D01*
X149276426Y-91608937D01*
X149445944Y-91722205D01*
X149634302Y-91800226D01*
X149834261Y-91840000D01*
X150038139Y-91840000D01*
X150238098Y-91800226D01*
X150426456Y-91722205D01*
X150595974Y-91608937D01*
X150740137Y-91464774D01*
X150853405Y-91295256D01*
X150931426Y-91106898D01*
X150971200Y-90906939D01*
X150971200Y-90703061D01*
X150931426Y-90503102D01*
X150853405Y-90314744D01*
X150740137Y-90145226D01*
X150595974Y-90001063D01*
X150426456Y-89887795D01*
X150238098Y-89809774D01*
X150038139Y-89770000D01*
X149834261Y-89770000D01*
X149668161Y-89803039D01*
X149701200Y-89636939D01*
X149701200Y-89433061D01*
X149661426Y-89233102D01*
X149583405Y-89044744D01*
X149470137Y-88875226D01*
X149325974Y-88731063D01*
X149156456Y-88617795D01*
X148968098Y-88539774D01*
X148768139Y-88500000D01*
X148564261Y-88500000D01*
X148364302Y-88539774D01*
X148175944Y-88617795D01*
X148006426Y-88731063D01*
X147962489Y-88775000D01*
X147615264Y-88775000D01*
X147615702Y-88774180D01*
X147652012Y-88654482D01*
X147664272Y-88530000D01*
X147661200Y-87915750D01*
X147502450Y-87757000D01*
X146253200Y-87757000D01*
X146253200Y-87777000D01*
X145999200Y-87777000D01*
X145999200Y-87757000D01*
X144749950Y-87757000D01*
X144591200Y-87915750D01*
X144588128Y-88530000D01*
X144600388Y-88654482D01*
X144636698Y-88774180D01*
X144637136Y-88775000D01*
X143654911Y-88775000D01*
X143610974Y-88731063D01*
X143441456Y-88617795D01*
X143253098Y-88539774D01*
X143053139Y-88500000D01*
X142849261Y-88500000D01*
X142649302Y-88539774D01*
X142460944Y-88617795D01*
X142291426Y-88731063D01*
X142147263Y-88875226D01*
X142033995Y-89044744D01*
X141955974Y-89233102D01*
X141916200Y-89433061D01*
X139600183Y-89433061D01*
X139612008Y-89400413D01*
X138656200Y-88444605D01*
X137700392Y-89400413D01*
X133228804Y-89400413D01*
X133131513Y-89348411D01*
X133028869Y-89317274D01*
X132156200Y-88444605D01*
X132142058Y-88458748D01*
X131962453Y-88279143D01*
X131976595Y-88265000D01*
X132335805Y-88265000D01*
X133291613Y-89220808D01*
X133556014Y-89125044D01*
X133696904Y-88835429D01*
X133778584Y-88523892D01*
X133790389Y-88327595D01*
X137014482Y-88327595D01*
X137058239Y-88646675D01*
X137163405Y-88951088D01*
X137256386Y-89125044D01*
X137520787Y-89220808D01*
X138476595Y-88265000D01*
X138835805Y-88265000D01*
X139791613Y-89220808D01*
X140056014Y-89125044D01*
X140196904Y-88835429D01*
X140278584Y-88523892D01*
X140297918Y-88202405D01*
X140254161Y-87883325D01*
X140148995Y-87578912D01*
X140056014Y-87404956D01*
X139791613Y-87309192D01*
X138835805Y-88265000D01*
X138476595Y-88265000D01*
X137520787Y-87309192D01*
X137256386Y-87404956D01*
X137115496Y-87694571D01*
X137033816Y-88006108D01*
X137014482Y-88327595D01*
X133790389Y-88327595D01*
X133797918Y-88202405D01*
X133754161Y-87883325D01*
X133648995Y-87578912D01*
X133556014Y-87404956D01*
X133291613Y-87309192D01*
X132335805Y-88265000D01*
X131976595Y-88265000D01*
X131020787Y-87309192D01*
X130756386Y-87404956D01*
X130615496Y-87694571D01*
X130533816Y-88006108D01*
X130514482Y-88327595D01*
X130549305Y-88581526D01*
X129637734Y-87669956D01*
X129610017Y-87636183D01*
X129475259Y-87525589D01*
X129321513Y-87443411D01*
X129154690Y-87392805D01*
X129024677Y-87380000D01*
X129024669Y-87380000D01*
X128981200Y-87375719D01*
X128937731Y-87380000D01*
X128270856Y-87380000D01*
X128229675Y-87318368D01*
X128040894Y-87129587D01*
X131200392Y-87129587D01*
X132156200Y-88085395D01*
X133112008Y-87129587D01*
X137700392Y-87129587D01*
X138656200Y-88085395D01*
X139612008Y-87129587D01*
X139516244Y-86865186D01*
X139238355Y-86730000D01*
X144588128Y-86730000D01*
X144591200Y-87344250D01*
X144749950Y-87503000D01*
X145999200Y-87503000D01*
X145999200Y-87483000D01*
X146253200Y-87483000D01*
X146253200Y-87503000D01*
X147502450Y-87503000D01*
X147661200Y-87344250D01*
X147664272Y-86730000D01*
X147652012Y-86605518D01*
X147615702Y-86485820D01*
X147556737Y-86375506D01*
X147477385Y-86278815D01*
X147380694Y-86199463D01*
X147270380Y-86140498D01*
X147252073Y-86134944D01*
X147318512Y-86068505D01*
X147486499Y-85817095D01*
X147602211Y-85537743D01*
X147661200Y-85241184D01*
X147661200Y-84938816D01*
X147602211Y-84642257D01*
X147486499Y-84362905D01*
X147318512Y-84111495D01*
X147104705Y-83897688D01*
X146853295Y-83729701D01*
X146573943Y-83613989D01*
X146277384Y-83555000D01*
X145975016Y-83555000D01*
X145678457Y-83613989D01*
X145399105Y-83729701D01*
X145147695Y-83897688D01*
X144933888Y-84111495D01*
X144765901Y-84362905D01*
X144650189Y-84642257D01*
X144591200Y-84938816D01*
X144591200Y-85241184D01*
X144650189Y-85537743D01*
X144765901Y-85817095D01*
X144933888Y-86068505D01*
X145000327Y-86134944D01*
X144982020Y-86140498D01*
X144871706Y-86199463D01*
X144775015Y-86278815D01*
X144695663Y-86375506D01*
X144636698Y-86485820D01*
X144600388Y-86605518D01*
X144588128Y-86730000D01*
X139238355Y-86730000D01*
X139226629Y-86724296D01*
X138915092Y-86642616D01*
X138593605Y-86623282D01*
X138274525Y-86667039D01*
X137970112Y-86772205D01*
X137796156Y-86865186D01*
X137700392Y-87129587D01*
X133112008Y-87129587D01*
X133016244Y-86865186D01*
X132726629Y-86724296D01*
X132415092Y-86642616D01*
X132093605Y-86623282D01*
X131774525Y-86667039D01*
X131470112Y-86772205D01*
X131296156Y-86865186D01*
X131200392Y-87129587D01*
X128040894Y-87129587D01*
X128022832Y-87111525D01*
X127848440Y-86995000D01*
X128022832Y-86878475D01*
X128229675Y-86671632D01*
X128352325Y-86488073D01*
X128383522Y-86485000D01*
X128383533Y-86485000D01*
X128495186Y-86474003D01*
X128638447Y-86430546D01*
X128770476Y-86359974D01*
X128886201Y-86265001D01*
X128910004Y-86235997D01*
X130621002Y-84525000D01*
X130701291Y-84525000D01*
X130707282Y-84539463D01*
X130886213Y-84807252D01*
X131113948Y-85034987D01*
X131381737Y-85213918D01*
X131679288Y-85337168D01*
X131995167Y-85400000D01*
X132317233Y-85400000D01*
X132633112Y-85337168D01*
X132930663Y-85213918D01*
X133198452Y-85034987D01*
X133426187Y-84807252D01*
X133605118Y-84539463D01*
X133611109Y-84525000D01*
X137201291Y-84525000D01*
X137207282Y-84539463D01*
X137386213Y-84807252D01*
X137613948Y-85034987D01*
X137881737Y-85213918D01*
X138179288Y-85337168D01*
X138495167Y-85400000D01*
X138817233Y-85400000D01*
X139133112Y-85337168D01*
X139430663Y-85213918D01*
X139698452Y-85034987D01*
X139926187Y-84807252D01*
X140105118Y-84539463D01*
X140228368Y-84241912D01*
X140291200Y-83926033D01*
X140291200Y-83603967D01*
X140228368Y-83288088D01*
X140105118Y-82990537D01*
X139926187Y-82722748D01*
X139698452Y-82495013D01*
X139430663Y-82316082D01*
X139133112Y-82192832D01*
X138817233Y-82130000D01*
X138495167Y-82130000D01*
X138179288Y-82192832D01*
X137881737Y-82316082D01*
X137613948Y-82495013D01*
X137386213Y-82722748D01*
X137207282Y-82990537D01*
X137201291Y-83005000D01*
X133611109Y-83005000D01*
X133605118Y-82990537D01*
X133426187Y-82722748D01*
X133198452Y-82495013D01*
X132930663Y-82316082D01*
X132633112Y-82192832D01*
X132317233Y-82130000D01*
X131995167Y-82130000D01*
X131679288Y-82192832D01*
X131381737Y-82316082D01*
X131113948Y-82495013D01*
X130886213Y-82722748D01*
X130707282Y-82990537D01*
X130701291Y-83005000D01*
X130343533Y-83005000D01*
X130306200Y-83001323D01*
X130268867Y-83005000D01*
X130157214Y-83015997D01*
X130013953Y-83059454D01*
X129881924Y-83130026D01*
X129766199Y-83224999D01*
X129742401Y-83253997D01*
X128223853Y-84772546D01*
X128022832Y-84571525D01*
X127840666Y-84449805D01*
X127957555Y-84380178D01*
X128173788Y-84185269D01*
X128347841Y-83951920D01*
X128473025Y-83689099D01*
X128517676Y-83541890D01*
X128396355Y-83312000D01*
X127203200Y-83312000D01*
X127203200Y-83332000D01*
X126949200Y-83332000D01*
X126949200Y-83312000D01*
X125756045Y-83312000D01*
X125634724Y-83541890D01*
X125679375Y-83689099D01*
X125804559Y-83951920D01*
X125978612Y-84185269D01*
X126194845Y-84380178D01*
X126311734Y-84449805D01*
X126129568Y-84571525D01*
X125922725Y-84778368D01*
X125760210Y-85021589D01*
X125648268Y-85291842D01*
X125591200Y-85578740D01*
X125591200Y-85871260D01*
X125648268Y-86158158D01*
X125760210Y-86428411D01*
X125922725Y-86671632D01*
X126129568Y-86878475D01*
X126303960Y-86995000D01*
X126129568Y-87111525D01*
X125922725Y-87318368D01*
X125760210Y-87561589D01*
X125648268Y-87831842D01*
X125591200Y-88118740D01*
X125591200Y-88411260D01*
X125605661Y-88483960D01*
X123941151Y-90148471D01*
X123907384Y-90176183D01*
X123879671Y-90209951D01*
X123879668Y-90209954D01*
X123796790Y-90310941D01*
X123714612Y-90464687D01*
X123664005Y-90631510D01*
X123646919Y-90805000D01*
X123651201Y-90848479D01*
X123651200Y-128226531D01*
X123646919Y-128270000D01*
X123651200Y-128313469D01*
X123651200Y-128313476D01*
X123664005Y-128443489D01*
X123714611Y-128610312D01*
X123796789Y-128764058D01*
X123907383Y-128898817D01*
X123941156Y-128926534D01*
X125648183Y-130633561D01*
X125641200Y-130668665D01*
X125641200Y-130951335D01*
X125696347Y-131228574D01*
X125804520Y-131489727D01*
X125961563Y-131724759D01*
X126161441Y-131924637D01*
X126396473Y-132081680D01*
X126657626Y-132189853D01*
X126934865Y-132245000D01*
X127217535Y-132245000D01*
X127494774Y-132189853D01*
X127755927Y-132081680D01*
X127990959Y-131924637D01*
X128190837Y-131724759D01*
X128210721Y-131695000D01*
X128803850Y-131695000D01*
X128679302Y-131719774D01*
X128490944Y-131797795D01*
X128321426Y-131911063D01*
X128177263Y-132055226D01*
X128063995Y-132224744D01*
X127985974Y-132413102D01*
X127946200Y-132613061D01*
X127946200Y-132816939D01*
X127985974Y-133016898D01*
X128063995Y-133205256D01*
X128077187Y-133225000D01*
X126509911Y-133225000D01*
X126465974Y-133181063D01*
X126296456Y-133067795D01*
X126108098Y-132989774D01*
X125908139Y-132950000D01*
X125704261Y-132950000D01*
X125504302Y-132989774D01*
X125315944Y-133067795D01*
X125146426Y-133181063D01*
X125002263Y-133325226D01*
X124888995Y-133494744D01*
X124810974Y-133683102D01*
X124771200Y-133883061D01*
X124771200Y-134086939D01*
X124810974Y-134286898D01*
X124888995Y-134475256D01*
X125002263Y-134644774D01*
X125146426Y-134788937D01*
X125315944Y-134902205D01*
X125504302Y-134980226D01*
X125704261Y-135020000D01*
X125908139Y-135020000D01*
X125935261Y-135014605D01*
X125804520Y-135210273D01*
X125696347Y-135471426D01*
X125641200Y-135748665D01*
X125641200Y-136031335D01*
X125696347Y-136308574D01*
X125804520Y-136569727D01*
X125961563Y-136804759D01*
X126161441Y-137004637D01*
X126396473Y-137161680D01*
X126657626Y-137269853D01*
X126934865Y-137325000D01*
X127217535Y-137325000D01*
X127494774Y-137269853D01*
X127755927Y-137161680D01*
X127990959Y-137004637D01*
X128190837Y-136804759D01*
X128210721Y-136775000D01*
X132291679Y-136775000D01*
X132311563Y-136804759D01*
X132511441Y-137004637D01*
X132746473Y-137161680D01*
X133007626Y-137269853D01*
X133284865Y-137325000D01*
X133567535Y-137325000D01*
X133844774Y-137269853D01*
X134105927Y-137161680D01*
X134340959Y-137004637D01*
X134462894Y-136882702D01*
X135113103Y-136882702D01*
X135184686Y-137126671D01*
X135440196Y-137247571D01*
X135714384Y-137316300D01*
X135996712Y-137330217D01*
X136276330Y-137288787D01*
X136542492Y-137193603D01*
X136667714Y-137126671D01*
X136678473Y-137090000D01*
X138338128Y-137090000D01*
X138350388Y-137214482D01*
X138386698Y-137334180D01*
X138445663Y-137444494D01*
X138525015Y-137541185D01*
X138621706Y-137620537D01*
X138732020Y-137679502D01*
X138851718Y-137715812D01*
X138976200Y-137728072D01*
X139490450Y-137725000D01*
X139649200Y-137566250D01*
X139649200Y-136017000D01*
X138499950Y-136017000D01*
X138341200Y-136175750D01*
X138338128Y-137090000D01*
X136678473Y-137090000D01*
X136739297Y-136882702D01*
X135926200Y-136069605D01*
X135113103Y-136882702D01*
X134462894Y-136882702D01*
X134540837Y-136804759D01*
X134674892Y-136604131D01*
X134689529Y-136631514D01*
X134933498Y-136703097D01*
X135746595Y-135890000D01*
X136105805Y-135890000D01*
X136918902Y-136703097D01*
X137162871Y-136631514D01*
X137283771Y-136376004D01*
X137352500Y-136101816D01*
X137366417Y-135819488D01*
X137324987Y-135539870D01*
X137229803Y-135273708D01*
X137162871Y-135148486D01*
X136918902Y-135076903D01*
X136105805Y-135890000D01*
X135746595Y-135890000D01*
X134933498Y-135076903D01*
X134689529Y-135148486D01*
X134675876Y-135177341D01*
X134540837Y-134975241D01*
X134340959Y-134775363D01*
X134295517Y-134745000D01*
X135157789Y-134745000D01*
X135113103Y-134897298D01*
X135926200Y-135710395D01*
X136739297Y-134897298D01*
X136694611Y-134745000D01*
X138338313Y-134745000D01*
X138341200Y-135604250D01*
X138499950Y-135763000D01*
X139649200Y-135763000D01*
X139649200Y-135743000D01*
X139903200Y-135743000D01*
X139903200Y-135763000D01*
X139923200Y-135763000D01*
X139923200Y-136017000D01*
X139903200Y-136017000D01*
X139903200Y-137566250D01*
X140061950Y-137725000D01*
X140576200Y-137728072D01*
X140700682Y-137715812D01*
X140820380Y-137679502D01*
X140930694Y-137620537D01*
X141027385Y-137541185D01*
X141106737Y-137444494D01*
X141165702Y-137334180D01*
X141202012Y-137214482D01*
X141203781Y-137196517D01*
X141296593Y-137309608D01*
X141515100Y-137488932D01*
X141764393Y-137622182D01*
X142034892Y-137704236D01*
X142316200Y-137731943D01*
X142597509Y-137704236D01*
X142868008Y-137622182D01*
X143117301Y-137488932D01*
X143335808Y-137309608D01*
X143515132Y-137091101D01*
X143586200Y-136958142D01*
X143657268Y-137091101D01*
X143836593Y-137309608D01*
X144055100Y-137488932D01*
X144304393Y-137622182D01*
X144574892Y-137704236D01*
X144856200Y-137731943D01*
X145137509Y-137704236D01*
X145408008Y-137622182D01*
X145657301Y-137488932D01*
X145875808Y-137309608D01*
X146055132Y-137091101D01*
X146126200Y-136958142D01*
X146197268Y-137091101D01*
X146376593Y-137309608D01*
X146595100Y-137488932D01*
X146844393Y-137622182D01*
X147114892Y-137704236D01*
X147396200Y-137731943D01*
X147677509Y-137704236D01*
X147948008Y-137622182D01*
X148197301Y-137488932D01*
X148415808Y-137309608D01*
X148595132Y-137091101D01*
X148666200Y-136958142D01*
X148737268Y-137091101D01*
X148916593Y-137309608D01*
X149135100Y-137488932D01*
X149384393Y-137622182D01*
X149654892Y-137704236D01*
X149936200Y-137731943D01*
X150217509Y-137704236D01*
X150488008Y-137622182D01*
X150737301Y-137488932D01*
X150955808Y-137309608D01*
X151135132Y-137091101D01*
X151206200Y-136958142D01*
X151277268Y-137091101D01*
X151456593Y-137309608D01*
X151675100Y-137488932D01*
X151924393Y-137622182D01*
X152194892Y-137704236D01*
X152476200Y-137731943D01*
X152757509Y-137704236D01*
X153028008Y-137622182D01*
X153277301Y-137488932D01*
X153495808Y-137309608D01*
X153675132Y-137091101D01*
X153746200Y-136958142D01*
X153817268Y-137091101D01*
X153996593Y-137309608D01*
X154215100Y-137488932D01*
X154464393Y-137622182D01*
X154734892Y-137704236D01*
X155016200Y-137731943D01*
X155297509Y-137704236D01*
X155568008Y-137622182D01*
X155817301Y-137488932D01*
X156035808Y-137309608D01*
X156215132Y-137091101D01*
X156286200Y-136958142D01*
X156357268Y-137091101D01*
X156536593Y-137309608D01*
X156755100Y-137488932D01*
X157004393Y-137622182D01*
X157274892Y-137704236D01*
X157556200Y-137731943D01*
X157837509Y-137704236D01*
X158108008Y-137622182D01*
X158357301Y-137488932D01*
X158575808Y-137309608D01*
X158755132Y-137091101D01*
X158826200Y-136958142D01*
X158897268Y-137091101D01*
X159076593Y-137309608D01*
X159295100Y-137488932D01*
X159544393Y-137622182D01*
X159814892Y-137704236D01*
X160096200Y-137731943D01*
X160377509Y-137704236D01*
X160648008Y-137622182D01*
X160897301Y-137488932D01*
X161115808Y-137309608D01*
X161295132Y-137091101D01*
X161366200Y-136958142D01*
X161437268Y-137091101D01*
X161616593Y-137309608D01*
X161835100Y-137488932D01*
X162084393Y-137622182D01*
X162354892Y-137704236D01*
X162636200Y-137731943D01*
X162917509Y-137704236D01*
X163188008Y-137622182D01*
X163437301Y-137488932D01*
X163655808Y-137309608D01*
X163835132Y-137091101D01*
X163906200Y-136958142D01*
X163977268Y-137091101D01*
X164156593Y-137309608D01*
X164375100Y-137488932D01*
X164624393Y-137622182D01*
X164894892Y-137704236D01*
X165176200Y-137731943D01*
X165457509Y-137704236D01*
X165728008Y-137622182D01*
X165977301Y-137488932D01*
X166195808Y-137309608D01*
X166375132Y-137091101D01*
X166446200Y-136958142D01*
X166517268Y-137091101D01*
X166696593Y-137309608D01*
X166915100Y-137488932D01*
X167164393Y-137622182D01*
X167434892Y-137704236D01*
X167716200Y-137731943D01*
X167997509Y-137704236D01*
X168268008Y-137622182D01*
X168517301Y-137488932D01*
X168735808Y-137309608D01*
X168915132Y-137091101D01*
X168986200Y-136958142D01*
X169057268Y-137091101D01*
X169236593Y-137309608D01*
X169455100Y-137488932D01*
X169704393Y-137622182D01*
X169974892Y-137704236D01*
X170256200Y-137731943D01*
X170537509Y-137704236D01*
X170808008Y-137622182D01*
X171057301Y-137488932D01*
X171275808Y-137309608D01*
X171455132Y-137091101D01*
X171526200Y-136958142D01*
X171597268Y-137091101D01*
X171776593Y-137309608D01*
X171995100Y-137488932D01*
X172244393Y-137622182D01*
X172514892Y-137704236D01*
X172796200Y-137731943D01*
X173077509Y-137704236D01*
X173348008Y-137622182D01*
X173597301Y-137488932D01*
X173815808Y-137309608D01*
X173995132Y-137091101D01*
X174066200Y-136958142D01*
X174137268Y-137091101D01*
X174316593Y-137309608D01*
X174535100Y-137488932D01*
X174784393Y-137622182D01*
X175054892Y-137704236D01*
X175336200Y-137731943D01*
X175617509Y-137704236D01*
X175888008Y-137622182D01*
X176137301Y-137488932D01*
X176355808Y-137309608D01*
X176535132Y-137091101D01*
X176606200Y-136958142D01*
X176677268Y-137091101D01*
X176856593Y-137309608D01*
X177075100Y-137488932D01*
X177324393Y-137622182D01*
X177594892Y-137704236D01*
X177876200Y-137731943D01*
X178157509Y-137704236D01*
X178428008Y-137622182D01*
X178677301Y-137488932D01*
X178895808Y-137309608D01*
X179075132Y-137091101D01*
X179146200Y-136958142D01*
X179217268Y-137091101D01*
X179396593Y-137309608D01*
X179615100Y-137488932D01*
X179864393Y-137622182D01*
X180134892Y-137704236D01*
X180416200Y-137731943D01*
X180697509Y-137704236D01*
X180968008Y-137622182D01*
X181217301Y-137488932D01*
X181435808Y-137309608D01*
X181615132Y-137091101D01*
X181686200Y-136958142D01*
X181757268Y-137091101D01*
X181936593Y-137309608D01*
X182155100Y-137488932D01*
X182404393Y-137622182D01*
X182674892Y-137704236D01*
X182956200Y-137731943D01*
X183237509Y-137704236D01*
X183508008Y-137622182D01*
X183757301Y-137488932D01*
X183975808Y-137309608D01*
X184155132Y-137091101D01*
X184226200Y-136958142D01*
X184297268Y-137091101D01*
X184476593Y-137309608D01*
X184695100Y-137488932D01*
X184944393Y-137622182D01*
X185214892Y-137704236D01*
X185496200Y-137731943D01*
X185777509Y-137704236D01*
X186048008Y-137622182D01*
X186297301Y-137488932D01*
X186515808Y-137309608D01*
X186695132Y-137091101D01*
X186766200Y-136958142D01*
X186837268Y-137091101D01*
X187016593Y-137309608D01*
X187235100Y-137488932D01*
X187484393Y-137622182D01*
X187754892Y-137704236D01*
X188036200Y-137731943D01*
X188317509Y-137704236D01*
X188588008Y-137622182D01*
X188837301Y-137488932D01*
X189055808Y-137309608D01*
X189235132Y-137091101D01*
X189368382Y-136841808D01*
X189450436Y-136571309D01*
X189471200Y-136360491D01*
X189471200Y-135419508D01*
X189450436Y-135208691D01*
X189368382Y-134938192D01*
X189235132Y-134688899D01*
X189055807Y-134470392D01*
X188837300Y-134291068D01*
X188588007Y-134157818D01*
X188317508Y-134075764D01*
X188036200Y-134048057D01*
X187754891Y-134075764D01*
X187484392Y-134157818D01*
X187235099Y-134291068D01*
X187016592Y-134470393D01*
X186837268Y-134688900D01*
X186766200Y-134821858D01*
X186695132Y-134688899D01*
X186515807Y-134470392D01*
X186297300Y-134291068D01*
X186048007Y-134157818D01*
X185777508Y-134075764D01*
X185496200Y-134048057D01*
X185214891Y-134075764D01*
X184944392Y-134157818D01*
X184695099Y-134291068D01*
X184476592Y-134470393D01*
X184297268Y-134688900D01*
X184226200Y-134821858D01*
X184155132Y-134688899D01*
X183975807Y-134470392D01*
X183757300Y-134291068D01*
X183508007Y-134157818D01*
X183237508Y-134075764D01*
X182956200Y-134048057D01*
X182674891Y-134075764D01*
X182404392Y-134157818D01*
X182155099Y-134291068D01*
X181936592Y-134470393D01*
X181757268Y-134688900D01*
X181686200Y-134821858D01*
X181615132Y-134688899D01*
X181435807Y-134470392D01*
X181217300Y-134291068D01*
X180968007Y-134157818D01*
X180697508Y-134075764D01*
X180416200Y-134048057D01*
X180134891Y-134075764D01*
X179864392Y-134157818D01*
X179615099Y-134291068D01*
X179396592Y-134470393D01*
X179217268Y-134688900D01*
X179146200Y-134821858D01*
X179075132Y-134688899D01*
X178895807Y-134470392D01*
X178677300Y-134291068D01*
X178428007Y-134157818D01*
X178157508Y-134075764D01*
X177876200Y-134048057D01*
X177594891Y-134075764D01*
X177324392Y-134157818D01*
X177075099Y-134291068D01*
X176856592Y-134470393D01*
X176677268Y-134688900D01*
X176606200Y-134821858D01*
X176535132Y-134688899D01*
X176355807Y-134470392D01*
X176137300Y-134291068D01*
X175888007Y-134157818D01*
X175617508Y-134075764D01*
X175336200Y-134048057D01*
X175054891Y-134075764D01*
X174784392Y-134157818D01*
X174535099Y-134291068D01*
X174316592Y-134470393D01*
X174137268Y-134688900D01*
X174066200Y-134821858D01*
X173995132Y-134688899D01*
X173815807Y-134470392D01*
X173597300Y-134291068D01*
X173348007Y-134157818D01*
X173077508Y-134075764D01*
X172796200Y-134048057D01*
X172514891Y-134075764D01*
X172244392Y-134157818D01*
X171995099Y-134291068D01*
X171776592Y-134470393D01*
X171597268Y-134688900D01*
X171526200Y-134821858D01*
X171455132Y-134688899D01*
X171275807Y-134470392D01*
X171057300Y-134291068D01*
X170808007Y-134157818D01*
X170537508Y-134075764D01*
X170256200Y-134048057D01*
X169974891Y-134075764D01*
X169704392Y-134157818D01*
X169455099Y-134291068D01*
X169236592Y-134470393D01*
X169057268Y-134688900D01*
X168986200Y-134821858D01*
X168915132Y-134688899D01*
X168735807Y-134470392D01*
X168517300Y-134291068D01*
X168268007Y-134157818D01*
X167997508Y-134075764D01*
X167716200Y-134048057D01*
X167434891Y-134075764D01*
X167164392Y-134157818D01*
X166915099Y-134291068D01*
X166696592Y-134470393D01*
X166517268Y-134688900D01*
X166446200Y-134821858D01*
X166375132Y-134688899D01*
X166195807Y-134470392D01*
X165977300Y-134291068D01*
X165728007Y-134157818D01*
X165457508Y-134075764D01*
X165176200Y-134048057D01*
X164894891Y-134075764D01*
X164624392Y-134157818D01*
X164375099Y-134291068D01*
X164156592Y-134470393D01*
X163977268Y-134688900D01*
X163906200Y-134821858D01*
X163835132Y-134688899D01*
X163655807Y-134470392D01*
X163437300Y-134291068D01*
X163188007Y-134157818D01*
X162917508Y-134075764D01*
X162636200Y-134048057D01*
X162354891Y-134075764D01*
X162084392Y-134157818D01*
X161835099Y-134291068D01*
X161616592Y-134470393D01*
X161437268Y-134688900D01*
X161366200Y-134821858D01*
X161295132Y-134688899D01*
X161115807Y-134470392D01*
X160897300Y-134291068D01*
X160648007Y-134157818D01*
X160377508Y-134075764D01*
X160096200Y-134048057D01*
X159814891Y-134075764D01*
X159544392Y-134157818D01*
X159295099Y-134291068D01*
X159076592Y-134470393D01*
X158897268Y-134688900D01*
X158826200Y-134821858D01*
X158755132Y-134688899D01*
X158575807Y-134470392D01*
X158441200Y-134359923D01*
X158441200Y-134028465D01*
X158445481Y-133984999D01*
X158441200Y-133941533D01*
X158441200Y-133941523D01*
X158428395Y-133811510D01*
X158377789Y-133644687D01*
X158295611Y-133490941D01*
X158185017Y-133356183D01*
X158151249Y-133328470D01*
X156942734Y-132119956D01*
X156915017Y-132086183D01*
X156780259Y-131975589D01*
X156626513Y-131893411D01*
X156459690Y-131842805D01*
X156329677Y-131830000D01*
X156329669Y-131830000D01*
X156286200Y-131825719D01*
X156242731Y-131830000D01*
X154707004Y-131830000D01*
X154741426Y-131746898D01*
X154781200Y-131546939D01*
X154781200Y-131343061D01*
X154741426Y-131143102D01*
X154663405Y-130954744D01*
X154550137Y-130785226D01*
X154405974Y-130641063D01*
X154236456Y-130527795D01*
X154048098Y-130449774D01*
X153848139Y-130410000D01*
X153644261Y-130410000D01*
X153444302Y-130449774D01*
X153255944Y-130527795D01*
X153086426Y-130641063D01*
X153042489Y-130685000D01*
X143901002Y-130685000D01*
X142503935Y-129287934D01*
X142618098Y-129265226D01*
X142806456Y-129187205D01*
X142975974Y-129073937D01*
X143120137Y-128929774D01*
X143233405Y-128760256D01*
X143311426Y-128571898D01*
X143351200Y-128371939D01*
X143351200Y-128168061D01*
X143311426Y-127968102D01*
X143233405Y-127779744D01*
X143220213Y-127760000D01*
X143906399Y-127760000D01*
X146197405Y-130051008D01*
X146221199Y-130080001D01*
X146250192Y-130103795D01*
X146250196Y-130103799D01*
X146291465Y-130137667D01*
X146336924Y-130174974D01*
X146468953Y-130245546D01*
X146612214Y-130289003D01*
X146723867Y-130300000D01*
X146723876Y-130300000D01*
X146761199Y-130303676D01*
X146798522Y-130300000D01*
X188602489Y-130300000D01*
X188646426Y-130343937D01*
X188815944Y-130457205D01*
X189004302Y-130535226D01*
X189204261Y-130575000D01*
X189408139Y-130575000D01*
X189608098Y-130535226D01*
X189796456Y-130457205D01*
X189965974Y-130343937D01*
X190110137Y-130199774D01*
X190223405Y-130030256D01*
X190301426Y-129841898D01*
X190341200Y-129641939D01*
X190341200Y-129438061D01*
X190301426Y-129238102D01*
X190223405Y-129049744D01*
X190110137Y-128880226D01*
X189965974Y-128736063D01*
X189796456Y-128622795D01*
X189608098Y-128544774D01*
X189408139Y-128505000D01*
X189204261Y-128505000D01*
X189004302Y-128544774D01*
X188815944Y-128622795D01*
X188646426Y-128736063D01*
X188602489Y-128780000D01*
X178780213Y-128780000D01*
X178793405Y-128760256D01*
X178871426Y-128571898D01*
X178911200Y-128371939D01*
X178911200Y-128168061D01*
X178871426Y-127968102D01*
X178793405Y-127779744D01*
X178680137Y-127610226D01*
X178535974Y-127466063D01*
X178366456Y-127352795D01*
X178178098Y-127274774D01*
X177978139Y-127235000D01*
X177774261Y-127235000D01*
X177574302Y-127274774D01*
X177385944Y-127352795D01*
X177216426Y-127466063D01*
X177172489Y-127510000D01*
X147711003Y-127510000D01*
X145420004Y-125219003D01*
X145396201Y-125189999D01*
X145280476Y-125095026D01*
X145148447Y-125024454D01*
X145005186Y-124980997D01*
X144893533Y-124970000D01*
X144893522Y-124970000D01*
X144856200Y-124966324D01*
X144818878Y-124970000D01*
X134764911Y-124970000D01*
X134720974Y-124926063D01*
X134551456Y-124812795D01*
X134363098Y-124734774D01*
X134163139Y-124695000D01*
X133959261Y-124695000D01*
X133759302Y-124734774D01*
X133570944Y-124812795D01*
X133401426Y-124926063D01*
X133257263Y-125070226D01*
X133143995Y-125239744D01*
X133065974Y-125428102D01*
X133026200Y-125628061D01*
X133026200Y-125831939D01*
X133059239Y-125998039D01*
X132893139Y-125965000D01*
X132689261Y-125965000D01*
X132489302Y-126004774D01*
X132300944Y-126082795D01*
X132131426Y-126196063D01*
X131987263Y-126340226D01*
X131873995Y-126509744D01*
X131795974Y-126698102D01*
X131756200Y-126898061D01*
X131756200Y-127101939D01*
X131789239Y-127268039D01*
X131623139Y-127235000D01*
X131419261Y-127235000D01*
X131219302Y-127274774D01*
X131030944Y-127352795D01*
X130861426Y-127466063D01*
X130717263Y-127610226D01*
X130603995Y-127779744D01*
X130525974Y-127968102D01*
X130486200Y-128168061D01*
X130486200Y-128371939D01*
X130525974Y-128571898D01*
X130603995Y-128760256D01*
X130717263Y-128929774D01*
X130861426Y-129073937D01*
X131030944Y-129187205D01*
X131219302Y-129265226D01*
X131419261Y-129305000D01*
X131623139Y-129305000D01*
X131823098Y-129265226D01*
X132011456Y-129187205D01*
X132180974Y-129073937D01*
X132224911Y-129030000D01*
X136967187Y-129030000D01*
X136953995Y-129049744D01*
X136875974Y-129238102D01*
X136836200Y-129438061D01*
X136836200Y-129641939D01*
X136841595Y-129669061D01*
X136645927Y-129538320D01*
X136384774Y-129430147D01*
X136107535Y-129375000D01*
X135824865Y-129375000D01*
X135547626Y-129430147D01*
X135286473Y-129538320D01*
X135051441Y-129695363D01*
X134851563Y-129895241D01*
X134831679Y-129925000D01*
X132655721Y-129925000D01*
X132635837Y-129895241D01*
X132435959Y-129695363D01*
X132200927Y-129538320D01*
X131939774Y-129430147D01*
X131662535Y-129375000D01*
X131379865Y-129375000D01*
X131102626Y-129430147D01*
X130841473Y-129538320D01*
X130606441Y-129695363D01*
X130406563Y-129895241D01*
X130386679Y-129925000D01*
X128210721Y-129925000D01*
X128190837Y-129895241D01*
X127990959Y-129695363D01*
X127755927Y-129538320D01*
X127494774Y-129430147D01*
X127217535Y-129375000D01*
X126934865Y-129375000D01*
X126899761Y-129381983D01*
X125421200Y-127903422D01*
X125421200Y-120508665D01*
X125641200Y-120508665D01*
X125641200Y-120791335D01*
X125696347Y-121068574D01*
X125804520Y-121329727D01*
X125961563Y-121564759D01*
X126161441Y-121764637D01*
X126396473Y-121921680D01*
X126657626Y-122029853D01*
X126934865Y-122085000D01*
X127217535Y-122085000D01*
X127494774Y-122029853D01*
X127755927Y-121921680D01*
X127990959Y-121764637D01*
X128190837Y-121564759D01*
X128347880Y-121329727D01*
X128456053Y-121068574D01*
X128511200Y-120791335D01*
X128511200Y-120508665D01*
X128456053Y-120231426D01*
X128347880Y-119970273D01*
X128190837Y-119735241D01*
X127990959Y-119535363D01*
X127755927Y-119378320D01*
X127494774Y-119270147D01*
X127217535Y-119215000D01*
X126934865Y-119215000D01*
X126657626Y-119270147D01*
X126396473Y-119378320D01*
X126161441Y-119535363D01*
X125961563Y-119735241D01*
X125804520Y-119970273D01*
X125696347Y-120231426D01*
X125641200Y-120508665D01*
X125421200Y-120508665D01*
X125421200Y-115639413D01*
X125571700Y-115859895D01*
X125773361Y-116057601D01*
X126009717Y-116212166D01*
X126271686Y-116317650D01*
X126549200Y-116370000D01*
X126949200Y-116370000D01*
X126949200Y-115062000D01*
X127203200Y-115062000D01*
X127203200Y-116370000D01*
X127603200Y-116370000D01*
X127880714Y-116317650D01*
X128142683Y-116212166D01*
X128379039Y-116057601D01*
X128580700Y-115859895D01*
X128739915Y-115626646D01*
X128850567Y-115366818D01*
X128868104Y-115284039D01*
X128746115Y-115062000D01*
X127203200Y-115062000D01*
X126949200Y-115062000D01*
X126929200Y-115062000D01*
X126929200Y-114808000D01*
X126949200Y-114808000D01*
X126949200Y-114788000D01*
X127203200Y-114788000D01*
X127203200Y-114808000D01*
X128746115Y-114808000D01*
X128868104Y-114585961D01*
X128850567Y-114503182D01*
X128739915Y-114243354D01*
X128580700Y-114010105D01*
X128379039Y-113812399D01*
X128149459Y-113662265D01*
X128277301Y-113593932D01*
X128495808Y-113414608D01*
X128675132Y-113196101D01*
X128808382Y-112946808D01*
X128890436Y-112676309D01*
X128918143Y-112395000D01*
X128890436Y-112113691D01*
X128808382Y-111843192D01*
X128675132Y-111593899D01*
X128495808Y-111375392D01*
X128277301Y-111196068D01*
X128144342Y-111125000D01*
X128277301Y-111053932D01*
X128495808Y-110874608D01*
X128675132Y-110656101D01*
X128697101Y-110615000D01*
X129301399Y-110615000D01*
X131592405Y-112906008D01*
X131616199Y-112935001D01*
X131645192Y-112958795D01*
X131645196Y-112958799D01*
X131701768Y-113005226D01*
X131731924Y-113029974D01*
X131863953Y-113100546D01*
X132007214Y-113144003D01*
X132118867Y-113155000D01*
X132118876Y-113155000D01*
X132156199Y-113158676D01*
X132193522Y-113155000D01*
X133075299Y-113155000D01*
X133097268Y-113196101D01*
X133276592Y-113414608D01*
X133495099Y-113593932D01*
X133628058Y-113665000D01*
X133495099Y-113736068D01*
X133276592Y-113915392D01*
X133097268Y-114133899D01*
X132964018Y-114383192D01*
X132881964Y-114653691D01*
X132854257Y-114935000D01*
X132881964Y-115216309D01*
X132964018Y-115486808D01*
X133097268Y-115736101D01*
X133276592Y-115954608D01*
X133495099Y-116133932D01*
X133744392Y-116267182D01*
X134014891Y-116349236D01*
X134225708Y-116370000D01*
X135166692Y-116370000D01*
X135377509Y-116349236D01*
X135648008Y-116267182D01*
X135897301Y-116133932D01*
X136115808Y-115954608D01*
X136295132Y-115736101D01*
X136317101Y-115695000D01*
X136563878Y-115695000D01*
X136601200Y-115698676D01*
X136638522Y-115695000D01*
X136638533Y-115695000D01*
X136750186Y-115684003D01*
X136893447Y-115640546D01*
X137025476Y-115569974D01*
X137141201Y-115475001D01*
X137165003Y-115445998D01*
X137747202Y-114863800D01*
X137776201Y-114840001D01*
X137871174Y-114724276D01*
X137941746Y-114592247D01*
X137985203Y-114448986D01*
X137996200Y-114337333D01*
X137999877Y-114300000D01*
X137996200Y-114262667D01*
X137996200Y-112789171D01*
X138044018Y-112946808D01*
X138177268Y-113196101D01*
X138356592Y-113414608D01*
X138575099Y-113593932D01*
X138708058Y-113665000D01*
X138575099Y-113736068D01*
X138356592Y-113915392D01*
X138177268Y-114133899D01*
X138044018Y-114383192D01*
X137961964Y-114653691D01*
X137934257Y-114935000D01*
X137961964Y-115216309D01*
X138044018Y-115486808D01*
X138177268Y-115736101D01*
X138356592Y-115954608D01*
X138575099Y-116133932D01*
X138824392Y-116267182D01*
X139094891Y-116349236D01*
X139305708Y-116370000D01*
X140246692Y-116370000D01*
X140457509Y-116349236D01*
X140728008Y-116267182D01*
X140977301Y-116133932D01*
X141083322Y-116046923D01*
X143022405Y-117986008D01*
X143046199Y-118015001D01*
X143075192Y-118038795D01*
X143075196Y-118038799D01*
X143131768Y-118085226D01*
X143161924Y-118109974D01*
X143293953Y-118180546D01*
X143437214Y-118224003D01*
X143548867Y-118235000D01*
X143548876Y-118235000D01*
X143586199Y-118238676D01*
X143623522Y-118235000D01*
X148986399Y-118235000D01*
X149602926Y-118851527D01*
X149384392Y-118917818D01*
X149135099Y-119051068D01*
X148916592Y-119230393D01*
X148737268Y-119448900D01*
X148666200Y-119581858D01*
X148595132Y-119448899D01*
X148415807Y-119230392D01*
X148197300Y-119051068D01*
X147948007Y-118917818D01*
X147677508Y-118835764D01*
X147396200Y-118808057D01*
X147114891Y-118835764D01*
X146844392Y-118917818D01*
X146595099Y-119051068D01*
X146376592Y-119230393D01*
X146197268Y-119448900D01*
X146126200Y-119581858D01*
X146055132Y-119448899D01*
X145875807Y-119230392D01*
X145657300Y-119051068D01*
X145408007Y-118917818D01*
X145137508Y-118835764D01*
X144856200Y-118808057D01*
X144574891Y-118835764D01*
X144304392Y-118917818D01*
X144055099Y-119051068D01*
X143836592Y-119230393D01*
X143657268Y-119448900D01*
X143586200Y-119581858D01*
X143515132Y-119448899D01*
X143335807Y-119230392D01*
X143117300Y-119051068D01*
X142956074Y-118964891D01*
X142951174Y-118955724D01*
X142879999Y-118868997D01*
X142856201Y-118839999D01*
X142827202Y-118816200D01*
X142245003Y-118234002D01*
X142221201Y-118204999D01*
X142105476Y-118110026D01*
X141973447Y-118039454D01*
X141830186Y-117995997D01*
X141718533Y-117985000D01*
X141718522Y-117985000D01*
X141681200Y-117981324D01*
X141643878Y-117985000D01*
X130954911Y-117985000D01*
X130910974Y-117941063D01*
X130741456Y-117827795D01*
X130553098Y-117749774D01*
X130353139Y-117710000D01*
X130149261Y-117710000D01*
X129949302Y-117749774D01*
X129760944Y-117827795D01*
X129591426Y-117941063D01*
X129447263Y-118085226D01*
X129333995Y-118254744D01*
X129255974Y-118443102D01*
X129216200Y-118643061D01*
X129216200Y-118846939D01*
X129255974Y-119046898D01*
X129333995Y-119235256D01*
X129447263Y-119404774D01*
X129591426Y-119548937D01*
X129760944Y-119662205D01*
X129949302Y-119740226D01*
X130149261Y-119780000D01*
X130353139Y-119780000D01*
X130380261Y-119774605D01*
X130249520Y-119970273D01*
X130141347Y-120231426D01*
X130086200Y-120508665D01*
X130086200Y-120791335D01*
X130141347Y-121068574D01*
X130249520Y-121329727D01*
X130406563Y-121564759D01*
X130606441Y-121764637D01*
X130841473Y-121921680D01*
X131102626Y-122029853D01*
X131379865Y-122085000D01*
X131662535Y-122085000D01*
X131939774Y-122029853D01*
X132200927Y-121921680D01*
X132435959Y-121764637D01*
X132635837Y-121564759D01*
X132792880Y-121329727D01*
X132901053Y-121068574D01*
X132956200Y-120791335D01*
X132956200Y-120508665D01*
X132901053Y-120231426D01*
X132792880Y-119970273D01*
X132635837Y-119735241D01*
X132435959Y-119535363D01*
X132390517Y-119505000D01*
X135096883Y-119505000D01*
X135051441Y-119535363D01*
X134851563Y-119735241D01*
X134694520Y-119970273D01*
X134586347Y-120231426D01*
X134531200Y-120508665D01*
X134531200Y-120791335D01*
X134586347Y-121068574D01*
X134694520Y-121329727D01*
X134851563Y-121564759D01*
X135051441Y-121764637D01*
X135206201Y-121868044D01*
X135206200Y-122517677D01*
X135202524Y-122555000D01*
X135206200Y-122592322D01*
X135206200Y-122592332D01*
X135217197Y-122703985D01*
X135260654Y-122847246D01*
X135331226Y-122979276D01*
X135371071Y-123027826D01*
X135426199Y-123095001D01*
X135455202Y-123118803D01*
X136037400Y-123701002D01*
X136061199Y-123730001D01*
X136090197Y-123753799D01*
X136176924Y-123824974D01*
X136308953Y-123895546D01*
X136452214Y-123939003D01*
X136601200Y-123953677D01*
X136638533Y-123950000D01*
X149263878Y-123950000D01*
X149301200Y-123953676D01*
X149338522Y-123950000D01*
X149338533Y-123950000D01*
X149450186Y-123939003D01*
X149593447Y-123895546D01*
X149725476Y-123824974D01*
X149841201Y-123730001D01*
X149865003Y-123700998D01*
X150447202Y-123118800D01*
X150476201Y-123095001D01*
X150571174Y-122979276D01*
X150641746Y-122847247D01*
X150685203Y-122703986D01*
X150696200Y-122592333D01*
X150696200Y-122592332D01*
X150699877Y-122555000D01*
X150696200Y-122517667D01*
X150696200Y-122270901D01*
X150737301Y-122248932D01*
X150955808Y-122069608D01*
X151135132Y-121851101D01*
X151206200Y-121718142D01*
X151277268Y-121851101D01*
X151456593Y-122069608D01*
X151675100Y-122248932D01*
X151924393Y-122382182D01*
X152194892Y-122464236D01*
X152476200Y-122491943D01*
X152757509Y-122464236D01*
X153028008Y-122382182D01*
X153277301Y-122248932D01*
X153495808Y-122069608D01*
X153675132Y-121851101D01*
X153746200Y-121718142D01*
X153817268Y-121851101D01*
X153996593Y-122069608D01*
X154215100Y-122248932D01*
X154464393Y-122382182D01*
X154734892Y-122464236D01*
X155016200Y-122491943D01*
X155297509Y-122464236D01*
X155568008Y-122382182D01*
X155817301Y-122248932D01*
X156035808Y-122069608D01*
X156215132Y-121851101D01*
X156286200Y-121718142D01*
X156357268Y-121851101D01*
X156536593Y-122069608D01*
X156755100Y-122248932D01*
X157004393Y-122382182D01*
X157162030Y-122430000D01*
X156989911Y-122430000D01*
X156945974Y-122386063D01*
X156776456Y-122272795D01*
X156588098Y-122194774D01*
X156388139Y-122155000D01*
X156184261Y-122155000D01*
X155984302Y-122194774D01*
X155795944Y-122272795D01*
X155626426Y-122386063D01*
X155482263Y-122530226D01*
X155368995Y-122699744D01*
X155290974Y-122888102D01*
X155251200Y-123088061D01*
X155251200Y-123291939D01*
X155290974Y-123491898D01*
X155368995Y-123680256D01*
X155482263Y-123849774D01*
X155626426Y-123993937D01*
X155795944Y-124107205D01*
X155984302Y-124185226D01*
X156184261Y-124225000D01*
X156388139Y-124225000D01*
X156588098Y-124185226D01*
X156776456Y-124107205D01*
X156945974Y-123993937D01*
X156989911Y-123950000D01*
X168282489Y-123950000D01*
X168326426Y-123993937D01*
X168495944Y-124107205D01*
X168684302Y-124185226D01*
X168884261Y-124225000D01*
X169088139Y-124225000D01*
X169288098Y-124185226D01*
X169476456Y-124107205D01*
X169645974Y-123993937D01*
X169790137Y-123849774D01*
X169903405Y-123680256D01*
X169981426Y-123491898D01*
X170021200Y-123291939D01*
X170021200Y-123088061D01*
X169981426Y-122888102D01*
X169903405Y-122699744D01*
X169790137Y-122530226D01*
X169645974Y-122386063D01*
X169476456Y-122272795D01*
X169288098Y-122194774D01*
X169088139Y-122155000D01*
X168884261Y-122155000D01*
X168684302Y-122194774D01*
X168495944Y-122272795D01*
X168326426Y-122386063D01*
X168282489Y-122430000D01*
X168110371Y-122430000D01*
X168268008Y-122382182D01*
X168517301Y-122248932D01*
X168735808Y-122069608D01*
X168915132Y-121851101D01*
X168986200Y-121718142D01*
X169057268Y-121851101D01*
X169236593Y-122069608D01*
X169455100Y-122248932D01*
X169704393Y-122382182D01*
X169974892Y-122464236D01*
X170256200Y-122491943D01*
X170537509Y-122464236D01*
X170808008Y-122382182D01*
X171057301Y-122248932D01*
X171275808Y-122069608D01*
X171455132Y-121851101D01*
X171526200Y-121718142D01*
X171597268Y-121851101D01*
X171776593Y-122069608D01*
X171995100Y-122248932D01*
X172187637Y-122351845D01*
X172136426Y-122386063D01*
X171992263Y-122530226D01*
X171878995Y-122699744D01*
X171800974Y-122888102D01*
X171761200Y-123088061D01*
X171761200Y-123291939D01*
X171794239Y-123458039D01*
X171628139Y-123425000D01*
X171424261Y-123425000D01*
X171224302Y-123464774D01*
X171035944Y-123542795D01*
X170866426Y-123656063D01*
X170722263Y-123800226D01*
X170608995Y-123969744D01*
X170530974Y-124158102D01*
X170491200Y-124358061D01*
X170491200Y-124561939D01*
X170530974Y-124761898D01*
X170608995Y-124950256D01*
X170722263Y-125119774D01*
X170866426Y-125263937D01*
X171035944Y-125377205D01*
X171224302Y-125455226D01*
X171424261Y-125495000D01*
X171628139Y-125495000D01*
X171828098Y-125455226D01*
X172016456Y-125377205D01*
X172185974Y-125263937D01*
X172229911Y-125220000D01*
X189268878Y-125220000D01*
X189306200Y-125223676D01*
X189343522Y-125220000D01*
X189343533Y-125220000D01*
X189455186Y-125209003D01*
X189598447Y-125165546D01*
X189730476Y-125094974D01*
X189846201Y-125000001D01*
X189870004Y-124970997D01*
X191719200Y-123121802D01*
X191719200Y-147267394D01*
X189888594Y-149098000D01*
X125223806Y-149098000D01*
X123393200Y-147267394D01*
X123393200Y-145908665D01*
X125641200Y-145908665D01*
X125641200Y-146191335D01*
X125696347Y-146468574D01*
X125804520Y-146729727D01*
X125961563Y-146964759D01*
X126161441Y-147164637D01*
X126396473Y-147321680D01*
X126657626Y-147429853D01*
X126934865Y-147485000D01*
X127217535Y-147485000D01*
X127400086Y-147448688D01*
X127782401Y-147831003D01*
X127806199Y-147860001D01*
X127921924Y-147954974D01*
X128053953Y-148025546D01*
X128197214Y-148069003D01*
X128308867Y-148080000D01*
X128308876Y-148080000D01*
X128346199Y-148083676D01*
X128383522Y-148080000D01*
X147358878Y-148080000D01*
X147396200Y-148083676D01*
X147433522Y-148080000D01*
X147433533Y-148080000D01*
X147545186Y-148069003D01*
X147688447Y-148025546D01*
X147820476Y-147954974D01*
X147936201Y-147860001D01*
X147960004Y-147830997D01*
X148893194Y-146897807D01*
X149103325Y-146856010D01*
X149376053Y-146743042D01*
X149621502Y-146579039D01*
X149830239Y-146370302D01*
X149940759Y-146204897D01*
X149999383Y-146303488D01*
X150195907Y-146521854D01*
X150431256Y-146697684D01*
X150696386Y-146824222D01*
X150847174Y-146869958D01*
X151079200Y-146748817D01*
X151079200Y-145542000D01*
X151059200Y-145542000D01*
X151059200Y-145288000D01*
X151079200Y-145288000D01*
X151079200Y-145268000D01*
X151333200Y-145268000D01*
X151333200Y-145288000D01*
X151353200Y-145288000D01*
X151353200Y-145542000D01*
X151333200Y-145542000D01*
X151333200Y-146748817D01*
X151565226Y-146869958D01*
X151716014Y-146824222D01*
X151981144Y-146697684D01*
X152216493Y-146521854D01*
X152413017Y-146303488D01*
X152471641Y-146204897D01*
X152582161Y-146370302D01*
X152790898Y-146579039D01*
X153036347Y-146743042D01*
X153309075Y-146856010D01*
X153598601Y-146913600D01*
X153893799Y-146913600D01*
X154183325Y-146856010D01*
X154456053Y-146743042D01*
X154701502Y-146579039D01*
X154910239Y-146370302D01*
X155016200Y-146211719D01*
X155122161Y-146370302D01*
X155330898Y-146579039D01*
X155576347Y-146743042D01*
X155849075Y-146856010D01*
X156138601Y-146913600D01*
X156433799Y-146913600D01*
X156723325Y-146856010D01*
X156996053Y-146743042D01*
X157241502Y-146579039D01*
X157450239Y-146370302D01*
X157556200Y-146211719D01*
X157662161Y-146370302D01*
X157870898Y-146579039D01*
X158116347Y-146743042D01*
X158389075Y-146856010D01*
X158678601Y-146913600D01*
X158973799Y-146913600D01*
X159263325Y-146856010D01*
X159536053Y-146743042D01*
X159781502Y-146579039D01*
X159990239Y-146370302D01*
X160096200Y-146211719D01*
X160202161Y-146370302D01*
X160410898Y-146579039D01*
X160656347Y-146743042D01*
X160929075Y-146856010D01*
X161218601Y-146913600D01*
X161513799Y-146913600D01*
X161803325Y-146856010D01*
X162076053Y-146743042D01*
X162321502Y-146579039D01*
X162530239Y-146370302D01*
X162636200Y-146211719D01*
X162742161Y-146370302D01*
X162950898Y-146579039D01*
X163196347Y-146743042D01*
X163469075Y-146856010D01*
X163758601Y-146913600D01*
X164053799Y-146913600D01*
X164343325Y-146856010D01*
X164616053Y-146743042D01*
X164861502Y-146579039D01*
X165070239Y-146370302D01*
X165176200Y-146211719D01*
X165282161Y-146370302D01*
X165490898Y-146579039D01*
X165736347Y-146743042D01*
X166009075Y-146856010D01*
X166298601Y-146913600D01*
X166593799Y-146913600D01*
X166883325Y-146856010D01*
X167156053Y-146743042D01*
X167401502Y-146579039D01*
X167610239Y-146370302D01*
X167716200Y-146211719D01*
X167822161Y-146370302D01*
X168030898Y-146579039D01*
X168276347Y-146743042D01*
X168549075Y-146856010D01*
X168838601Y-146913600D01*
X169133799Y-146913600D01*
X169423325Y-146856010D01*
X169696053Y-146743042D01*
X169941502Y-146579039D01*
X170150239Y-146370302D01*
X170256200Y-146211719D01*
X170362161Y-146370302D01*
X170570898Y-146579039D01*
X170816347Y-146743042D01*
X171089075Y-146856010D01*
X171378601Y-146913600D01*
X171673799Y-146913600D01*
X171963325Y-146856010D01*
X172236053Y-146743042D01*
X172481502Y-146579039D01*
X172690239Y-146370302D01*
X172796200Y-146211719D01*
X172902161Y-146370302D01*
X173110898Y-146579039D01*
X173356347Y-146743042D01*
X173629075Y-146856010D01*
X173918601Y-146913600D01*
X174213799Y-146913600D01*
X174503325Y-146856010D01*
X174776053Y-146743042D01*
X175021502Y-146579039D01*
X175230239Y-146370302D01*
X175336200Y-146211719D01*
X175442161Y-146370302D01*
X175650898Y-146579039D01*
X175896347Y-146743042D01*
X176169075Y-146856010D01*
X176458601Y-146913600D01*
X176753799Y-146913600D01*
X177043325Y-146856010D01*
X177316053Y-146743042D01*
X177561502Y-146579039D01*
X177770239Y-146370302D01*
X177876200Y-146211719D01*
X177982161Y-146370302D01*
X178190898Y-146579039D01*
X178436347Y-146743042D01*
X178709075Y-146856010D01*
X178998601Y-146913600D01*
X179293799Y-146913600D01*
X179583325Y-146856010D01*
X179856053Y-146743042D01*
X180101502Y-146579039D01*
X180310239Y-146370302D01*
X180416200Y-146211719D01*
X180522161Y-146370302D01*
X180730898Y-146579039D01*
X180976347Y-146743042D01*
X181249075Y-146856010D01*
X181538601Y-146913600D01*
X181833799Y-146913600D01*
X182123325Y-146856010D01*
X182396053Y-146743042D01*
X182641502Y-146579039D01*
X182850239Y-146370302D01*
X182956200Y-146211719D01*
X183062161Y-146370302D01*
X183270898Y-146579039D01*
X183516347Y-146743042D01*
X183789075Y-146856010D01*
X184078601Y-146913600D01*
X184373799Y-146913600D01*
X184663325Y-146856010D01*
X184936053Y-146743042D01*
X185181502Y-146579039D01*
X185390239Y-146370302D01*
X185554242Y-146124853D01*
X185667210Y-145852125D01*
X185724800Y-145562599D01*
X185724800Y-145267401D01*
X185667210Y-144977875D01*
X185554242Y-144705147D01*
X185390239Y-144459698D01*
X185276177Y-144345636D01*
X185333980Y-144328102D01*
X185444294Y-144269137D01*
X185540985Y-144189785D01*
X185620337Y-144093094D01*
X185679302Y-143982780D01*
X185715612Y-143863082D01*
X185727872Y-143738600D01*
X185727872Y-142011400D01*
X185715612Y-141886918D01*
X185679302Y-141767220D01*
X185620337Y-141656906D01*
X185540985Y-141560215D01*
X185444294Y-141480863D01*
X185333980Y-141421898D01*
X185214282Y-141385588D01*
X185089800Y-141373328D01*
X183362600Y-141373328D01*
X183238118Y-141385588D01*
X183118420Y-141421898D01*
X183008106Y-141480863D01*
X182911415Y-141560215D01*
X182832063Y-141656906D01*
X182773098Y-141767220D01*
X182755564Y-141825023D01*
X182641502Y-141710961D01*
X182396053Y-141546958D01*
X182123325Y-141433990D01*
X181833799Y-141376400D01*
X181538601Y-141376400D01*
X181249075Y-141433990D01*
X180976347Y-141546958D01*
X180730898Y-141710961D01*
X180522161Y-141919698D01*
X180416200Y-142078281D01*
X180310239Y-141919698D01*
X180101502Y-141710961D01*
X179856053Y-141546958D01*
X179583325Y-141433990D01*
X179293799Y-141376400D01*
X178998601Y-141376400D01*
X178709075Y-141433990D01*
X178436347Y-141546958D01*
X178190898Y-141710961D01*
X177982161Y-141919698D01*
X177876200Y-142078281D01*
X177770239Y-141919698D01*
X177561502Y-141710961D01*
X177316053Y-141546958D01*
X177043325Y-141433990D01*
X176753799Y-141376400D01*
X176458601Y-141376400D01*
X176169075Y-141433990D01*
X175896347Y-141546958D01*
X175650898Y-141710961D01*
X175442161Y-141919698D01*
X175336200Y-142078281D01*
X175230239Y-141919698D01*
X175021502Y-141710961D01*
X174776053Y-141546958D01*
X174503325Y-141433990D01*
X174213799Y-141376400D01*
X173918601Y-141376400D01*
X173629075Y-141433990D01*
X173356347Y-141546958D01*
X173110898Y-141710961D01*
X172902161Y-141919698D01*
X172796200Y-142078281D01*
X172690239Y-141919698D01*
X172481502Y-141710961D01*
X172236053Y-141546958D01*
X171963325Y-141433990D01*
X171673799Y-141376400D01*
X171378601Y-141376400D01*
X171089075Y-141433990D01*
X170816347Y-141546958D01*
X170570898Y-141710961D01*
X170362161Y-141919698D01*
X170256200Y-142078281D01*
X170150239Y-141919698D01*
X169941502Y-141710961D01*
X169696053Y-141546958D01*
X169423325Y-141433990D01*
X169133799Y-141376400D01*
X168838601Y-141376400D01*
X168549075Y-141433990D01*
X168276347Y-141546958D01*
X168030898Y-141710961D01*
X167822161Y-141919698D01*
X167716200Y-142078281D01*
X167610239Y-141919698D01*
X167401502Y-141710961D01*
X167156053Y-141546958D01*
X166883325Y-141433990D01*
X166593799Y-141376400D01*
X166298601Y-141376400D01*
X166009075Y-141433990D01*
X165736347Y-141546958D01*
X165490898Y-141710961D01*
X165282161Y-141919698D01*
X165176200Y-142078281D01*
X165070239Y-141919698D01*
X164861502Y-141710961D01*
X164616053Y-141546958D01*
X164343325Y-141433990D01*
X164053799Y-141376400D01*
X163758601Y-141376400D01*
X163469075Y-141433990D01*
X163196347Y-141546958D01*
X162950898Y-141710961D01*
X162742161Y-141919698D01*
X162636200Y-142078281D01*
X162530239Y-141919698D01*
X162321502Y-141710961D01*
X162076053Y-141546958D01*
X161803325Y-141433990D01*
X161513799Y-141376400D01*
X161218601Y-141376400D01*
X160929075Y-141433990D01*
X160656347Y-141546958D01*
X160410898Y-141710961D01*
X160202161Y-141919698D01*
X160096200Y-142078281D01*
X159990239Y-141919698D01*
X159781502Y-141710961D01*
X159536053Y-141546958D01*
X159263325Y-141433990D01*
X158973799Y-141376400D01*
X158678601Y-141376400D01*
X158389075Y-141433990D01*
X158116347Y-141546958D01*
X157870898Y-141710961D01*
X157662161Y-141919698D01*
X157556200Y-142078281D01*
X157450239Y-141919698D01*
X157241502Y-141710961D01*
X156996053Y-141546958D01*
X156723325Y-141433990D01*
X156433799Y-141376400D01*
X156138601Y-141376400D01*
X155849075Y-141433990D01*
X155576347Y-141546958D01*
X155330898Y-141710961D01*
X155122161Y-141919698D01*
X155016200Y-142078281D01*
X154910239Y-141919698D01*
X154701502Y-141710961D01*
X154456053Y-141546958D01*
X154183325Y-141433990D01*
X153893799Y-141376400D01*
X153598601Y-141376400D01*
X153309075Y-141433990D01*
X153036347Y-141546958D01*
X152790898Y-141710961D01*
X152582161Y-141919698D01*
X152476200Y-142078281D01*
X152370239Y-141919698D01*
X152161502Y-141710961D01*
X151916053Y-141546958D01*
X151643325Y-141433990D01*
X151353799Y-141376400D01*
X151058601Y-141376400D01*
X150769075Y-141433990D01*
X150496347Y-141546958D01*
X150250898Y-141710961D01*
X150042161Y-141919698D01*
X149936200Y-142078281D01*
X149830239Y-141919698D01*
X149621502Y-141710961D01*
X149376053Y-141546958D01*
X149103325Y-141433990D01*
X148813799Y-141376400D01*
X148518601Y-141376400D01*
X148229075Y-141433990D01*
X147956347Y-141546958D01*
X147710898Y-141710961D01*
X147502161Y-141919698D01*
X147396200Y-142078281D01*
X147290239Y-141919698D01*
X147081502Y-141710961D01*
X146836053Y-141546958D01*
X146563325Y-141433990D01*
X146273799Y-141376400D01*
X145978601Y-141376400D01*
X145689075Y-141433990D01*
X145416347Y-141546958D01*
X145170898Y-141710961D01*
X144962161Y-141919698D01*
X144856200Y-142078281D01*
X144750239Y-141919698D01*
X144541502Y-141710961D01*
X144296053Y-141546958D01*
X144023325Y-141433990D01*
X143733799Y-141376400D01*
X143438601Y-141376400D01*
X143149075Y-141433990D01*
X142876347Y-141546958D01*
X142630898Y-141710961D01*
X142422161Y-141919698D01*
X142316200Y-142078281D01*
X142210239Y-141919698D01*
X142001502Y-141710961D01*
X141756053Y-141546958D01*
X141483325Y-141433990D01*
X141193799Y-141376400D01*
X140898601Y-141376400D01*
X140609075Y-141433990D01*
X140336347Y-141546958D01*
X140090898Y-141710961D01*
X139882161Y-141919698D01*
X139776200Y-142078281D01*
X139670239Y-141919698D01*
X139461502Y-141710961D01*
X139216053Y-141546958D01*
X138943325Y-141433990D01*
X138653799Y-141376400D01*
X138358601Y-141376400D01*
X138069075Y-141433990D01*
X137796347Y-141546958D01*
X137550898Y-141710961D01*
X137342161Y-141919698D01*
X137295187Y-141990000D01*
X137177213Y-141990000D01*
X137130239Y-141919698D01*
X136921502Y-141710961D01*
X136676053Y-141546958D01*
X136403325Y-141433990D01*
X136113799Y-141376400D01*
X135818601Y-141376400D01*
X135529075Y-141433990D01*
X135256347Y-141546958D01*
X135010898Y-141710961D01*
X134802161Y-141919698D01*
X134638158Y-142165147D01*
X134525190Y-142437875D01*
X134467600Y-142727401D01*
X134467600Y-143022599D01*
X134525190Y-143312125D01*
X134638158Y-143584853D01*
X134802161Y-143830302D01*
X135010898Y-144039039D01*
X135172013Y-144146692D01*
X134955907Y-144308146D01*
X134759383Y-144526512D01*
X134609236Y-144779022D01*
X134511237Y-145055973D01*
X134631736Y-145288000D01*
X135839200Y-145288000D01*
X135839200Y-145268000D01*
X136093200Y-145268000D01*
X136093200Y-145288000D01*
X138379200Y-145288000D01*
X138379200Y-145268000D01*
X138633200Y-145268000D01*
X138633200Y-145288000D01*
X138653200Y-145288000D01*
X138653200Y-145542000D01*
X138633200Y-145542000D01*
X138633200Y-145562000D01*
X138379200Y-145562000D01*
X138379200Y-145542000D01*
X136093200Y-145542000D01*
X136093200Y-145562000D01*
X135839200Y-145562000D01*
X135839200Y-145542000D01*
X134631736Y-145542000D01*
X134511237Y-145774027D01*
X134609236Y-146050978D01*
X134759383Y-146303488D01*
X134955907Y-146521854D01*
X135006966Y-146560000D01*
X128661002Y-146560000D01*
X128474888Y-146373886D01*
X128511200Y-146191335D01*
X128511200Y-145908665D01*
X128456053Y-145631426D01*
X128347880Y-145370273D01*
X128190837Y-145135241D01*
X127990959Y-144935363D01*
X127755927Y-144778320D01*
X127494774Y-144670147D01*
X127217535Y-144615000D01*
X126934865Y-144615000D01*
X126657626Y-144670147D01*
X126396473Y-144778320D01*
X126161441Y-144935363D01*
X125961563Y-145135241D01*
X125804520Y-145370273D01*
X125696347Y-145631426D01*
X125641200Y-145908665D01*
X123393200Y-145908665D01*
X123393200Y-82828110D01*
X125634724Y-82828110D01*
X125756045Y-83058000D01*
X126949200Y-83058000D01*
X126949200Y-81864186D01*
X127203200Y-81864186D01*
X127203200Y-83058000D01*
X128396355Y-83058000D01*
X128517676Y-82828110D01*
X128473025Y-82680901D01*
X128347841Y-82418080D01*
X128173788Y-82184731D01*
X127957555Y-81989822D01*
X127707452Y-81840843D01*
X127433091Y-81743519D01*
X127203200Y-81864186D01*
X126949200Y-81864186D01*
X126719309Y-81743519D01*
X126444948Y-81840843D01*
X126194845Y-81989822D01*
X125978612Y-82184731D01*
X125804559Y-82418080D01*
X125679375Y-82680901D01*
X125634724Y-82828110D01*
X123393200Y-82828110D01*
X123393200Y-78157606D01*
X125223806Y-76327000D01*
X133494398Y-76327000D01*
X130211399Y-79610000D01*
G36*
X175407400Y-115446002D02*
G01*
X175431199Y-115475001D01*
X175546924Y-115569974D01*
X175678953Y-115640546D01*
X175822214Y-115684003D01*
X175933867Y-115695000D01*
X175933876Y-115695000D01*
X175971199Y-115698676D01*
X176008522Y-115695000D01*
X186415299Y-115695000D01*
X186437268Y-115736101D01*
X186616592Y-115954608D01*
X186835099Y-116133932D01*
X187084392Y-116267182D01*
X187354891Y-116349236D01*
X187565708Y-116370000D01*
X188506692Y-116370000D01*
X188717509Y-116349236D01*
X188988008Y-116267182D01*
X189181200Y-116163919D01*
X189181200Y-116167668D01*
X189181201Y-119381414D01*
X189158801Y-119347161D01*
X188961095Y-119145500D01*
X188727846Y-118986285D01*
X188468018Y-118875633D01*
X188385239Y-118858096D01*
X188163200Y-118980085D01*
X188163200Y-120523000D01*
X188183200Y-120523000D01*
X188183200Y-120777000D01*
X188163200Y-120777000D01*
X188163200Y-120797000D01*
X187909200Y-120797000D01*
X187909200Y-120777000D01*
X187889200Y-120777000D01*
X187889200Y-120523000D01*
X187909200Y-120523000D01*
X187909200Y-118980085D01*
X187687161Y-118858096D01*
X187604382Y-118875633D01*
X187344554Y-118986285D01*
X187111305Y-119145500D01*
X186913599Y-119347161D01*
X186763465Y-119576741D01*
X186695132Y-119448899D01*
X186515807Y-119230392D01*
X186297300Y-119051068D01*
X186048007Y-118917818D01*
X185777508Y-118835764D01*
X185496200Y-118808057D01*
X185214891Y-118835764D01*
X184944392Y-118917818D01*
X184695099Y-119051068D01*
X184476592Y-119230393D01*
X184297268Y-119448900D01*
X184226200Y-119581858D01*
X184155132Y-119448899D01*
X183975807Y-119230392D01*
X183757300Y-119051068D01*
X183508007Y-118917818D01*
X183237508Y-118835764D01*
X182956200Y-118808057D01*
X182674891Y-118835764D01*
X182404392Y-118917818D01*
X182155099Y-119051068D01*
X181936592Y-119230393D01*
X181757268Y-119448900D01*
X181686200Y-119581858D01*
X181615132Y-119448899D01*
X181435807Y-119230392D01*
X181217300Y-119051068D01*
X180968007Y-118917818D01*
X180697508Y-118835764D01*
X180416200Y-118808057D01*
X180134891Y-118835764D01*
X179864392Y-118917818D01*
X179615099Y-119051068D01*
X179396592Y-119230393D01*
X179217268Y-119448900D01*
X179146200Y-119581858D01*
X179075132Y-119448899D01*
X178895807Y-119230392D01*
X178677300Y-119051068D01*
X178428007Y-118917818D01*
X178157508Y-118835764D01*
X177876200Y-118808057D01*
X177594891Y-118835764D01*
X177324392Y-118917818D01*
X177075099Y-119051068D01*
X176856592Y-119230393D01*
X176677268Y-119448900D01*
X176606200Y-119581858D01*
X176535132Y-119448899D01*
X176355807Y-119230392D01*
X176137300Y-119051068D01*
X175888007Y-118917818D01*
X175617508Y-118835764D01*
X175336200Y-118808057D01*
X175054891Y-118835764D01*
X174784392Y-118917818D01*
X174535099Y-119051068D01*
X174316592Y-119230393D01*
X174137268Y-119448900D01*
X174066200Y-119581858D01*
X173995132Y-119448899D01*
X173815807Y-119230392D01*
X173597300Y-119051068D01*
X173348007Y-118917818D01*
X173077508Y-118835764D01*
X172796200Y-118808057D01*
X172514891Y-118835764D01*
X172244392Y-118917818D01*
X171995099Y-119051068D01*
X171776592Y-119230393D01*
X171597268Y-119448900D01*
X171526200Y-119581858D01*
X171455132Y-119448899D01*
X171275807Y-119230392D01*
X171057300Y-119051068D01*
X170808007Y-118917818D01*
X170537508Y-118835764D01*
X170256200Y-118808057D01*
X169974891Y-118835764D01*
X169704392Y-118917818D01*
X169455099Y-119051068D01*
X169236592Y-119230393D01*
X169057268Y-119448900D01*
X168986200Y-119581858D01*
X168915132Y-119448899D01*
X168735807Y-119230392D01*
X168517300Y-119051068D01*
X168268007Y-118917818D01*
X167997508Y-118835764D01*
X167716200Y-118808057D01*
X167434891Y-118835764D01*
X167164392Y-118917818D01*
X166915099Y-119051068D01*
X166696592Y-119230393D01*
X166517268Y-119448900D01*
X166446200Y-119581858D01*
X166375132Y-119448899D01*
X166195807Y-119230392D01*
X165977300Y-119051068D01*
X165728007Y-118917818D01*
X165457508Y-118835764D01*
X165176200Y-118808057D01*
X164894891Y-118835764D01*
X164624392Y-118917818D01*
X164375099Y-119051068D01*
X164156592Y-119230393D01*
X163977268Y-119448900D01*
X163906200Y-119581858D01*
X163835132Y-119448899D01*
X163655807Y-119230392D01*
X163437300Y-119051068D01*
X163188007Y-118917818D01*
X162917508Y-118835764D01*
X162636200Y-118808057D01*
X162354891Y-118835764D01*
X162084392Y-118917818D01*
X161835099Y-119051068D01*
X161616592Y-119230393D01*
X161437268Y-119448900D01*
X161366200Y-119581858D01*
X161295132Y-119448899D01*
X161115807Y-119230392D01*
X160897300Y-119051068D01*
X160648007Y-118917818D01*
X160377508Y-118835764D01*
X160096200Y-118808057D01*
X159861200Y-118831203D01*
X159861200Y-118643061D01*
X159821426Y-118443102D01*
X159743405Y-118254744D01*
X159630137Y-118085226D01*
X159485974Y-117941063D01*
X159316456Y-117827795D01*
X159128098Y-117749774D01*
X158928139Y-117710000D01*
X158724261Y-117710000D01*
X158524302Y-117749774D01*
X158335944Y-117827795D01*
X158166426Y-117941063D01*
X158122489Y-117985000D01*
X154946001Y-117985000D01*
X155966002Y-116965000D01*
X161963878Y-116965000D01*
X162001200Y-116968676D01*
X162038522Y-116965000D01*
X162038533Y-116965000D01*
X162150186Y-116954003D01*
X162293447Y-116910546D01*
X162425476Y-116839974D01*
X162541201Y-116745001D01*
X162565004Y-116715997D01*
X163586002Y-115695000D01*
X163837489Y-115695000D01*
X163881426Y-115738937D01*
X164050944Y-115852205D01*
X164239302Y-115930226D01*
X164439261Y-115970000D01*
X164643139Y-115970000D01*
X164843098Y-115930226D01*
X165031456Y-115852205D01*
X165200974Y-115738937D01*
X165244911Y-115695000D01*
X166095299Y-115695000D01*
X166117268Y-115736101D01*
X166296592Y-115954608D01*
X166515099Y-116133932D01*
X166764392Y-116267182D01*
X167034891Y-116349236D01*
X167245708Y-116370000D01*
X168186692Y-116370000D01*
X168397509Y-116349236D01*
X168668008Y-116267182D01*
X168917301Y-116133932D01*
X169135808Y-115954608D01*
X169315132Y-115736101D01*
X169337101Y-115695000D01*
X169583878Y-115695000D01*
X169621200Y-115698676D01*
X169658522Y-115695000D01*
X169658533Y-115695000D01*
X169770186Y-115684003D01*
X169913447Y-115640546D01*
X170045476Y-115569974D01*
X170161201Y-115475001D01*
X170185004Y-115445997D01*
X170346962Y-115284039D01*
X171004296Y-115284039D01*
X171021833Y-115366818D01*
X171132485Y-115626646D01*
X171291700Y-115859895D01*
X171493361Y-116057601D01*
X171729717Y-116212166D01*
X171991686Y-116317650D01*
X172269200Y-116370000D01*
X172669200Y-116370000D01*
X172669200Y-115062000D01*
X172923200Y-115062000D01*
X172923200Y-116370000D01*
X173323200Y-116370000D01*
X173600714Y-116317650D01*
X173862683Y-116212166D01*
X174099039Y-116057601D01*
X174300700Y-115859895D01*
X174459915Y-115626646D01*
X174570567Y-115366818D01*
X174588104Y-115284039D01*
X174466115Y-115062000D01*
X172923200Y-115062000D01*
X172669200Y-115062000D01*
X171126285Y-115062000D01*
X171004296Y-115284039D01*
X170346962Y-115284039D01*
X171018744Y-114612258D01*
X171126285Y-114808000D01*
X172669200Y-114808000D01*
X172669200Y-114788000D01*
X172923200Y-114788000D01*
X172923200Y-114808000D01*
X174466115Y-114808000D01*
X174573656Y-114612258D01*
X175407400Y-115446002D01*
G37*
X175407400Y-115446002D02*
X175431199Y-115475001D01*
X175546924Y-115569974D01*
X175678953Y-115640546D01*
X175822214Y-115684003D01*
X175933867Y-115695000D01*
X175933876Y-115695000D01*
X175971199Y-115698676D01*
X176008522Y-115695000D01*
X186415299Y-115695000D01*
X186437268Y-115736101D01*
X186616592Y-115954608D01*
X186835099Y-116133932D01*
X187084392Y-116267182D01*
X187354891Y-116349236D01*
X187565708Y-116370000D01*
X188506692Y-116370000D01*
X188717509Y-116349236D01*
X188988008Y-116267182D01*
X189181200Y-116163919D01*
X189181200Y-116167668D01*
X189181201Y-119381414D01*
X189158801Y-119347161D01*
X188961095Y-119145500D01*
X188727846Y-118986285D01*
X188468018Y-118875633D01*
X188385239Y-118858096D01*
X188163200Y-118980085D01*
X188163200Y-120523000D01*
X188183200Y-120523000D01*
X188183200Y-120777000D01*
X188163200Y-120777000D01*
X188163200Y-120797000D01*
X187909200Y-120797000D01*
X187909200Y-120777000D01*
X187889200Y-120777000D01*
X187889200Y-120523000D01*
X187909200Y-120523000D01*
X187909200Y-118980085D01*
X187687161Y-118858096D01*
X187604382Y-118875633D01*
X187344554Y-118986285D01*
X187111305Y-119145500D01*
X186913599Y-119347161D01*
X186763465Y-119576741D01*
X186695132Y-119448899D01*
X186515807Y-119230392D01*
X186297300Y-119051068D01*
X186048007Y-118917818D01*
X185777508Y-118835764D01*
X185496200Y-118808057D01*
X185214891Y-118835764D01*
X184944392Y-118917818D01*
X184695099Y-119051068D01*
X184476592Y-119230393D01*
X184297268Y-119448900D01*
X184226200Y-119581858D01*
X184155132Y-119448899D01*
X183975807Y-119230392D01*
X183757300Y-119051068D01*
X183508007Y-118917818D01*
X183237508Y-118835764D01*
X182956200Y-118808057D01*
X182674891Y-118835764D01*
X182404392Y-118917818D01*
X182155099Y-119051068D01*
X181936592Y-119230393D01*
X181757268Y-119448900D01*
X181686200Y-119581858D01*
X181615132Y-119448899D01*
X181435807Y-119230392D01*
X181217300Y-119051068D01*
X180968007Y-118917818D01*
X180697508Y-118835764D01*
X180416200Y-118808057D01*
X180134891Y-118835764D01*
X179864392Y-118917818D01*
X179615099Y-119051068D01*
X179396592Y-119230393D01*
X179217268Y-119448900D01*
X179146200Y-119581858D01*
X179075132Y-119448899D01*
X178895807Y-119230392D01*
X178677300Y-119051068D01*
X178428007Y-118917818D01*
X178157508Y-118835764D01*
X177876200Y-118808057D01*
X177594891Y-118835764D01*
X177324392Y-118917818D01*
X177075099Y-119051068D01*
X176856592Y-119230393D01*
X176677268Y-119448900D01*
X176606200Y-119581858D01*
X176535132Y-119448899D01*
X176355807Y-119230392D01*
X176137300Y-119051068D01*
X175888007Y-118917818D01*
X175617508Y-118835764D01*
X175336200Y-118808057D01*
X175054891Y-118835764D01*
X174784392Y-118917818D01*
X174535099Y-119051068D01*
X174316592Y-119230393D01*
X174137268Y-119448900D01*
X174066200Y-119581858D01*
X173995132Y-119448899D01*
X173815807Y-119230392D01*
X173597300Y-119051068D01*
X173348007Y-118917818D01*
X173077508Y-118835764D01*
X172796200Y-118808057D01*
X172514891Y-118835764D01*
X172244392Y-118917818D01*
X171995099Y-119051068D01*
X171776592Y-119230393D01*
X171597268Y-119448900D01*
X171526200Y-119581858D01*
X171455132Y-119448899D01*
X171275807Y-119230392D01*
X171057300Y-119051068D01*
X170808007Y-118917818D01*
X170537508Y-118835764D01*
X170256200Y-118808057D01*
X169974891Y-118835764D01*
X169704392Y-118917818D01*
X169455099Y-119051068D01*
X169236592Y-119230393D01*
X169057268Y-119448900D01*
X168986200Y-119581858D01*
X168915132Y-119448899D01*
X168735807Y-119230392D01*
X168517300Y-119051068D01*
X168268007Y-118917818D01*
X167997508Y-118835764D01*
X167716200Y-118808057D01*
X167434891Y-118835764D01*
X167164392Y-118917818D01*
X166915099Y-119051068D01*
X166696592Y-119230393D01*
X166517268Y-119448900D01*
X166446200Y-119581858D01*
X166375132Y-119448899D01*
X166195807Y-119230392D01*
X165977300Y-119051068D01*
X165728007Y-118917818D01*
X165457508Y-118835764D01*
X165176200Y-118808057D01*
X164894891Y-118835764D01*
X164624392Y-118917818D01*
X164375099Y-119051068D01*
X164156592Y-119230393D01*
X163977268Y-119448900D01*
X163906200Y-119581858D01*
X163835132Y-119448899D01*
X163655807Y-119230392D01*
X163437300Y-119051068D01*
X163188007Y-118917818D01*
X162917508Y-118835764D01*
X162636200Y-118808057D01*
X162354891Y-118835764D01*
X162084392Y-118917818D01*
X161835099Y-119051068D01*
X161616592Y-119230393D01*
X161437268Y-119448900D01*
X161366200Y-119581858D01*
X161295132Y-119448899D01*
X161115807Y-119230392D01*
X160897300Y-119051068D01*
X160648007Y-118917818D01*
X160377508Y-118835764D01*
X160096200Y-118808057D01*
X159861200Y-118831203D01*
X159861200Y-118643061D01*
X159821426Y-118443102D01*
X159743405Y-118254744D01*
X159630137Y-118085226D01*
X159485974Y-117941063D01*
X159316456Y-117827795D01*
X159128098Y-117749774D01*
X158928139Y-117710000D01*
X158724261Y-117710000D01*
X158524302Y-117749774D01*
X158335944Y-117827795D01*
X158166426Y-117941063D01*
X158122489Y-117985000D01*
X154946001Y-117985000D01*
X155966002Y-116965000D01*
X161963878Y-116965000D01*
X162001200Y-116968676D01*
X162038522Y-116965000D01*
X162038533Y-116965000D01*
X162150186Y-116954003D01*
X162293447Y-116910546D01*
X162425476Y-116839974D01*
X162541201Y-116745001D01*
X162565004Y-116715997D01*
X163586002Y-115695000D01*
X163837489Y-115695000D01*
X163881426Y-115738937D01*
X164050944Y-115852205D01*
X164239302Y-115930226D01*
X164439261Y-115970000D01*
X164643139Y-115970000D01*
X164843098Y-115930226D01*
X165031456Y-115852205D01*
X165200974Y-115738937D01*
X165244911Y-115695000D01*
X166095299Y-115695000D01*
X166117268Y-115736101D01*
X166296592Y-115954608D01*
X166515099Y-116133932D01*
X166764392Y-116267182D01*
X167034891Y-116349236D01*
X167245708Y-116370000D01*
X168186692Y-116370000D01*
X168397509Y-116349236D01*
X168668008Y-116267182D01*
X168917301Y-116133932D01*
X169135808Y-115954608D01*
X169315132Y-115736101D01*
X169337101Y-115695000D01*
X169583878Y-115695000D01*
X169621200Y-115698676D01*
X169658522Y-115695000D01*
X169658533Y-115695000D01*
X169770186Y-115684003D01*
X169913447Y-115640546D01*
X170045476Y-115569974D01*
X170161201Y-115475001D01*
X170185004Y-115445997D01*
X170346962Y-115284039D01*
X171004296Y-115284039D01*
X171021833Y-115366818D01*
X171132485Y-115626646D01*
X171291700Y-115859895D01*
X171493361Y-116057601D01*
X171729717Y-116212166D01*
X171991686Y-116317650D01*
X172269200Y-116370000D01*
X172669200Y-116370000D01*
X172669200Y-115062000D01*
X172923200Y-115062000D01*
X172923200Y-116370000D01*
X173323200Y-116370000D01*
X173600714Y-116317650D01*
X173862683Y-116212166D01*
X174099039Y-116057601D01*
X174300700Y-115859895D01*
X174459915Y-115626646D01*
X174570567Y-115366818D01*
X174588104Y-115284039D01*
X174466115Y-115062000D01*
X172923200Y-115062000D01*
X172669200Y-115062000D01*
X171126285Y-115062000D01*
X171004296Y-115284039D01*
X170346962Y-115284039D01*
X171018744Y-114612258D01*
X171126285Y-114808000D01*
X172669200Y-114808000D01*
X172669200Y-114788000D01*
X172923200Y-114788000D01*
X172923200Y-114808000D01*
X174466115Y-114808000D01*
X174573656Y-114612258D01*
X175407400Y-115446002D01*
G36*
X150007400Y-114176002D02*
G01*
X150031199Y-114205001D01*
X150146924Y-114299974D01*
X150278953Y-114370546D01*
X150422214Y-114414003D01*
X150533867Y-114425000D01*
X150533876Y-114425000D01*
X150571199Y-114428676D01*
X150608522Y-114425000D01*
X150735128Y-114425000D01*
X150701833Y-114503182D01*
X150684296Y-114585961D01*
X150806285Y-114808000D01*
X152349200Y-114808000D01*
X152349200Y-114788000D01*
X152603200Y-114788000D01*
X152603200Y-114808000D01*
X154146115Y-114808000D01*
X154268104Y-114585961D01*
X154250567Y-114503182D01*
X154217272Y-114425000D01*
X154947489Y-114425000D01*
X154991426Y-114468937D01*
X155022019Y-114489379D01*
X154253656Y-115257742D01*
X154146115Y-115062000D01*
X152603200Y-115062000D01*
X152603200Y-115082000D01*
X152349200Y-115082000D01*
X152349200Y-115062000D01*
X150806285Y-115062000D01*
X150698744Y-115257742D01*
X149865004Y-114424003D01*
X149841201Y-114394999D01*
X149725476Y-114300026D01*
X149593447Y-114229454D01*
X149450186Y-114185997D01*
X149338533Y-114175000D01*
X149338522Y-114175000D01*
X149301200Y-114171324D01*
X149263878Y-114175000D01*
X149017101Y-114175000D01*
X148995132Y-114133899D01*
X148815808Y-113915392D01*
X148597301Y-113736068D01*
X148464342Y-113665000D01*
X148597301Y-113593932D01*
X148815808Y-113414608D01*
X148995132Y-113196101D01*
X149006407Y-113175008D01*
X150007400Y-114176002D01*
G37*
X150007400Y-114176002D02*
X150031199Y-114205001D01*
X150146924Y-114299974D01*
X150278953Y-114370546D01*
X150422214Y-114414003D01*
X150533867Y-114425000D01*
X150533876Y-114425000D01*
X150571199Y-114428676D01*
X150608522Y-114425000D01*
X150735128Y-114425000D01*
X150701833Y-114503182D01*
X150684296Y-114585961D01*
X150806285Y-114808000D01*
X152349200Y-114808000D01*
X152349200Y-114788000D01*
X152603200Y-114788000D01*
X152603200Y-114808000D01*
X154146115Y-114808000D01*
X154268104Y-114585961D01*
X154250567Y-114503182D01*
X154217272Y-114425000D01*
X154947489Y-114425000D01*
X154991426Y-114468937D01*
X155022019Y-114489379D01*
X154253656Y-115257742D01*
X154146115Y-115062000D01*
X152603200Y-115062000D01*
X152603200Y-115082000D01*
X152349200Y-115082000D01*
X152349200Y-115062000D01*
X150806285Y-115062000D01*
X150698744Y-115257742D01*
X149865004Y-114424003D01*
X149841201Y-114394999D01*
X149725476Y-114300026D01*
X149593447Y-114229454D01*
X149450186Y-114185997D01*
X149338533Y-114175000D01*
X149338522Y-114175000D01*
X149301200Y-114171324D01*
X149263878Y-114175000D01*
X149017101Y-114175000D01*
X148995132Y-114133899D01*
X148815808Y-113915392D01*
X148597301Y-113736068D01*
X148464342Y-113665000D01*
X148597301Y-113593932D01*
X148815808Y-113414608D01*
X148995132Y-113196101D01*
X149006407Y-113175008D01*
X150007400Y-114176002D01*
G36*
X125648268Y-91238158D02*
G01*
X125760210Y-91508411D01*
X125922725Y-91751632D01*
X126129568Y-91958475D01*
X126303960Y-92075000D01*
X126129568Y-92191525D01*
X125922725Y-92398368D01*
X125760210Y-92641589D01*
X125648268Y-92911842D01*
X125591200Y-93198740D01*
X125591200Y-93491260D01*
X125648268Y-93778158D01*
X125760210Y-94048411D01*
X125922725Y-94291632D01*
X126054580Y-94423487D01*
X125982020Y-94445498D01*
X125871706Y-94504463D01*
X125775015Y-94583815D01*
X125695663Y-94680506D01*
X125636698Y-94790820D01*
X125600388Y-94910518D01*
X125588128Y-95035000D01*
X125588128Y-96735000D01*
X125600388Y-96859482D01*
X125636698Y-96979180D01*
X125695663Y-97089494D01*
X125775015Y-97186185D01*
X125871706Y-97265537D01*
X125982020Y-97324502D01*
X126101718Y-97360812D01*
X126226200Y-97373072D01*
X127926200Y-97373072D01*
X128050682Y-97360812D01*
X128170380Y-97324502D01*
X128280694Y-97265537D01*
X128377385Y-97186185D01*
X128456737Y-97089494D01*
X128515702Y-96979180D01*
X128552012Y-96859482D01*
X128564272Y-96735000D01*
X128564272Y-95955512D01*
X130755983Y-95955512D01*
X130797413Y-96235130D01*
X130892597Y-96501292D01*
X130959529Y-96626514D01*
X131203498Y-96698097D01*
X132016595Y-95885000D01*
X131203498Y-95071903D01*
X130959529Y-95143486D01*
X130838629Y-95398996D01*
X130769900Y-95673184D01*
X130755983Y-95955512D01*
X128564272Y-95955512D01*
X128564272Y-95035000D01*
X128552012Y-94910518D01*
X128515702Y-94790820D01*
X128456737Y-94680506D01*
X128377385Y-94583815D01*
X128280694Y-94504463D01*
X128170380Y-94445498D01*
X128097820Y-94423487D01*
X128229675Y-94291632D01*
X128354378Y-94105000D01*
X130571399Y-94105000D01*
X130957400Y-94491002D01*
X130981199Y-94520001D01*
X131010197Y-94543799D01*
X131096924Y-94614974D01*
X131228953Y-94685546D01*
X131372214Y-94729003D01*
X131429364Y-94734632D01*
X131383103Y-94892298D01*
X132196200Y-95705395D01*
X133009297Y-94892298D01*
X132964611Y-94740000D01*
X133826883Y-94740000D01*
X133781441Y-94770363D01*
X133581563Y-94970241D01*
X133447508Y-95170869D01*
X133432871Y-95143486D01*
X133188902Y-95071903D01*
X132375805Y-95885000D01*
X133188902Y-96698097D01*
X133432871Y-96626514D01*
X133446524Y-96597659D01*
X133581563Y-96799759D01*
X133781441Y-96999637D01*
X133826883Y-97030000D01*
X132964611Y-97030000D01*
X133009297Y-96877702D01*
X132196200Y-96064605D01*
X131383103Y-96877702D01*
X131433392Y-97049097D01*
X131352263Y-97130226D01*
X131238995Y-97299744D01*
X131160974Y-97488102D01*
X131121200Y-97688061D01*
X131121200Y-97891939D01*
X131160974Y-98091898D01*
X131238995Y-98280256D01*
X131352263Y-98449774D01*
X131496426Y-98593937D01*
X131665944Y-98707205D01*
X131854302Y-98785226D01*
X132054261Y-98825000D01*
X132258139Y-98825000D01*
X132458098Y-98785226D01*
X132646456Y-98707205D01*
X132815974Y-98593937D01*
X132859911Y-98550000D01*
X133429383Y-98550000D01*
X133276592Y-98675392D01*
X133097268Y-98893899D01*
X132964018Y-99143192D01*
X132881964Y-99413691D01*
X132854257Y-99695000D01*
X132881964Y-99976309D01*
X132951336Y-100205000D01*
X131836002Y-100205000D01*
X130651200Y-99020199D01*
X130651200Y-98958061D01*
X130611426Y-98758102D01*
X130533405Y-98569744D01*
X130420137Y-98400226D01*
X130275974Y-98256063D01*
X130106456Y-98142795D01*
X129918098Y-98064774D01*
X129718139Y-98025000D01*
X129514261Y-98025000D01*
X129314302Y-98064774D01*
X129125944Y-98142795D01*
X128956426Y-98256063D01*
X128812263Y-98400226D01*
X128758117Y-98481262D01*
X128727385Y-98443815D01*
X128630694Y-98364463D01*
X128520380Y-98305498D01*
X128400682Y-98269188D01*
X128276200Y-98256928D01*
X125876200Y-98256928D01*
X125751718Y-98269188D01*
X125632020Y-98305498D01*
X125521706Y-98364463D01*
X125425015Y-98443815D01*
X125421200Y-98448464D01*
X125421200Y-91171578D01*
X125599548Y-90993230D01*
X125648268Y-91238158D01*
G37*
X125648268Y-91238158D02*
X125760210Y-91508411D01*
X125922725Y-91751632D01*
X126129568Y-91958475D01*
X126303960Y-92075000D01*
X126129568Y-92191525D01*
X125922725Y-92398368D01*
X125760210Y-92641589D01*
X125648268Y-92911842D01*
X125591200Y-93198740D01*
X125591200Y-93491260D01*
X125648268Y-93778158D01*
X125760210Y-94048411D01*
X125922725Y-94291632D01*
X126054580Y-94423487D01*
X125982020Y-94445498D01*
X125871706Y-94504463D01*
X125775015Y-94583815D01*
X125695663Y-94680506D01*
X125636698Y-94790820D01*
X125600388Y-94910518D01*
X125588128Y-95035000D01*
X125588128Y-96735000D01*
X125600388Y-96859482D01*
X125636698Y-96979180D01*
X125695663Y-97089494D01*
X125775015Y-97186185D01*
X125871706Y-97265537D01*
X125982020Y-97324502D01*
X126101718Y-97360812D01*
X126226200Y-97373072D01*
X127926200Y-97373072D01*
X128050682Y-97360812D01*
X128170380Y-97324502D01*
X128280694Y-97265537D01*
X128377385Y-97186185D01*
X128456737Y-97089494D01*
X128515702Y-96979180D01*
X128552012Y-96859482D01*
X128564272Y-96735000D01*
X128564272Y-95955512D01*
X130755983Y-95955512D01*
X130797413Y-96235130D01*
X130892597Y-96501292D01*
X130959529Y-96626514D01*
X131203498Y-96698097D01*
X132016595Y-95885000D01*
X131203498Y-95071903D01*
X130959529Y-95143486D01*
X130838629Y-95398996D01*
X130769900Y-95673184D01*
X130755983Y-95955512D01*
X128564272Y-95955512D01*
X128564272Y-95035000D01*
X128552012Y-94910518D01*
X128515702Y-94790820D01*
X128456737Y-94680506D01*
X128377385Y-94583815D01*
X128280694Y-94504463D01*
X128170380Y-94445498D01*
X128097820Y-94423487D01*
X128229675Y-94291632D01*
X128354378Y-94105000D01*
X130571399Y-94105000D01*
X130957400Y-94491002D01*
X130981199Y-94520001D01*
X131010197Y-94543799D01*
X131096924Y-94614974D01*
X131228953Y-94685546D01*
X131372214Y-94729003D01*
X131429364Y-94734632D01*
X131383103Y-94892298D01*
X132196200Y-95705395D01*
X133009297Y-94892298D01*
X132964611Y-94740000D01*
X133826883Y-94740000D01*
X133781441Y-94770363D01*
X133581563Y-94970241D01*
X133447508Y-95170869D01*
X133432871Y-95143486D01*
X133188902Y-95071903D01*
X132375805Y-95885000D01*
X133188902Y-96698097D01*
X133432871Y-96626514D01*
X133446524Y-96597659D01*
X133581563Y-96799759D01*
X133781441Y-96999637D01*
X133826883Y-97030000D01*
X132964611Y-97030000D01*
X133009297Y-96877702D01*
X132196200Y-96064605D01*
X131383103Y-96877702D01*
X131433392Y-97049097D01*
X131352263Y-97130226D01*
X131238995Y-97299744D01*
X131160974Y-97488102D01*
X131121200Y-97688061D01*
X131121200Y-97891939D01*
X131160974Y-98091898D01*
X131238995Y-98280256D01*
X131352263Y-98449774D01*
X131496426Y-98593937D01*
X131665944Y-98707205D01*
X131854302Y-98785226D01*
X132054261Y-98825000D01*
X132258139Y-98825000D01*
X132458098Y-98785226D01*
X132646456Y-98707205D01*
X132815974Y-98593937D01*
X132859911Y-98550000D01*
X133429383Y-98550000D01*
X133276592Y-98675392D01*
X133097268Y-98893899D01*
X132964018Y-99143192D01*
X132881964Y-99413691D01*
X132854257Y-99695000D01*
X132881964Y-99976309D01*
X132951336Y-100205000D01*
X131836002Y-100205000D01*
X130651200Y-99020199D01*
X130651200Y-98958061D01*
X130611426Y-98758102D01*
X130533405Y-98569744D01*
X130420137Y-98400226D01*
X130275974Y-98256063D01*
X130106456Y-98142795D01*
X129918098Y-98064774D01*
X129718139Y-98025000D01*
X129514261Y-98025000D01*
X129314302Y-98064774D01*
X129125944Y-98142795D01*
X128956426Y-98256063D01*
X128812263Y-98400226D01*
X128758117Y-98481262D01*
X128727385Y-98443815D01*
X128630694Y-98364463D01*
X128520380Y-98305498D01*
X128400682Y-98269188D01*
X128276200Y-98256928D01*
X125876200Y-98256928D01*
X125751718Y-98269188D01*
X125632020Y-98305498D01*
X125521706Y-98364463D01*
X125425015Y-98443815D01*
X125421200Y-98448464D01*
X125421200Y-91171578D01*
X125599548Y-90993230D01*
X125648268Y-91238158D01*
G36*
X191719200Y-78157606D02*
G01*
X191719200Y-94048198D01*
X190505004Y-92834003D01*
X190481201Y-92804999D01*
X190365476Y-92710026D01*
X190233447Y-92639454D01*
X190090186Y-92595997D01*
X189978533Y-92585000D01*
X189978522Y-92585000D01*
X189941200Y-92581324D01*
X189903878Y-92585000D01*
X189781064Y-92585000D01*
X189850436Y-92356309D01*
X189878143Y-92075000D01*
X189850436Y-91793691D01*
X189768382Y-91523192D01*
X189635132Y-91273899D01*
X189455808Y-91055392D01*
X189237301Y-90876068D01*
X189104342Y-90805000D01*
X189237301Y-90733932D01*
X189455808Y-90554608D01*
X189635132Y-90336101D01*
X189768382Y-90086808D01*
X189850436Y-89816309D01*
X189878143Y-89535000D01*
X189850436Y-89253691D01*
X189768382Y-88983192D01*
X189635132Y-88733899D01*
X189455808Y-88515392D01*
X189237301Y-88336068D01*
X189104342Y-88265000D01*
X189237301Y-88193932D01*
X189455808Y-88014608D01*
X189635132Y-87796101D01*
X189768382Y-87546808D01*
X189850436Y-87276309D01*
X189878143Y-86995000D01*
X189850436Y-86713691D01*
X189768382Y-86443192D01*
X189635132Y-86193899D01*
X189455808Y-85975392D01*
X189237301Y-85796068D01*
X189104342Y-85725000D01*
X189237301Y-85653932D01*
X189455808Y-85474608D01*
X189635132Y-85256101D01*
X189768382Y-85006808D01*
X189850436Y-84736309D01*
X189878143Y-84455000D01*
X189850436Y-84173691D01*
X189768382Y-83903192D01*
X189635132Y-83653899D01*
X189455808Y-83435392D01*
X189237301Y-83256068D01*
X189104342Y-83185000D01*
X189237301Y-83113932D01*
X189455808Y-82934608D01*
X189635132Y-82716101D01*
X189768382Y-82466808D01*
X189850436Y-82196309D01*
X189878143Y-81915000D01*
X189850436Y-81633691D01*
X189768382Y-81363192D01*
X189635132Y-81113899D01*
X189455808Y-80895392D01*
X189237301Y-80716068D01*
X188988008Y-80582818D01*
X188717509Y-80500764D01*
X188506692Y-80480000D01*
X187565708Y-80480000D01*
X187354891Y-80500764D01*
X187084392Y-80582818D01*
X186835099Y-80716068D01*
X186616592Y-80895392D01*
X186437268Y-81113899D01*
X186304018Y-81363192D01*
X186221964Y-81633691D01*
X186194257Y-81915000D01*
X186221964Y-82196309D01*
X186304018Y-82466808D01*
X186437268Y-82716101D01*
X186616592Y-82934608D01*
X186835099Y-83113932D01*
X186968058Y-83185000D01*
X186835099Y-83256068D01*
X186616592Y-83435392D01*
X186437268Y-83653899D01*
X186415299Y-83695000D01*
X184495213Y-83695000D01*
X184508405Y-83675256D01*
X184586426Y-83486898D01*
X184626200Y-83286939D01*
X184626200Y-83083061D01*
X184586426Y-82883102D01*
X184508405Y-82694744D01*
X184395137Y-82525226D01*
X184250974Y-82381063D01*
X184081456Y-82267795D01*
X183893098Y-82189774D01*
X183693139Y-82150000D01*
X183631002Y-82150000D01*
X182885004Y-81404003D01*
X182861201Y-81374999D01*
X182745476Y-81280026D01*
X182613447Y-81209454D01*
X182470186Y-81165997D01*
X182358533Y-81155000D01*
X182358522Y-81155000D01*
X182321200Y-81151324D01*
X182283878Y-81155000D01*
X176921002Y-81155000D01*
X174863704Y-79097702D01*
X184723103Y-79097702D01*
X184794686Y-79341671D01*
X185050196Y-79462571D01*
X185324384Y-79531300D01*
X185606712Y-79545217D01*
X185886330Y-79503787D01*
X186152492Y-79408603D01*
X186277714Y-79341671D01*
X186349297Y-79097702D01*
X185536200Y-78284605D01*
X184723103Y-79097702D01*
X174863704Y-79097702D01*
X173941514Y-78175512D01*
X184095983Y-78175512D01*
X184137413Y-78455130D01*
X184232597Y-78721292D01*
X184299529Y-78846514D01*
X184543498Y-78918097D01*
X185356595Y-78105000D01*
X185715805Y-78105000D01*
X186528902Y-78918097D01*
X186772871Y-78846514D01*
X186786524Y-78817659D01*
X186921563Y-79019759D01*
X187121441Y-79219637D01*
X187356473Y-79376680D01*
X187617626Y-79484853D01*
X187894865Y-79540000D01*
X188177535Y-79540000D01*
X188454774Y-79484853D01*
X188715927Y-79376680D01*
X188950959Y-79219637D01*
X189150837Y-79019759D01*
X189307880Y-78784727D01*
X189416053Y-78523574D01*
X189471200Y-78246335D01*
X189471200Y-77963665D01*
X189416053Y-77686426D01*
X189307880Y-77425273D01*
X189150837Y-77190241D01*
X188950959Y-76990363D01*
X188715927Y-76833320D01*
X188454774Y-76725147D01*
X188177535Y-76670000D01*
X187894865Y-76670000D01*
X187617626Y-76725147D01*
X187356473Y-76833320D01*
X187121441Y-76990363D01*
X186921563Y-77190241D01*
X186787508Y-77390869D01*
X186772871Y-77363486D01*
X186528902Y-77291903D01*
X185715805Y-78105000D01*
X185356595Y-78105000D01*
X184543498Y-77291903D01*
X184299529Y-77363486D01*
X184178629Y-77618996D01*
X184109900Y-77893184D01*
X184095983Y-78175512D01*
X173941514Y-78175512D01*
X172878300Y-77112298D01*
X184723103Y-77112298D01*
X185536200Y-77925395D01*
X186349297Y-77112298D01*
X186277714Y-76868329D01*
X186022204Y-76747429D01*
X185748016Y-76678700D01*
X185465688Y-76664783D01*
X185186070Y-76706213D01*
X184919908Y-76801397D01*
X184794686Y-76868329D01*
X184723103Y-77112298D01*
X172878300Y-77112298D01*
X172093001Y-76327000D01*
X189888594Y-76327000D01*
X191719200Y-78157606D01*
G37*
X191719200Y-78157606D02*
X191719200Y-94048198D01*
X190505004Y-92834003D01*
X190481201Y-92804999D01*
X190365476Y-92710026D01*
X190233447Y-92639454D01*
X190090186Y-92595997D01*
X189978533Y-92585000D01*
X189978522Y-92585000D01*
X189941200Y-92581324D01*
X189903878Y-92585000D01*
X189781064Y-92585000D01*
X189850436Y-92356309D01*
X189878143Y-92075000D01*
X189850436Y-91793691D01*
X189768382Y-91523192D01*
X189635132Y-91273899D01*
X189455808Y-91055392D01*
X189237301Y-90876068D01*
X189104342Y-90805000D01*
X189237301Y-90733932D01*
X189455808Y-90554608D01*
X189635132Y-90336101D01*
X189768382Y-90086808D01*
X189850436Y-89816309D01*
X189878143Y-89535000D01*
X189850436Y-89253691D01*
X189768382Y-88983192D01*
X189635132Y-88733899D01*
X189455808Y-88515392D01*
X189237301Y-88336068D01*
X189104342Y-88265000D01*
X189237301Y-88193932D01*
X189455808Y-88014608D01*
X189635132Y-87796101D01*
X189768382Y-87546808D01*
X189850436Y-87276309D01*
X189878143Y-86995000D01*
X189850436Y-86713691D01*
X189768382Y-86443192D01*
X189635132Y-86193899D01*
X189455808Y-85975392D01*
X189237301Y-85796068D01*
X189104342Y-85725000D01*
X189237301Y-85653932D01*
X189455808Y-85474608D01*
X189635132Y-85256101D01*
X189768382Y-85006808D01*
X189850436Y-84736309D01*
X189878143Y-84455000D01*
X189850436Y-84173691D01*
X189768382Y-83903192D01*
X189635132Y-83653899D01*
X189455808Y-83435392D01*
X189237301Y-83256068D01*
X189104342Y-83185000D01*
X189237301Y-83113932D01*
X189455808Y-82934608D01*
X189635132Y-82716101D01*
X189768382Y-82466808D01*
X189850436Y-82196309D01*
X189878143Y-81915000D01*
X189850436Y-81633691D01*
X189768382Y-81363192D01*
X189635132Y-81113899D01*
X189455808Y-80895392D01*
X189237301Y-80716068D01*
X188988008Y-80582818D01*
X188717509Y-80500764D01*
X188506692Y-80480000D01*
X187565708Y-80480000D01*
X187354891Y-80500764D01*
X187084392Y-80582818D01*
X186835099Y-80716068D01*
X186616592Y-80895392D01*
X186437268Y-81113899D01*
X186304018Y-81363192D01*
X186221964Y-81633691D01*
X186194257Y-81915000D01*
X186221964Y-82196309D01*
X186304018Y-82466808D01*
X186437268Y-82716101D01*
X186616592Y-82934608D01*
X186835099Y-83113932D01*
X186968058Y-83185000D01*
X186835099Y-83256068D01*
X186616592Y-83435392D01*
X186437268Y-83653899D01*
X186415299Y-83695000D01*
X184495213Y-83695000D01*
X184508405Y-83675256D01*
X184586426Y-83486898D01*
X184626200Y-83286939D01*
X184626200Y-83083061D01*
X184586426Y-82883102D01*
X184508405Y-82694744D01*
X184395137Y-82525226D01*
X184250974Y-82381063D01*
X184081456Y-82267795D01*
X183893098Y-82189774D01*
X183693139Y-82150000D01*
X183631002Y-82150000D01*
X182885004Y-81404003D01*
X182861201Y-81374999D01*
X182745476Y-81280026D01*
X182613447Y-81209454D01*
X182470186Y-81165997D01*
X182358533Y-81155000D01*
X182358522Y-81155000D01*
X182321200Y-81151324D01*
X182283878Y-81155000D01*
X176921002Y-81155000D01*
X174863704Y-79097702D01*
X184723103Y-79097702D01*
X184794686Y-79341671D01*
X185050196Y-79462571D01*
X185324384Y-79531300D01*
X185606712Y-79545217D01*
X185886330Y-79503787D01*
X186152492Y-79408603D01*
X186277714Y-79341671D01*
X186349297Y-79097702D01*
X185536200Y-78284605D01*
X184723103Y-79097702D01*
X174863704Y-79097702D01*
X173941514Y-78175512D01*
X184095983Y-78175512D01*
X184137413Y-78455130D01*
X184232597Y-78721292D01*
X184299529Y-78846514D01*
X184543498Y-78918097D01*
X185356595Y-78105000D01*
X185715805Y-78105000D01*
X186528902Y-78918097D01*
X186772871Y-78846514D01*
X186786524Y-78817659D01*
X186921563Y-79019759D01*
X187121441Y-79219637D01*
X187356473Y-79376680D01*
X187617626Y-79484853D01*
X187894865Y-79540000D01*
X188177535Y-79540000D01*
X188454774Y-79484853D01*
X188715927Y-79376680D01*
X188950959Y-79219637D01*
X189150837Y-79019759D01*
X189307880Y-78784727D01*
X189416053Y-78523574D01*
X189471200Y-78246335D01*
X189471200Y-77963665D01*
X189416053Y-77686426D01*
X189307880Y-77425273D01*
X189150837Y-77190241D01*
X188950959Y-76990363D01*
X188715927Y-76833320D01*
X188454774Y-76725147D01*
X188177535Y-76670000D01*
X187894865Y-76670000D01*
X187617626Y-76725147D01*
X187356473Y-76833320D01*
X187121441Y-76990363D01*
X186921563Y-77190241D01*
X186787508Y-77390869D01*
X186772871Y-77363486D01*
X186528902Y-77291903D01*
X185715805Y-78105000D01*
X185356595Y-78105000D01*
X184543498Y-77291903D01*
X184299529Y-77363486D01*
X184178629Y-77618996D01*
X184109900Y-77893184D01*
X184095983Y-78175512D01*
X173941514Y-78175512D01*
X172878300Y-77112298D01*
X184723103Y-77112298D01*
X185536200Y-77925395D01*
X186349297Y-77112298D01*
X186277714Y-76868329D01*
X186022204Y-76747429D01*
X185748016Y-76678700D01*
X185465688Y-76664783D01*
X185186070Y-76706213D01*
X184919908Y-76801397D01*
X184794686Y-76868329D01*
X184723103Y-77112298D01*
X172878300Y-77112298D01*
X172093001Y-76327000D01*
X189888594Y-76327000D01*
X191719200Y-78157606D01*
G36*
X130229670Y-90765049D02*
G01*
X130257383Y-90798817D01*
X130291151Y-90826530D01*
X130291153Y-90826532D01*
X130305528Y-90838329D01*
X130392141Y-90909411D01*
X130545887Y-90991589D01*
X130712710Y-91042195D01*
X130842723Y-91055000D01*
X130842731Y-91055000D01*
X130886200Y-91059281D01*
X130929669Y-91055000D01*
X131391113Y-91055000D01*
X131383103Y-91082298D01*
X132196200Y-91895395D01*
X132210343Y-91881253D01*
X132389948Y-92060858D01*
X132375805Y-92075000D01*
X133188902Y-92888097D01*
X133432871Y-92816514D01*
X133446524Y-92787659D01*
X133581563Y-92989759D01*
X133781441Y-93189637D01*
X133826883Y-93220000D01*
X132964611Y-93220000D01*
X133009297Y-93067702D01*
X132196200Y-92254605D01*
X132182058Y-92268748D01*
X132002453Y-92089143D01*
X132016595Y-92075000D01*
X131203498Y-91261903D01*
X130959529Y-91333486D01*
X130838629Y-91588996D01*
X130769900Y-91863184D01*
X130755983Y-92145512D01*
X130797413Y-92425130D01*
X130854391Y-92584457D01*
X130848878Y-92585000D01*
X128354378Y-92585000D01*
X128229675Y-92398368D01*
X128022832Y-92191525D01*
X127848440Y-92075000D01*
X128022832Y-91958475D01*
X128229675Y-91751632D01*
X128392190Y-91508411D01*
X128504132Y-91238158D01*
X128561200Y-90951260D01*
X128561200Y-90658740D01*
X128504132Y-90371842D01*
X128392190Y-90101589D01*
X128229675Y-89858368D01*
X128022832Y-89651525D01*
X127848440Y-89535000D01*
X128022832Y-89418475D01*
X128229675Y-89211632D01*
X128270856Y-89150000D01*
X128614622Y-89150000D01*
X130229670Y-90765049D01*
G37*
X130229670Y-90765049D02*
X130257383Y-90798817D01*
X130291151Y-90826530D01*
X130291153Y-90826532D01*
X130305528Y-90838329D01*
X130392141Y-90909411D01*
X130545887Y-90991589D01*
X130712710Y-91042195D01*
X130842723Y-91055000D01*
X130842731Y-91055000D01*
X130886200Y-91059281D01*
X130929669Y-91055000D01*
X131391113Y-91055000D01*
X131383103Y-91082298D01*
X132196200Y-91895395D01*
X132210343Y-91881253D01*
X132389948Y-92060858D01*
X132375805Y-92075000D01*
X133188902Y-92888097D01*
X133432871Y-92816514D01*
X133446524Y-92787659D01*
X133581563Y-92989759D01*
X133781441Y-93189637D01*
X133826883Y-93220000D01*
X132964611Y-93220000D01*
X133009297Y-93067702D01*
X132196200Y-92254605D01*
X132182058Y-92268748D01*
X132002453Y-92089143D01*
X132016595Y-92075000D01*
X131203498Y-91261903D01*
X130959529Y-91333486D01*
X130838629Y-91588996D01*
X130769900Y-91863184D01*
X130755983Y-92145512D01*
X130797413Y-92425130D01*
X130854391Y-92584457D01*
X130848878Y-92585000D01*
X128354378Y-92585000D01*
X128229675Y-92398368D01*
X128022832Y-92191525D01*
X127848440Y-92075000D01*
X128022832Y-91958475D01*
X128229675Y-91751632D01*
X128392190Y-91508411D01*
X128504132Y-91238158D01*
X128561200Y-90951260D01*
X128561200Y-90658740D01*
X128504132Y-90371842D01*
X128392190Y-90101589D01*
X128229675Y-89858368D01*
X128022832Y-89651525D01*
X127848440Y-89535000D01*
X128022832Y-89418475D01*
X128229675Y-89211632D01*
X128270856Y-89150000D01*
X128614622Y-89150000D01*
X130229670Y-90765049D01*
G36*
X163858629Y-77618996D02*
G01*
X163789900Y-77893184D01*
X163775983Y-78175512D01*
X163817413Y-78455130D01*
X163912597Y-78721292D01*
X163979529Y-78846514D01*
X164223498Y-78918097D01*
X165036595Y-78105000D01*
X165022453Y-78090858D01*
X165202058Y-77911253D01*
X165216200Y-77925395D01*
X165230343Y-77911253D01*
X165409948Y-78090858D01*
X165395805Y-78105000D01*
X165409948Y-78119143D01*
X165230343Y-78298748D01*
X165216200Y-78284605D01*
X164403103Y-79097702D01*
X164411113Y-79125000D01*
X150945596Y-79125000D01*
X151050837Y-79019759D01*
X151207880Y-78784727D01*
X151316053Y-78523574D01*
X151371200Y-78246335D01*
X151371200Y-77963665D01*
X151316053Y-77686426D01*
X151278183Y-77595000D01*
X163869983Y-77595000D01*
X163858629Y-77618996D01*
G37*
X163858629Y-77618996D02*
X163789900Y-77893184D01*
X163775983Y-78175512D01*
X163817413Y-78455130D01*
X163912597Y-78721292D01*
X163979529Y-78846514D01*
X164223498Y-78918097D01*
X165036595Y-78105000D01*
X165022453Y-78090858D01*
X165202058Y-77911253D01*
X165216200Y-77925395D01*
X165230343Y-77911253D01*
X165409948Y-78090858D01*
X165395805Y-78105000D01*
X165409948Y-78119143D01*
X165230343Y-78298748D01*
X165216200Y-78284605D01*
X164403103Y-79097702D01*
X164411113Y-79125000D01*
X150945596Y-79125000D01*
X151050837Y-79019759D01*
X151207880Y-78784727D01*
X151316053Y-78523574D01*
X151371200Y-78246335D01*
X151371200Y-77963665D01*
X151316053Y-77686426D01*
X151278183Y-77595000D01*
X163869983Y-77595000D01*
X163858629Y-77618996D01*
M02*
