M48
INCH,TZ
T1C0.0157
T2C0.0315
T3C0.0354
T4C0.0394
T5C0.0400
T6C0.0433
%
G90
G05
T1
X49530Y-52750
X50780Y-52250
X51030Y-39000
X51280Y-31750
X51280Y-46750
X51530Y-41250
X51780Y-50500
X52030Y-38500
X52030Y-40250
X52280Y-50000
X52780Y-49500
X53780Y-37250
X54280Y-38750
X54280Y-41750
X54280Y-51000
X55530Y-52250
X55780Y-44750
X56030Y-50500
X56280Y-35250
X56280Y-40750
X56780Y-35750
X56780Y-39750
X56780Y-41250
X56780Y-43750
X57030Y-44250
X57280Y-38750
X57280Y-40250
X57280Y-42750
X58030Y-52750
X58530Y-32250
X58530Y-35250
X58530Y-46750
X59030Y-33750
X59030Y-35750
X60530Y-51750
X60780Y-38750
X61030Y-32750
X61280Y-37250
X61280Y-44750
X61530Y-48500
X61780Y-39750
X61780Y-42250
X62280Y-41250
X62530Y-46750
X62780Y-36750
X62780Y-39750
X62780Y-40750
X62780Y-43250
X63280Y-40250
X63280Y-45250
X63780Y-40750
X63780Y-42750
X63780Y-44250
X64280Y-39250
X64780Y-37750
X64780Y-42750
X64780Y-45250
X65280Y-38750
X66530Y-48500
X67280Y-42750
X67530Y-49000
X68030Y-48500
X69280Y-35750
X69280Y-41250
X69780Y-34750
X70030Y-50500
X70280Y-35250
X70780Y-32750
X71280Y-36250
X71780Y-34250
X72280Y-32750
X72280Y-38250
X72280Y-39250
X72780Y-33750
X74530Y-51000
X74780Y-37750
T2
X50030Y-47500
X50030Y-51500
X52046Y-37750
X53030Y-37750
X52046Y-36250
X53030Y-36250
X68030Y-32250
X68030Y-33250
X68030Y-34250
X68030Y-35250
X68030Y-36250
X68030Y-37250
X68030Y-38250
X68030Y-39250
X68030Y-40250
X68030Y-41250
X68030Y-42250
X68030Y-43250
X68030Y-44250
X68030Y-45250
X74030Y-32250
X74030Y-33250
X74030Y-34250
X74030Y-35250
X74030Y-36250
X74030Y-37250
X74030Y-38250
X74030Y-39250
X74030Y-40250
X74030Y-41250
X74030Y-42250
X74030Y-43250
X74030Y-44250
X74030Y-45250
X65046Y-30750
X66030Y-30750
X53530Y-47500
X53530Y-51500
X60030Y-32250
X60030Y-33250
X60030Y-34250
X60030Y-35250
X60030Y-36250
X60030Y-37250
X60030Y-38250
X60030Y-39250
X60030Y-40250
X60030Y-41250
X60030Y-42250
X60030Y-43250
X60030Y-44250
X60030Y-45250
X66030Y-32250
X66030Y-33250
X66030Y-34250
X66030Y-35250
X66030Y-36250
X66030Y-37250
X66030Y-38250
X66030Y-39250
X66030Y-40250
X66030Y-41250
X66030Y-42250
X66030Y-43250
X66030Y-44250
X66030Y-45250
X55030Y-36250
X55030Y-37250
X55030Y-38250
X55030Y-39250
X55030Y-40250
X55030Y-41250
X55030Y-42250
X55030Y-43250
X55030Y-44250
X55030Y-45250
X58030Y-36250
X58030Y-37250
X58030Y-38250
X58030Y-39250
X58030Y-40250
X58030Y-41250
X58030Y-42250
X58030Y-43250
X58030Y-44250
X58030Y-45250
X51780Y-47500
X51780Y-51500
X55030Y-47500
X55030Y-53500
X56030Y-47500
X56030Y-53500
X57030Y-47500
X57030Y-53500
X58030Y-47500
X58030Y-53500
X59030Y-47500
X59030Y-53500
X60030Y-47500
X60030Y-53500
X61030Y-47500
X61030Y-53500
X62030Y-47500
X62030Y-53500
X63030Y-47500
X63030Y-53500
X64030Y-47500
X64030Y-53500
X65030Y-47500
X65030Y-53500
X66030Y-47500
X66030Y-53500
X67030Y-47500
X67030Y-53500
X68030Y-47500
X68030Y-53500
X69030Y-47500
X69030Y-53500
X70030Y-47500
X70030Y-53500
X71030Y-47500
X71030Y-53500
X72030Y-47500
X72030Y-53500
X73030Y-47500
X73030Y-53500
X74030Y-47500
X74030Y-53500
X50030Y-39250
X50030Y-40250
X50030Y-41250
X50030Y-42250
X50030Y-43250
X50030Y-44250
X50030Y-45250
X53030Y-39250
X53030Y-40250
X53030Y-41250
X53030Y-42250
X53030Y-43250
X53030Y-44250
X53030Y-45250
X52530Y-53500
X53514Y-53500
X73046Y-30750
X74030Y-30750
X50030Y-53500
X50030Y-57500
X55030Y-30750
X59030Y-30750
T3
X57530Y-33500
X57530Y-34500
T4
X50030Y-32750
X50030Y-33750
X50030Y-34750
X50030Y-35750
X50030Y-36750
X50030Y-37750
T5
X53530Y-56250
X53530Y-57250
X54530Y-56250
X54530Y-57250
X55530Y-56250
X55530Y-57250
X56530Y-56250
X56530Y-57250
X57530Y-56250
X57530Y-57250
X58530Y-56250
X58530Y-57250
X59530Y-56250
X59530Y-57250
X60530Y-56250
X60530Y-57250
X61530Y-56250
X61530Y-57250
X62530Y-56250
X62530Y-57250
X63530Y-56250
X63530Y-57250
X64530Y-56250
X64530Y-57250
X65530Y-56250
X65530Y-57250
X66530Y-56250
X66530Y-57250
X67530Y-56250
X67530Y-57250
X68530Y-56250
X68530Y-57250
X69530Y-56250
X69530Y-57250
X70530Y-56250
X70530Y-57250
X71530Y-56250
X71530Y-57250
X72530Y-56250
X72530Y-57250
T6
X52030Y-32978
X52030Y-34750
X54589Y-32978
X54589Y-34750
T0
M30
